<svg xmlns="http://www.w3.org/2000/svg" viewBox="0 0 706.47 102.36" width="706.47" height="102.36"><text transform="translate(0 97.86)" font-size="12" fill="#231f20" font-family="Menlo-Regular, Menlo">CGFloat</text><text transform="translate(10.84 32.49)" font-size="16" fill="#231f20" font-family="Menlo-Regular, Menlo">1.0</text><circle cx="139.89" cy="17.49" r="2.83" fill="#fff" stroke="#231f20" stroke-miterlimit="10"/><text transform="translate(117.44 97.86)" font-size="12" fill="#231f20" font-family="Menlo-Regular, Menlo">CGPoint</text><text transform="translate(101.36 62.14)" font-size="8" fill="#808285" font-family="Menlo-Regular, Menlo">(x: 1.0, y: 2.0)</text><text transform="translate(537.9 57.34)" font-size="8" fill="#808285" font-family="Menlo-Regular, Menlo">(origin: (<tspan x="48.16" y="0" letter-spacing=".02em">x</tspan><tspan x="53.14" y="0">: 1.0, y: 2.0),</tspan><tspan x="0" y="9.6"> size: (width: 4.0, height: 3.0))</tspan></text><text transform="translate(600.51 97.86)" font-size="12" fill="#231f20" font-family="Menlo-Regular, Menlo">CGRect</text><path fill="none" stroke="#c2c4c6" stroke-miterlimit="10" d="M642.85 32.91v1h-1"/><path fill="none" stroke="#c2c4c6" stroke-miterlimit="10" stroke-dasharray="2,2" d="M639.85 33.91h-35"/><path fill="none" stroke="#c2c4c6" stroke-miterlimit="10" d="M603.85 33.91h-1v-1"/><path fill="none" stroke="#c2c4c6" stroke-miterlimit="10" stroke-dasharray="1.8666666746139526,1.8666666746139526" d="M602.85 31.04V5.84"/><path fill="none" stroke="#c2c4c6" stroke-miterlimit="10" d="M602.85 4.91v-1h1"/><path fill="none" stroke="#c2c4c6" stroke-miterlimit="10" stroke-dasharray="2,2" d="M605.85 3.91h35"/><path fill="none" stroke="#c2c4c6" stroke-miterlimit="10" d="M641.85 3.91h1v1"/><path fill="none" stroke="#c2c4c6" stroke-miterlimit="10" stroke-dasharray="1.8666666746139526,1.8666666746139526" d="M642.85 6.77v25.2"/><path fill="none" stroke="#231f20" stroke-miterlimit="10" d="M604.35 3.91h36.41"/><path fill="#231f20" d="M640.03 6.4l4.32-2.49-4.32-2.49V6.4z"/><path fill="none" stroke="#231f20" stroke-miterlimit="10" d="M602.85 3.91v26.41"/><path fill="#231f20" d="M600.36 29.59l2.49 4.32 2.5-4.32h-4.99z"/><circle cx="602.85" cy="3.91" r="2.83" fill="#fff" stroke="#231f20" stroke-miterlimit="10"/><text transform="translate(405.23 97.86)" font-size="12" fill="#231f20" font-family="Menlo-Regular, Menlo">CGSize</text><text transform="translate(366.7 62.14)" font-size="8" fill="#808285" font-family="Menlo-Regular, Menlo">(width: 4.0, height: 3.0)</text><path fill="none" stroke="#231f20" stroke-miterlimit="10" d="M406.4 2.49h37.67"/><path fill="#231f20" d="M406.15.87h.5v3.25h-.5zM443.34 4.99l4.31-2.5L443.34 0v4.99z"/><path fill="none" stroke="#231f20" stroke-miterlimit="10" d="M406.15 2.74v26.17"/><path fill="#231f20" d="M404.53 2.49h3.25v.5h-3.25zM403.66 28.18l2.49 4.31 2.5-4.31h-4.99z"/><path fill="none" stroke="#231f20" stroke-miterlimit="10" d="M252.56 2.49l39.13 29.35"/><path fill="#231f20" d="M286.59 33.13l-.11-1 4.91-.52-.88-4.85.99-.18 1.06 5.91-5.97.64z"/><text transform="translate(249.2 97.86)" font-size="12" fill="#231f20" font-family="Menlo-Regular, Menlo">CGVector</text><text transform="translate(229.21 62.14)" font-size="8" fill="#808285" font-family="Menlo-Regular, Menlo">(dx: 4.0, dy: 3.0)</text></svg>
