<svg xmlns="http://www.w3.org/2000/svg" width="576" height="885.307" viewBox="0 0 432 663.98">
    <defs>
        <clipPath id="a">
            <path d="M0 446h432v217.98H0zm0 0"/>
        </clipPath>
        <clipPath id="b">
            <path d="M68 573.98h15V595H68zm0 0"/>
        </clipPath>
        <clipPath id="c">
            <path d="M18 615h13v21.98H18zm0 0"/>
        </clipPath>
    </defs>
    <path fill="#fcaf17" d="M0 0h432v663.98H0z"/>
    <path d="M-454.195 386.719H58.727s.882 41.785 58.59 41.785h314.988v102.922h-886.5" fill="#aa3a24"/>
    <path d="M494.203 18.715c0 67.762-54.996 122.762-122.762 122.762-67.761 0-122.761-55-122.761-122.762 0-67.766 55-122.766 122.761-122.766 67.766 0 122.762 55 122.762 122.766" fill="#f06c33"/>
    <g clip-path="url(#a)">
        <path d="M135.254 446.988s-5.594 52.219-67.969 52.219h-521.48v173.496h894.71V446.988" fill="#f06c33"/>
    </g>
    <path d="M175.242 534.504c34.145 36.992 90.094 78.234 169.828 78.234 5.418 0 10.953-.199 16.606-.59 55.875-3.921 97.094-33.964 110.25-80.367 14.215-50.062-7.867-106.37-54.836-140.101-15.133-10.864-29.95-20.367-44.281-29.547-56.528-36.172-77.317-52.809-71.27-83.488 3.86-19.547 17.824-28.391 28.852-32.325 20.968-7.527 55.73-5.382 90.59 23.133 20.89 17.223 38.074 32.711 38.074 32.711" fill="none" stroke-width="34.6995" stroke="#0f5f90" stroke-miterlimit="10"/>
    <path d="M218.605 490.594c16.973 18.863 35.754 33.586 55.961 43.754 25.555 12.902 53.418 18.39 82.797 16.328 29.703-2.102 49.336-14.719 55.278-35.75 7.023-24.762-5.93-54.88-31.543-73.239-13.809-9.902-27.93-18.925-41.59-27.714-27.664-17.73-53.793-34.47-72.555-55.457-23.93-26.774-32.656-57.664-25.906-91.829 7.266-36.8 32.226-65.39 68.504-78.398 22.816-8.191 48.644-9.57 74.656-4.008 26.605 5.7 52.816 18.688 75.813 37.551" fill="none" stroke-width="34.6995" stroke="#2685c0" stroke-miterlimit="10"/>
    <path d="M175.043 489.09s8.203 8.414 20.664 22.082c32.594 35.824 86.223 75.644 163.813 70.2 102.605-7.153 109.796-114.259 39.597-164.669-69.398-49.808-141.308-75.601-127.808-144 12.703-64.32 99.007-84.605 169.218-27.004l27.79 22.188" fill="none" stroke-width="34.6995" stroke="#69c6b6" stroke-miterlimit="10"/>
    <path d="M187.758 470.121l-11.192 9.16-1.226-1.336a1.413 1.413 0 0 0-1.969-.074 1.389 1.389 0 0 0-.078 1.961l.004.004 1.117 1.21-1.945 1.587-4.293-4.477a2.033 2.033 0 0 0-2.844-.386 2.034 2.034 0 0 0-.121 3.128l4.207 4.618-1.734 1.828-1.2-1.207a1.39 1.39 0 1 0-2.039 1.89l1.243 1.336-9.97 10.516c-1.882 1.976-2.105 3.02-.452 3.598 1.648.578 4.73-.75 10.62-5.207 3.712-2.817 6.759-5.5 8.516-7.11l1.25 1.367c1.387 1.496 4.008 3.891 6.172 5.797l-3.152 6.309 1.23 1.312 5.258-4.855a7.625 7.625 0 0 0 2.637 1.25 7.582 7.582 0 0 0-1.05-2.735l5.257-4.859-1.23-1.312-6.528 2.64c-1.738-2.304-3.926-5.09-5.258-6.586a69.79 69.79 0 0 1-1.273-1.355 125.451 125.451 0 0 0 7.719-7.957c4.879-5.543 6.445-8.54 5.98-10.2-.46-1.663-1.543-1.578-3.656.145M233.781 473.508l-11.219 9.125-1.242-1.332a1.386 1.386 0 0 0-1.965-.074 1.386 1.386 0 0 0-.074 1.964l1.114 1.211c-.735.598-1.387 1.145-1.946 1.586l-4.289-4.406a2.033 2.033 0 0 0-2.84-.43 2.032 2.032 0 0 0-.117 3.176l4.145 4.613-1.727 1.832-1.125-1.21a1.388 1.388 0 0 0-1.96-.079c0 .004 0 .004-.005.004a1.413 1.413 0 0 0-.074 1.969l1.242 1.336-9.957 10.516c-1.883 1.976-2.105 3.015-.465 3.593 1.641.578 4.735-.746 10.621-5.203 3.711-2.82 6.762-5.5 8.516-7.11l1.254 1.368c1.387 1.492 4.004 3.89 6.172 5.793l-3.156 6.309 1.23 1.316 5.258-4.86a7.644 7.644 0 0 0 2.64 1.25 7.625 7.625 0 0 0-1.05-2.722l5.258-4.867-1.223-1.317-6.55 2.602c-1.735-2.305-3.923-5.094-5.259-6.586l-1.27-1.355a119.52 119.52 0 0 0 7.72-7.961c4.886-5.54 6.445-8.536 5.98-10.2-.461-1.66-1.535-1.586-3.637.149M189.89 518.742l-11.175 9.106-1.242-1.332a1.397 1.397 0 0 0-2.04 1.902l1.126 1.2-1.946 1.585-4.3-4.406a2.025 2.025 0 0 0-2.844-.375 2.029 2.029 0 0 0-.114 3.129l4.145 4.605-1.723 1.832-1.125-1.21a1.398 1.398 0 0 0-1.968-.075 1.398 1.398 0 0 0-.075 1.969l1.243 1.336-9.957 10.512c-1.883 1.976-2.106 3.02-.465 3.597 1.64.578 4.734-.746 10.632-5.258 3.7-2.804 6.75-5.5 8.504-7.105.508.555.938 1.05 1.262 1.363 1.379 1.496 3.996 3.89 6.164 5.797l-3.152 6.309 1.226 1.312 5.258-4.855a7.715 7.715 0 0 0 2.64 1.25 7.57 7.57 0 0 0-1.05-2.723l5.258-4.871-1.223-1.313-6.55 2.649c-1.735-2.313-3.922-5.098-5.31-6.594l-1.273-1.355a116.41 116.41 0 0 0 7.72-7.957c4.89-5.543 6.444-8.54 5.984-10.203-.465-1.66-1.516-1.555-3.63.18" fill="#fff"/>
    <path d="M345.883 36.672h107.566v-2.785H345.883zm0 0" fill="#fcaf17"/>
    <path d="M391.367 40.512h27.867v-3.84h-27.867zm0 0" fill="#f06c33"/>
    <path d="M333.273 43.297h102.7v-2.785h-102.7zm0 0M182.414 36.672h89.379v-2.785h-89.379zm0 0M225.336 43.297h68.105v-2.785h-68.105zm0 0M256.504 100.531h73.363v-2.789h-73.363zm0 0" fill="#fcaf17"/>
    <path d="M302.004 104.367h27.863v-3.836h-27.863zm0 0" fill="#f06c33"/>
    <path d="M243.906 107.164h102.7v-2.785h-102.7zm0 0" fill="#fcaf17"/>
    <path d="M37.738 88.879h-4.945l-.352-2.945c-1.21 2.28-2.996 3.445-5.394 3.445-3.117 0-5.192-1.465-6.274-4.395-1.105-2.933-1.625-7.812-1.625-14.644-.015-6.383.766-11.11 2.301-14.242 1.516-3.137 4.215-4.7 8.043-4.7 3.067-.003 5.23 1.102 6.399 3.301 1.136 2.192 1.683 5.578 1.547 10.145l-6.196.547c-.047-3.399-.176-5.602-.426-6.618-.253-1.046-.89-1.527-1.921-1.527-1.266-.02-2.043.941-2.426 2.824-.407 1.852-.574 5.32-.574 10.32-.032 3.762.109 6.622.324 8.57.21 1.923.55 3.274 1 3.974.445.683 1.11 1.05 1.976 1.05 1.735-.004 2.73-1.734 2.899-5.199v-2.5h-3.051v-5.547h8.695v18.14M52.793 76.637V52.102h6.297v25.683c-.031 1.766-.102 3.266-.3 4.5-.231 1.23-.599 2.43-1.2 3.598-.63 1.164-1.524 2.039-2.774 2.62-1.254.575-2.824.876-4.722.876-1.563 0-2.84-.223-3.922-.676-1.106-.457-1.918-.996-2.5-1.644-.606-.676-1.031-1.543-1.348-2.676a16.584 16.584 0 0 1-.601-3.172c-.09-.992-.121-2.207-.121-3.676V52.102h6.293v24.433c-.032 2.883.14 4.84.425 5.824.278.957.957 1.473 2.024 1.473.984-.016 1.66-.48 1.976-1.445.309-.969.473-2.883.473-5.75M71.895 57.648v25.633h2.949v5.5H62.5v-5.5h2.95V57.648h-2.9v-5.546h12.192v5.546h-2.847M84.344 88.781h-6.047v-36.68h6.2c4.765-.007 8.01 1.333 9.644 3.997 1.617 2.66 2.449 7.312 2.449 13.941-.031 6.777-.844 11.621-2.524 14.469-1.707 2.84-4.921 4.273-9.722 4.273zm.402-5.699h.598c1.886 0 3.117-.832 3.648-2.496.504-1.668.801-5.133.801-10.395-.031-3.504-.125-6.105-.375-7.824-.254-1.742-.664-2.914-1.25-3.594-.606-.714-1.492-1.027-2.723-1.027h-.699v25.336M114.492 67.14v5.9h-7.648v9.694h9.547v6.047h-16.043v-36.68h14.992v6.094h-8.496v8.946h7.648M131.098 88.781V58.195h-5.348v-6.093h17.09v6.093h-5.297v30.586h-6.445M152.746 89.379c-1.516 0-2.766-.266-3.8-.8a6.55 6.55 0 0 1-2.5-2.196c-.645-.934-1.13-2.219-1.497-3.852-.383-1.648-.61-3.37-.726-5.219-.121-1.859-.172-4.156-.172-6.921-.02-6.567.722-11.368 2.172-14.418 1.441-3.078 3.906-4.575 7.37-4.575 1.536-.003 2.872.27 3.923.801 1.043.528 1.882 1.235 2.5 2.102.613.86 1.09 2.12 1.422 3.77.32 1.62.55 3.324.652 5.023.07 1.695.148 3.898.148 6.597-.011 6.957-.683 11.985-2.047 15.067-1.394 3.055-3.847 4.62-7.445 4.62zm.45-5.645c1-.02 1.69-.882 1.972-2.648.262-1.77.426-5.414.426-10.945-.031-5.184-.133-8.579-.399-10.246-.3-1.668-.886-2.497-1.851-2.497-1.114-.007-1.809.875-2.125 2.622-.32 1.738-.473 5.19-.473 10.32-.016 5.644.133 9.312.399 10.945.253 1.63.949 2.45 2.05 2.45M35.992 108.844l-6.097.351c.101-2.57.03-4.34-.301-5.324-.364-1.012-.985-1.473-1.95-1.473-1.546-.007-2.3.95-2.3 2.848-.012 1.344.285 2.48.851 3.348.535.86 1.5 1.797 2.797 2.797.07.062.492.367 1.176.902.66.527 1.11.863 1.273.996.153.133.551.461 1.153.977.566.488.996.918 1.195 1.199.172.254.535.7 1 1.25.438.539.793 1.05.977 1.5.16.437.398.972.648 1.574.246.598.418 1.23.5 1.898.078.665.125 1.368.125 2.098-.012 3.496-.816 6.14-2.45 7.922-1.66 1.773-3.831 2.672-6.597 2.672-3.394 0-5.726-1.016-7.094-3.047-1.398-2.05-1.964-5.098-1.796-9.195l6.492-.551c-.063 2.863.176 4.773.625 5.723.445.941 1.16 1.425 2.125 1.425 1.453-.02 2.199-1.148 2.199-3.449-.016-1.535-.383-2.808-1.148-3.82-.801-1.047-1.903-2.059-3.399-3.125-1-.719-1.664-1.227-2.098-1.574-.468-.38-1.043-.918-1.828-1.7-.804-.812-1.355-1.523-1.722-2.222-.383-.723-.707-1.594-1.024-2.676-.324-1.113-.472-2.258-.472-3.523-.02-3.32.855-5.832 2.57-7.594 1.71-1.79 3.973-2.653 6.773-2.653 3.067-.003 5.262 1.008 6.496 3.028 1.204 2 1.664 5.152 1.301 9.418M66.734 133.781H57.79l-2.297-27.683h-.203l-1.996 27.683h-8.848l-5.644-36.68h7.195l2.496 28.985h.301l2.402-28.984h8.64l2.403 28.785h.2l2.25-28.785h6.894l-4.848 36.68M83.293 102.648v25.633h2.95v5.5H73.897v-5.5h2.95v-25.633h-2.899v-5.546h12.192v5.546h-2.848M103.89 112.39v5.95h-7.644v15.441H89.75v-36.68h14.992v6.094h-8.496v9.196h7.645M111.996 133.781v-30.586h-5.348v-6.093h17.094v6.093h-5.297v30.586h-6.449M35.992 153.844l-6.097.351c.101-2.57.03-4.34-.301-5.324-.364-1.012-.985-1.473-1.95-1.473-1.546-.007-2.3.95-2.3 2.848-.012 1.344.285 2.48.851 3.348.535.86 1.5 1.797 2.797 2.797.07.062.492.367 1.176.902.66.527 1.11.863 1.273.996.153.133.551.461 1.153.977.566.488.996.918 1.195 1.199.172.254.535.7 1 1.25.438.539.793 1.05.977 1.5.16.437.398.972.648 1.574.246.598.418 1.23.5 1.899.078.664.125 1.367.125 2.097-.012 3.496-.816 6.14-2.45 7.922-1.66 1.773-3.831 2.672-6.597 2.672-3.394 0-5.726-1.016-7.094-3.047-1.398-2.05-1.964-5.098-1.796-9.195l6.492-.551c-.063 2.863.176 4.773.625 5.723.445.941 1.16 1.425 2.125 1.425 1.453-.02 2.199-1.148 2.199-3.449-.016-1.535-.383-2.808-1.148-3.82-.801-1.047-1.903-2.059-3.399-3.125-1-.719-1.664-1.227-2.098-1.574-.468-.38-1.043-.918-1.828-1.7-.804-.812-1.355-1.523-1.722-2.222-.383-.723-.707-1.594-1.024-2.676-.324-1.113-.472-2.258-.472-3.523-.02-3.32.855-5.833 2.57-7.594 1.71-1.79 3.973-2.653 6.773-2.653 3.067-.003 5.262 1.008 6.496 3.028 1.204 2 1.664 5.152 1.301 9.418M43.695 178.781v-30.586h-5.343v-6.093h17.09v6.093h-5.297v30.586h-6.45M70.344 178.781l-4.297-15.691h-1.3v15.691h-6.45v-36.68h5.601c3.93-.007 6.926.723 8.891 2.172 1.938 1.418 2.95 4.09 2.95 7.922-.012 4.559-1.384 7.696-4.145 9.395l5.695 17.191zm-5.598-21.34h.649c1.3-.02 2.3-.355 2.898-1.074.57-.746.902-1.941.902-3.672-.03-2.937-1.086-4.398-3.25-4.398h-1.199v9.144M88.594 147.648v25.633h2.949v5.5H79.199v-5.5h2.95v-25.633H79.25v-5.546h12.191v5.546h-2.847M114.39 178.781h-7.148l-5.797-22.687h-.148v22.687h-6.2v-36.68h7.798l5.199 21.739h.199v-21.738h6.098v36.68M136.84 178.879h-4.95l-.347-2.945c-1.215 2.28-3 3.445-5.398 3.445-3.114 0-5.192-1.465-6.274-4.395-1.105-2.933-1.621-7.812-1.621-14.644-.016-6.383.766-11.11 2.297-14.242 1.516-3.137 4.215-4.7 8.047-4.7 3.066-.003 5.23 1.102 6.394 3.301 1.137 2.192 1.684 5.578 1.551 10.145l-6.195.547c-.047-3.399-.176-5.602-.426-6.618-.254-1.046-.89-1.527-1.926-1.527-1.262-.02-2.039.941-2.422 2.824-.406 1.852-.574 5.32-.574 10.32-.031 3.762.11 6.622.324 8.57.211 1.923.551 3.274 1 3.974.442.683 1.11 1.05 1.973 1.05 1.734-.004 2.73-1.734 2.898-5.199v-2.5h-3.046v-5.547h8.695v18.14M157.29 153.844l-6.095.351c.102-2.57.032-4.34-.3-5.324-.368-1.012-.985-1.473-1.95-1.473-1.547-.007-2.3.95-2.3 2.848-.016 1.344.285 2.48.851 3.348.535.86 1.5 1.797 2.797 2.797.07.062.492.367 1.176.902.66.527 1.105.863 1.273.996.153.133.551.461 1.149.977.57.488 1 .918 1.199 1.199.172.254.535.7 1 1.25.437.539.793 1.05.976 1.5.16.437.399.972.649 1.574.246.598.414 1.23.5 1.899.078.664.125 1.367.125 2.097-.016 3.496-.817 6.14-2.45 7.922-1.663 1.773-3.831 2.672-6.597 2.672-3.395 0-5.73-1.016-7.094-3.047-1.398-2.05-1.965-5.098-1.8-9.195l6.496-.551c-.067 2.863.175 4.773.625 5.723.445.941 1.16 1.425 2.125 1.425 1.453-.02 2.199-1.148 2.199-3.449-.016-1.535-.383-2.808-1.149-3.82-.8-1.047-1.902-2.059-3.398-3.125-1-.719-1.668-1.227-2.102-1.574-.465-.38-1.039-.918-1.824-1.7-.805-.812-1.355-1.523-1.723-2.222-.382-.723-.707-1.594-1.027-2.676-.32-1.113-.473-2.258-.473-3.523-.015-3.32.86-5.833 2.575-7.594 1.707-1.79 3.972-2.653 6.77-2.653 3.07-.003 5.265 1.008 6.5 3.028 1.198 2 1.663 5.152 1.296 9.418" fill="#0f5f90"/>
    <path d="M17.945 207.578l3.5-14.797h2.153l-3.496 14.797h-2.157M22.445 207.578l3.5-14.797h2.153l-3.496 14.797h-2.157M42 192.703h2.738L42.34 207.38h-3.461L36.3 192.703h2.84L40.5 204.16h.117L42 192.703M49.64 207.621c-.613-.016-1.105-.105-1.519-.32a2.698 2.698 0 0 1-1-.88c-.262-.39-.453-.886-.601-1.538a12.836 12.836 0 0 1-.29-2.09c-.058-.746-.07-1.664-.07-2.77-.02-2.64.29-4.55.871-5.77.57-1.245 1.563-1.827 2.946-1.827.601-.016 1.152.105 1.57.316.406.192.754.492 1 .84.23.348.437.852.57 1.512.13.656.223 1.328.262 2.008.016.671.059 1.558.059 2.64-.012 2.766-.274 4.797-.82 6.031-.552 1.2-1.54 1.848-2.977 1.848zm.18-2.262c.407-.027.676-.351.79-1.058.109-.715.167-2.164.167-4.38-.023-2.077-.054-3.429-.16-4.097-.113-.683-.351-1-.738-1-.465-.015-.723.352-.848 1.051-.136.668-.191 2.074-.191 4.129-.012 2.258.055 3.723.16 4.379.07.648.379.976.82.976M58.281 192.703v12.258h3.176v2.418h-5.758v-14.676h2.582M68.879 200.941l-.121-2.32c.82-.039 1.375-.215 1.601-.566.207-.38.34-1.012.34-1.973-.035-.867-.207-1.3-.62-1.3-.306 0-.477.163-.59.491-.141.297-.137.938-.067 1.829l-2.281.082a5.484 5.484 0 0 1-.032-1.73c.07-.59.207-1.075.399-1.528.191-.473.527-.82 1-1.094.472-.289 1.058-.406 1.75-.406 1.996-.016 3.02 1.21 3.02 3.637-.024.906-.212 1.695-.63 2.289-.437.57-.937 1.015-1.55 1.27.875.253 1.523.71 1.851 1.331.309.594.489 1.39.489 2.309-.012 1.48-.258 2.61-.782 3.308-.539.672-1.344 1.051-2.476 1.051-1.309-.016-2.153-.39-2.61-1.172-.484-.8-.703-1.969-.73-3.566l2.46-.121c.013.89.075 1.55.188 1.886.086.32.309.512.59.512a.608.608 0 0 0 .531-.43c.098-.304.149-.796.149-1.527-.02-.875-.14-1.457-.422-1.77-.29-.331-.762-.48-1.457-.492M87.547 207.578l3.496-14.797h2.156l-3.5 14.797h-2.152M92.047 207.578l3.496-14.797h2.156l-3.5 14.797h-2.152M113.078 207.379H110.7l-1.758-10.856h-.082v10.856h-2.46v-14.676h3.859l1.64 11.02h.059l1.52-11.02h3.941v14.676h-2.48v-10.914h-.079l-1.78 10.914M121.66 192.703h3.48l2.516 14.676h-2.816l-.442-3.297h-1.937l-.422 3.297h-2.719zm2.48 9l-.644-5.86h-.117l-.7 5.86h1.462M129.898 207.379V195.14h-2.14v-2.438h6.84v2.438h-2.121v12.238h-2.579M138.3 207.379V195.14h-2.14v-2.438h6.836v2.438h-2.117v12.238H138.3M146.7 207.379V195.14h-2.141v-2.438h6.84v2.438h-2.122v12.238H146.7" fill="#f06c33"/>
    <path d="M31.188 593.602c-.333.511-.766.87-1.68 1.16-.2.086-.41.16-.621.218a.422.422 0 0 0-.121.247c.386 3.722.773 7.687.898 10.761.203 4.32-3.492 8.211-5.578 8.735-1.219.308-1.992-.082-2.125-.72-.137-.55.012-1.667.2-2.265.081-.14.183-.27.3-.386 1.262.851 2.457 1.195 3.297.984.52-.133.672-.633.61-1.98-.294-4.57-.977-11.54-1.216-14.188-.011-.059-.078-.195-.195-.168-.61.152-1.262.29-1.8.398a.4.4 0 0 1-.122-.246c.16-.554.442-1.066.82-1.5l1.051-.234c.106-.059.149-.133.13-.219-.067-2.816.636-5.148 2.464-7.18 1.023-1.18 2.504-2.019 3.43-2.253 1.011-.254 2.011-.32 2.586-.13.504-.179 1.097-.644 1.601-1.077.13-.094.492.12.457.222-.129.707-.043 2.996.02 4.457.277 4.516.73 10.926.976 12.157.059.48.211.84.559.753.32-.082.723-.43 1.441-1.503a.29.29 0 0 1 .145.21c.05.079.168.79.066 1-.914 1.86-2.66 3.598-4.02 3.938-.718.18-1.363-.766-1.605-2.824-.34-2.93-.804-11.215-1.043-14.11 0-.277-.093-.746-.43-.972a2.319 2.319 0 0 0-1.84-.332c-.718.18-1.257.84-1.402 2.355-.152 1.113-.039 2.656.149 4.363a.154.154 0 0 0 .14.168c.02.004.036 0 .055-.004a16.967 16.967 0 0 0 2.45-.773c.058.313.038.633-.047.938M42.016 583.7c.195.167.41.788.43.968.015.672-.13 1.45-.524 1.95-.23.304-1.59.902-1.918.823a1.608 1.608 0 0 1-1.082-1.082c-.129-.398-.14-1.164 0-1.437a3.782 3.782 0 0 1 1.945-1.324c.59-.16 1.024-.024 1.149.101zm.402 7.808c.113 2.16.379 4.922.55 6.203.11.8.247.984.54.91.492-.125 1.082-.98 1.308-1.41.047-.043.164.05.18.11.063.378.09.765.074 1.148-.758 1.761-2.824 3.578-3.746 3.812-.926.235-1.414-.36-1.687-2.527-.223-2.223-.719-8.195-.508-8.707.348-.703 2.812-2.281 3.187-2.375.059-.016.297.203.23.312-.171.41-.21 1.098-.128 2.524" fill="#fcaf17"/>
    <path d="M55.867 586.262c-.054.629-.445 1.527-.953 1.965-.312.23-.66.414-1.031.539.035.144.117.46.14.55a5.756 5.756 0 0 1-1.175 5.22 7.797 7.797 0 0 1-2.782 1.905c-.203.051-.402.121-.593.211-.164.07-.387.282-.344.457.074.29.348.403 1.059.54 1.308.19 2.835.39 4.105.777 1.496.453 2.39.937 2.727 2.265.285 1.13-.27 2.715-1.743 4.196a8.204 8.204 0 0 1-3.78 2.246c-3.438.867-6.102-.313-6.575-2.192-.25-.984 1.258-2.34 2.84-3.734.05-.047 0-.098-.028-.117-.718-.309-1.449-.742-1.62-1.406a1.41 1.41 0 0 1 .085-.637c.348-.582 1.473-1.606 1.871-1.98.02-.036.028-.13-.058-.11-1.899.05-3.016-1.078-3.41-2.644a6.174 6.174 0 0 1 1.382-5.368 7.208 7.208 0 0 1 3.32-1.98c.692-.18 1.65-.168 2.954 0 .437.043 1.133.113 1.597 0 .7-.18 1.333-.563 1.813-1.106.11.11.176.25.2.403zm-1.34 17.113c-.144-.578-.734-1.082-1.668-1.363-1.273-.418-3.129-.809-3.765-.649-.52.13-1.813 1.473-1.606 2.282.348 1.39 2.61 2.296 5.04 1.683 1.652-.418 2.19-1.203 2-1.953zm-3.855-13.43c-.402-1.593-1.055-1.98-1.719-1.812-1.215.304-1.36 3.265-.82 5.406.332 1.305.957 2.066 1.765 1.863 1.329-.336 1.2-3.656.774-5.457" fill="#fcaf17"/>
    <path d="M61.02 590.438a11.402 11.402 0 0 0-.387 3.328c.023 1.074.07 1.859.539 2.48-.238.524-2.55 2.094-3.063 2.281a.712.712 0 0 1-.468-.28c-.125-.247-.168-.911-.243-1.567-.425-4.848-.586-10.473-.988-15.11-.066-.508-.168-.914-.55-.847-.376.093-.942.422-1.505.75a3.16 3.16 0 0 1-.054-1.067c1.226-1.207 3.633-3.008 4.761-3.297.29-.07.602.18.684 1.735.188 3.062.426 7.652.574 10.082.016.058.102.035.145-.035 1.219-2.743 3.062-5.082 4.91-5.551 1.387-.36 1.777 1.183 1.918 3.332.18 2.7.234 4.71.398 5.715.102.406.196.543.399.484.406-.101.773-.594 1.293-1.34.043.051.152.114.18.23.062.31.078.626.05.942-.59 1.438-2.535 3.473-3.984 3.84-.75.187-1.238-.645-1.352-2.184-.18-2.199-.277-4.14-.359-6.433-.047-1.035-.215-1.453-.559-1.367-.64.156-1.687 1.617-2.34 3.879" fill="#fcaf17"/>
    <g clip-path="url(#b)">
        <path d="M73.86 582.824a.189.189 0 0 0-.137.18c.078 2.012.34 5.61.59 6.96.124.74.449.93.769.852.637-.16 1.531-1.25 2.035-2.421a.319.319 0 0 1 .223.156c.086.39.105.793.055 1.187-.555 1.465-2.43 4.032-4.395 4.528-1.129.285-1.781-.594-2.129-2.45-.18-.937-.523-5.836-.598-7.972-.015-.059-.066-.137-.125-.121-.402.101-1.394.32-1.843.375-.067-.016-.102-.285-.09-.348.101-.336.765-1.242.953-1.352.277-.105.562-.195.852-.265a.23.23 0 0 0 .164-.196c.035-1.457-.024-2.18.09-2.824.042-.32 1.007-1.734 3.046-2.926.13-.093.317.168.274.239a9.134 9.134 0 0 0-.133 1.789c.031.605.07 1.734.133 2.828a.18.18 0 0 0 .172.187c.02 0 .039 0 .058-.007l3.961-1.024c2.88-.816 3.977-1.558 3.305-4.344a8.449 8.449 0 0 0-.555-1.582c.031-.113.594-.324.824-.293.313.137 1 .672 1.235 1.72.726 3.019-2.492 5.648-5.121 6.312" fill="#fcaf17"/>
    </g>
    <g clip-path="url(#c)">
        <path d="M27.719 630.57c-.133-.52-.504-1.261-1.54-1.828-1.296-.75-2.964-1.375-4.331-2.16-.93-.504-2.145-1.426-2.535-2.96-.329-1.302-.274-3.04 1.289-5.13a8.308 8.308 0 0 1 4.394-2.953c2.082-.527 3.344.078 3.469.566.055.239.086.48.09.723-.059.8-.23 1.586-.516 2.34-.035.102-.754.312-.789.168-.04-.27-.309-.969-.66-1.281-.711-.621-1.735-.887-3.063-.551-1.62.414-2.007 1.8-1.691 3.047.187.75.742 1.476 1.742 2.023 1.215.676 4.067 1.711 5.094 2.371.941.567 1.594 1.2 1.93 2.532.328 1.3.039 2.945-1.239 4.714-1.43 1.899-3.285 3.2-5.57 3.778-2.605.652-5.125.058-5.738-2.371-.149-.578-.012-2.368.62-3.391.106-.18.696-.297.72-.21.035.296.085.593.16.882.672 2.418 3.058 3.601 5.668 2.941 2.195-.558 2.879-1.746 2.496-3.25" fill="#fcaf17"/>
    </g>
    <path d="M33.707 620.613c.492 1.942 1.441 2.992 2.852 2.633.812-.203 1.8-.887 2.832-2.683a.309.309 0 0 1 .195.167c.059.23.137.918.059 1.09-1.055 2.524-3.172 4.004-4.938 4.453-1.246.313-2.309 0-2.992-.753-.652-.637-1.059-1.641-1.285-2.54-.614-2.43-.262-5.41 1.312-7.347 1.211-1.54 2.88-2.606 4.125-2.922 1.012-.254 1.649-.18 2.063 0 .289.117.484.398.484.71 0 .52-.492 2.063-.945 2.454a.502.502 0 0 1-.422.047c-.957-.742-1.965-1.442-2.805-1.23-.98.25-1.394 2.507-.535 5.921M44.64 616.469a11.415 11.415 0 0 0-.39 3.332c.023 1.07.07 1.86.54 2.476-.24.524-2.548 2.094-3.06 2.282a.683.683 0 0 1-.472-.282c-.125-.246-.168-.91-.242-1.57-.426-4.848-.586-10.469-.989-15.11-.066-.503-.168-.91-.55-.843-.38.098-.942.422-1.504.75a3.16 3.16 0 0 1-.055-1.067c1.234-1.203 3.64-3.011 4.77-3.296.289-.075.601.18.683 1.734.191 3.063.426 7.648.578 10.082.016.059.102.035.145-.035 1.215-2.742 3.058-5.082 4.906-5.55 1.39-.36 1.777 1.183 1.922 3.331.18 2.692.234 4.711.394 5.719.106.402.2.539.403.48.402-.101.77-.593 1.289-1.34.047.051.152.114.18.231.062.309.082.625.054.941-.59 1.438-2.539 3.473-3.984 3.84-.754.188-1.242-.644-1.352-2.183-.18-2.2-.281-4.141-.36-6.434-.046-1.035-.214-1.457-.562-1.367-.64.152-1.687 1.617-2.343 3.879M64.336 609.922c.789 3.125.168 6.144-2.18 8.305-.86.742-2.426 1.722-3.672 2.035-2.37.601-3.933-.82-4.582-3.395-.62-2.46-.367-5.48 1.383-7.43 1.149-1.304 2.82-2.375 4.297-2.746 2.57-.652 4.168.914 4.754 3.23zm-4.453 8.457c1.738-.438 1.613-4.223.91-7-.402-1.59-1.078-3.328-2.473-2.977-1.543.36-1.722 3.914-.949 6.98.602 2.364 1.441 3.259 2.512 2.99M76.234 606.918c.79 3.125.168 6.148-2.18 8.309-.859.738-2.425 1.722-3.671 2.035-2.371.601-3.93-.82-4.582-3.395-.621-2.46-.371-5.476 1.386-7.43 1.145-1.316 2.817-2.378 4.29-2.757 2.578-.645 4.171.922 4.757 3.238zm-4.453 8.453c1.739-.437 1.614-4.226.903-7.004-.403-1.59-1.082-3.324-2.477-2.972-1.539.359-1.723 3.914-.945 6.98.61 2.367 1.453 3.262 2.52 2.992M75.34 596.953c1.32-1.351 3.707-3 4.574-3.219.414-.074.676.602.723 1.91.312 4.168.73 13.02 1.062 14.813.059.477.203.809.551.719.29-.074.723-.426 1.441-1.473.028 0 .145.086.18.203.035.114.125.739.031.977-.914 1.863-2.77 3.656-4.043 3.976-.867.22-1.363-.886-1.57-2.683-.332-2.899-.668-11.52-1.012-14.364-.05-.324-.21-.59-.445-.539a5.065 5.065 0 0 0-1.453.707c-.086-.125-.14-.94-.04-1.027M84.508 618.156c.137-.066.078-1.281.05-1.62l-.019-.208c-.129 0-7.39 1.832-14.219 3.574-2.28.563-7.87 1.98-13.199 3.336-4.93 1.215-24.91 6.313-25.055 6.38-.082.05-.113 1.257-.113 1.628l.05.2c.294-.051 11.7-2.915 19.352-4.86 3.93-.984 9.02-2.27 13.083-3.305 7.68-1.926 19.906-5.02 20.07-5.125" fill="#fcaf17"/>
</svg>
