<svg xmlns="http://www.w3.org/2000/svg" width="576" height="885.307" viewBox="0 0 432 663.98"><defs><clipPath id="a"><path d="M0 497h432v166.98H0zm0 0"/></clipPath><clipPath id="b"><path d="M43 497h389v166.98H43zm0 0"/></clipPath><clipPath id="c"><path d="M63 497h369v166.98H63zm0 0"/></clipPath><clipPath id="d"><path d="M159 497h273v166.98H159zm0 0"/></clipPath><clipPath id="e"><path d="M68 573.98h15V595H68zm0 0"/></clipPath><clipPath id="f"><path d="M18 615h13v21.98H18zm0 0"/></clipPath></defs><path fill="#71b4c7" d="M0 0h432v663.98H0z"/><path d="M421.117 583.578c-42.449-50.473-67.11-120.219-81.597-182.297-24.184-103.605-32.66-226.664-33.954-247.105v-2.977s0 .528-.086 1.528c-.062-1-.093-1.528-.093-1.528v2.977c-1.282 20.484-9.758 143.543-33.942 247.105-26.476 113.36-86.875 252.453-227.629 252.453h377.301" fill="#a4cfdb"/><g clip-path="url(#a)"><path d="M-445.488 672.66h886.004V497.23h-886.004zm0 0" fill="#2685c0"/></g><g clip-path="url(#b)"><path d="M240.922 497.23c-35.27 83.403-95.078 175.43-197.106 175.43h396.7V609.72c-25.743-26.153-57.235-81.157-70.45-112.512" fill="#4697c9"/></g><path d="M331.578 477.672c0 65.926-53.504 119.43-119.426 119.43-65.925 0-119.43-53.504-119.43-119.43 0-65.926 53.505-119.43 119.43-119.43 65.922 0 119.426 53.504 119.426 119.43" fill="#fcaf17"/><path d="M329.98 497.23a120.62 120.62 0 0 0 1.598-19.558c.027-40.656-20.652-78.527-54.863-100.492a967.715 967.715 0 0 1-5.258 24.058c-7.289 31.2-17.14 64.332-30.496 95.992" fill="#f06c33"/><g clip-path="url(#c)"><path d="M63.754 497.23s-3.313 19.555 17.348 35.055c14.511 10.875 46.109 18.36 45.582 40.461-.524 22.106 5.785 44.25 31.02 50.79 25.237 6.538 37.855 7.066 35.75 49.124h247.105V497.23" fill="#0171a3"/></g><path d="M95.234 497.23s7.645 14.31 30.684 15.774c23.039 1.46 31.2 11.039 38.39 23.992 7.192 12.953 28.801 21.598 59.032 20.64 30.23-.956 47.683 6.9 55.277 19.286 7.59 12.387 20.555 22.965 48.367 24.394 27.813 1.43 40.79-1.492 55.668 10.516 14.88 12.008 24.07 16.7 57.832 16.762V497.23" fill="#00537e"/><path d="M369.172 217.477c.105-2-1.43-3.707-3.426-3.817-2-.11-3.71 1.43-3.82 3.426a6.512 6.512 0 0 0 0 .39M376.414 217.477a3.626 3.626 0 1 0-7.242 0M354.703 196.332a3.626 3.626 0 1 0-7.254 0" fill="none" stroke-width="2.103" stroke="#fff" stroke-miterlimit="10"/><path d="M361.926 196.332c.11-2-1.426-3.71-3.426-3.816a3.624 3.624 0 0 0-3.816 3.816M117.34 327.18a3.63 3.63 0 0 0-7.246 0" fill="none" stroke-width="2.103" stroke="#fff" stroke-miterlimit="10"/><path d="M124.582 327.18a3.624 3.624 0 0 0-3.816-3.426 3.622 3.622 0 0 0-3.426 3.426M135.8 304.227c.11-2-1.425-3.711-3.425-3.817a3.624 3.624 0 0 0-3.816 3.817" fill="none" stroke-width="2.103" stroke="#fff" stroke-miterlimit="10"/><path d="M143.047 304.227a3.629 3.629 0 0 0-7.246-.391 6.512 6.512 0 0 0 0 .39" fill="none" stroke-width="2.103" stroke="#fff" stroke-miterlimit="10"/><path d="M178.754 497.23s20.031 19.567 52.89 20.45c32.86.883 75.239-8.57 102.282 5.406 27.043 13.973 42.375 34.027 63.09 39.547 20.714 5.52 43.48.84 43.48.84V497.23" fill="#1e3960"/><path d="M324.43 112.832h-15.09c0-1.125-.082-2.102-.168-3.008-.145-1.46-.313-3.562-.988-4.582a2.7 2.7 0 0 0-2.02-.844v-1.05c.8.238 1.621.394 2.453.46 1.63.098 2.469-.113 2.469-.703s-.84-.796-2.469-.703c-.851.075-1.695.235-2.515.485a.754.754 0 0 0-.715-.508.772.772 0 0 0-.715.508c-.817-.25-1.652-.41-2.5-.485-1.633-.093-2.473.114-2.473.703 0 .59.84.801 2.473.704.828-.07 1.648-.223 2.45-.461v1.05a2.725 2.725 0 0 0-2.032.844c-.66 1.051-.828 3.153-.977 4.582a42.949 42.949 0 0 0-.18 3.008h-15.078a.92.92 0 0 0-.906.906v5.942c.008.496.41.894.906.902h15.31c.054.715.116 1.45.19 2.188.274 2.648.872 6.109 1.399 8.832-1.633.335-4.734 1.05-5.258 1.144-.77.203-.726.633-.664.957.063.328.23 1.36.328 1.957.094.602.137 1.156.969 1.05.828-.105 6.8-.69 6.8-.69s5.985.585 6.813.69c.832.106.863-.46.957-1.05.098-.59.266-1.62.336-1.957.074-.336.098-.754-.66-.957-.559-.144-3.672-.809-5.258-1.144.528-2.723 1.137-6.184 1.399-8.832a48.91 48.91 0 0 0 .199-2.188h15.3c.5 0 .903-.406.903-.902v-5.942a.904.904 0 0 0-.898-.91c-.032 0-.06 0-.09.004" fill="#fff"/><g clip-path="url(#d)"><path d="M240.922 497.23c-19.043 45.024-45.215 92.532-81.367 126.778 23.996 6.12 35.953 7.633 33.898 48.652H440.56V609.72c-25.743-26.153-57.235-81.157-70.454-112.512" fill="#2685c0"/></g><path d="M240.922 497.23a514.743 514.743 0 0 1-29.926 60.22c3.93.245 8.047.3 12.344.167 30.238-.957 47.683 6.899 55.277 19.285 7.59 12.387 20.555 22.965 48.367 24.395 27.813 1.43 40.79-1.492 55.668 10.515 14.88 12.008 24.07 16.696 57.832 16.758V609.72c-25.742-26.153-57.234-81.157-70.449-112.512" fill="#0171a3"/><path d="M333.926 523.086c27.054 13.973 42.375 34.027 63.09 39.547a77.493 77.493 0 0 0 9.187 1.82c-15.035-23.598-28.598-49.285-36.191-67.223h-129.09a583.71 583.71 0 0 1-9.11 20.45c32.84.863 75.11-8.547 102.114 5.406" fill="#0f5f90"/><path d="M37.738 88.879h-4.945l-.352-2.945c-1.21 2.28-2.996 3.445-5.394 3.445-3.117 0-5.192-1.465-6.274-4.395-1.105-2.933-1.625-7.812-1.625-14.644-.015-6.383.766-11.11 2.301-14.242 1.516-3.137 4.215-4.7 8.043-4.7 3.067-.003 5.23 1.102 6.399 3.301 1.136 2.192 1.683 5.578 1.547 10.145l-6.196.547c-.047-3.399-.176-5.602-.426-6.618-.253-1.046-.89-1.527-1.921-1.527-1.266-.02-2.043.941-2.426 2.824-.407 1.852-.574 5.32-.574 10.32-.032 3.762.109 6.622.324 8.57.21 1.923.55 3.274 1 3.974.445.683 1.11 1.05 1.976 1.05 1.735-.004 2.73-1.734 2.899-5.199v-2.5h-3.051v-5.547h8.695v18.14M52.793 76.637V52.102h6.297v25.683c-.031 1.766-.102 3.266-.3 4.5-.231 1.23-.599 2.43-1.2 3.598-.63 1.164-1.524 2.039-2.774 2.62-1.254.575-2.824.876-4.722.876-1.563 0-2.84-.223-3.922-.676-1.106-.457-1.918-.996-2.5-1.644-.606-.676-1.031-1.543-1.348-2.676a16.584 16.584 0 0 1-.601-3.172c-.09-.992-.121-2.207-.121-3.676V52.102h6.293v24.433c-.032 2.883.14 4.84.425 5.824.278.957.957 1.473 2.024 1.473.984-.016 1.66-.48 1.976-1.445.309-.969.473-2.883.473-5.75M71.895 57.648v25.633h2.949v5.5H62.5v-5.5h2.95V57.648h-2.9v-5.546h12.192v5.546h-2.847M84.344 88.781h-6.047v-36.68h6.2c4.765-.007 8.01 1.333 9.644 3.997 1.617 2.66 2.449 7.312 2.449 13.941-.031 6.777-.844 11.621-2.524 14.469-1.707 2.84-4.921 4.273-9.722 4.273zm.402-5.699h.598c1.886 0 3.117-.832 3.648-2.496.504-1.668.801-5.133.801-10.395-.031-3.504-.125-6.105-.375-7.824-.254-1.742-.664-2.914-1.25-3.594-.606-.714-1.492-1.027-2.723-1.027h-.699v25.336M114.492 67.14v5.9h-7.648v9.694h9.547v6.047h-16.043v-36.68h14.992v6.094h-8.496v8.946h7.648M131.098 88.781V58.195h-5.348v-6.093h17.09v6.093h-5.297v30.586h-6.445M152.746 89.379c-1.516 0-2.766-.266-3.8-.8a6.55 6.55 0 0 1-2.5-2.196c-.645-.934-1.13-2.219-1.497-3.852-.383-1.648-.61-3.37-.726-5.219-.121-1.859-.172-4.156-.172-6.921-.02-6.567.722-11.368 2.172-14.418 1.441-3.078 3.906-4.575 7.37-4.575 1.536-.003 2.872.27 3.923.801 1.043.528 1.882 1.235 2.5 2.102.613.86 1.09 2.12 1.422 3.77.32 1.62.55 3.324.652 5.023.07 1.695.148 3.898.148 6.597-.011 6.957-.683 11.985-2.047 15.067-1.394 3.055-3.847 4.62-7.445 4.62zm.45-5.645c1-.02 1.69-.882 1.972-2.648.262-1.77.426-5.414.426-10.945-.031-5.184-.133-8.579-.399-10.246-.3-1.668-.886-2.497-1.851-2.497-1.114-.007-1.809.875-2.125 2.622-.32 1.738-.473 5.19-.473 10.32-.016 5.644.133 9.312.399 10.945.253 1.63.949 2.45 2.05 2.45M35.992 108.844l-6.097.351c.101-2.57.03-4.34-.301-5.324-.364-1.012-.985-1.473-1.95-1.473-1.546-.007-2.3.95-2.3 2.848-.012 1.344.285 2.48.851 3.348.535.86 1.5 1.797 2.797 2.797.07.062.492.367 1.176.902.66.527 1.11.863 1.273.996.153.133.551.461 1.153.977.566.488.996.918 1.195 1.199.172.254.535.7 1 1.25.438.539.793 1.05.977 1.5.16.437.398.972.648 1.574.246.598.418 1.23.5 1.898.078.665.125 1.368.125 2.098-.012 3.496-.816 6.14-2.45 7.922-1.66 1.773-3.831 2.672-6.597 2.672-3.394 0-5.726-1.016-7.094-3.047-1.398-2.05-1.964-5.098-1.796-9.195l6.492-.551c-.063 2.863.176 4.773.625 5.723.445.941 1.16 1.425 2.125 1.425 1.453-.02 2.199-1.148 2.199-3.449-.016-1.535-.383-2.808-1.148-3.82-.801-1.047-1.903-2.059-3.399-3.125-1-.719-1.664-1.227-2.098-1.574-.468-.38-1.043-.918-1.828-1.7-.804-.812-1.355-1.523-1.722-2.222-.383-.723-.707-1.594-1.024-2.676-.324-1.113-.472-2.258-.472-3.523-.02-3.32.855-5.832 2.57-7.594 1.71-1.79 3.973-2.653 6.773-2.653 3.067-.003 5.262 1.008 6.496 3.028 1.204 2 1.664 5.152 1.301 9.418M66.734 133.781H57.79l-2.297-27.683h-.203l-1.996 27.683h-8.848l-5.644-36.68h7.195l2.496 28.985h.301l2.402-28.984h8.64l2.403 28.785h.2l2.25-28.785h6.894l-4.848 36.68M83.293 102.648v25.633h2.95v5.5H73.897v-5.5h2.95v-25.633h-2.899v-5.546h12.192v5.546h-2.848M103.89 112.39v5.95h-7.644v15.441H89.75v-36.68h14.992v6.094h-8.496v9.196h7.645M111.996 133.781v-30.586h-5.348v-6.093h17.094v6.093h-5.297v30.586h-6.449M28.594 174.031c.968-.015 1.633-.62 1.898-1.87.235-1.278.367-3.356.301-6.321l6.246.347c.055 4.793-.574 8.196-1.922 10.196-1.355 1.996-3.656 2.996-6.922 2.996-1.597 0-2.89-.258-3.976-.774-1.086-.527-1.957-1.234-2.621-2.148-.7-.941-1.184-2.2-1.551-3.848-.383-1.66-.606-3.382-.723-5.199-.125-1.824-.176-4.09-.176-6.82-.015-6.531.758-11.36 2.274-14.492 1.508-3.137 4.14-4.7 7.871-4.7 3.102-.003 5.289 1.07 6.473 3.2 1.16 2.129 1.722 5.547 1.625 10.246l-6.149.547c-.015-3.301-.14-5.477-.426-6.543-.289-1.09-.937-1.602-1.972-1.602-1.215-.02-1.992.95-2.375 2.852-.407 1.89-.574 5.363-.574 10.39-.032 5.828.125 9.547.375 11.149.226 1.578 1.023 2.394 2.324 2.394M49.445 179.379c-1.515 0-2.765-.266-3.8-.8a6.539 6.539 0 0 1-2.497-2.196c-.648-.934-1.132-2.219-1.5-3.852-.382-1.648-.609-3.37-.726-5.219-.121-1.859-.172-4.156-.172-6.921-.016-6.567.723-11.368 2.172-14.418 1.441-3.078 3.906-4.575 7.371-4.575 1.535-.003 2.875.27 3.922.801 1.047.528 1.883 1.235 2.5 2.102.613.86 1.09 2.12 1.426 3.77.32 1.62.547 3.324.648 5.023.07 1.695.148 3.898.148 6.597-.011 6.957-.68 11.985-2.046 15.067-1.395 3.054-3.848 4.62-7.446 4.62zm.45-5.645c1-.02 1.69-.882 1.972-2.648.262-1.77.426-5.414.426-10.945-.031-5.184-.133-8.578-.398-10.246-.301-1.668-.883-2.497-1.852-2.497-1.113-.007-1.805.875-2.121 2.622-.324 1.738-.477 5.19-.477 10.32-.015 5.644.133 9.312.399 10.945.254 1.63.949 2.45 2.05 2.45M68.844 178.781h-6.047v-36.68h6.2c4.765-.007 8.01 1.333 9.644 3.997 1.617 2.66 2.449 7.312 2.449 13.941-.031 6.777-.844 11.621-2.524 14.469-1.707 2.84-4.921 4.273-9.722 4.273zm.402-5.699h.598c1.886 0 3.117-.832 3.648-2.496.504-1.668.801-5.133.801-10.395-.031-3.504-.125-6.105-.375-7.824-.254-1.742-.664-2.914-1.25-3.594-.606-.714-1.492-1.027-2.723-1.027h-.699v25.336M88.195 142.102h8.696l6.296 36.68h-7.046l-1.098-8.247h-4.848l-1.047 8.246h-6.796zm6.2 22.488l-1.602-14.645h-.3l-1.747 14.645h3.649M112.094 178.781h-6.196v-36.68h6.649c7.078-.007 10.64 2.997 10.64 8.997-.027 2.425-.59 4.328-1.773 5.695-1.187 1.36-2.57 2.23-4.172 2.598v.148c2.285.414 4.031 1.336 5.195 2.7 1.157 1.347 1.75 3.448 1.75 6.245-.027 3.7-1.015 6.34-3.046 7.922-2.047 1.574-5.047 2.375-9.047 2.375zm.25-5.699h.453c1.7 0 2.937-.398 3.621-1.195.676-.805 1.023-2.086 1.023-3.852-.011-3.25-1.43-4.847-4.296-4.847h-.801zm0-15.89h.453c2.633-.005 3.996-1.649 3.996-4.95-.031-1.851-.316-3.039-.95-3.62-.648-.599-1.55-.876-2.75-.876h-.75v9.445M134.145 142.102v30.632h7.945v6.047H127.7v-36.68h6.445M159.492 157.14v5.9h-7.648v9.694h9.547v6.047h-16.043v-36.68h14.992v6.094h-8.496v8.946h7.648" fill="#1e3960"/><path d="M17.945 207.578l3.5-14.797h2.153l-3.496 14.797h-2.157M22.445 207.578l3.5-14.797h2.153l-3.496 14.797h-2.157M42 192.703h2.738L42.34 207.38h-3.461L36.3 192.703h2.84L40.5 204.16h.117L42 192.703M49.64 207.621c-.613-.016-1.105-.105-1.519-.32a2.698 2.698 0 0 1-1-.88c-.262-.39-.453-.886-.601-1.538a12.836 12.836 0 0 1-.29-2.09c-.058-.746-.07-1.664-.07-2.77-.02-2.64.29-4.55.871-5.77.57-1.245 1.563-1.827 2.946-1.827.601-.016 1.152.105 1.57.316.406.192.754.492 1 .84.23.348.437.852.57 1.512.13.656.223 1.328.262 2.008.016.671.059 1.558.059 2.64-.012 2.766-.274 4.797-.82 6.031-.552 1.2-1.54 1.848-2.977 1.848zm.18-2.262c.407-.027.676-.351.79-1.058.109-.715.167-2.164.167-4.38-.023-2.077-.054-3.429-.16-4.097-.113-.683-.351-1-.738-1-.465-.015-.723.352-.848 1.051-.136.668-.191 2.074-.191 4.129-.012 2.258.055 3.723.16 4.379.07.648.379.976.82.976M58.281 192.703v12.258h3.176v2.418h-5.758v-14.676h2.582M67.219 196.684l-.438-2.301c1.25-.52 2.313-1.078 3.098-1.68h1.598v14.676h-2.555v-11.637c-.34.235-.902.567-1.703.942M86.145 207.578l3.5-14.797h2.152L88.3 207.578h-2.156M90.746 207.578l3.496-14.797h2.156l-3.5 14.797h-2.152M111.777 207.379h-2.379l-1.757-10.856h-.082v10.856h-2.457v-14.676h3.855l1.64 11.02h.06l1.523-11.02h3.937v14.676h-2.476v-10.914h-.082l-1.782 10.914M120.258 192.703h3.48l2.52 14.676h-2.82l-.442-3.297h-1.937l-.418 3.297h-2.72zm2.48 9l-.64-5.86h-.121l-.7 5.86h1.461M128.602 207.379V195.14h-2.141v-2.438h6.836v2.438h-2.117v12.238h-2.578M137 207.379V195.14h-2.14v-2.438h6.84v2.438h-2.122v12.238H137M145.398 207.379V195.14h-2.14v-2.438h6.84v2.438h-2.121v12.238h-2.579" fill="#2685c0"/><path d="M31.188 593.602c-.333.511-.766.87-1.68 1.16-.2.086-.41.16-.621.218a.422.422 0 0 0-.121.247c.386 3.722.773 7.687.898 10.761.203 4.32-3.492 8.211-5.578 8.735-1.219.308-1.992-.082-2.125-.72-.137-.55.012-1.667.2-2.265.081-.14.183-.27.3-.386 1.262.851 2.457 1.195 3.297.984.52-.133.672-.633.61-1.98-.294-4.57-.977-11.54-1.216-14.188-.011-.059-.078-.195-.195-.168-.61.152-1.262.29-1.8.398a.4.4 0 0 1-.122-.246c.16-.554.442-1.066.82-1.5l1.051-.234c.106-.059.149-.133.13-.219-.067-2.816.636-5.148 2.464-7.18 1.023-1.18 2.504-2.019 3.43-2.253 1.011-.254 2.011-.32 2.586-.13.504-.179 1.097-.644 1.601-1.077.13-.094.492.12.457.222-.129.707-.043 2.996.02 4.457.277 4.516.73 10.926.976 12.157.059.48.211.84.559.753.32-.082.723-.43 1.441-1.503a.29.29 0 0 1 .145.21c.05.079.168.79.066 1-.914 1.86-2.66 3.598-4.02 3.938-.718.18-1.363-.766-1.605-2.824-.34-2.93-.804-11.215-1.043-14.11 0-.277-.093-.746-.43-.972a2.319 2.319 0 0 0-1.84-.332c-.718.18-1.257.84-1.402 2.355-.152 1.113-.039 2.656.149 4.363a.154.154 0 0 0 .14.168c.02.004.036 0 .055-.004a16.967 16.967 0 0 0 2.45-.773c.058.313.038.633-.047.938M42.016 583.7c.195.167.41.788.43.968.015.672-.13 1.45-.524 1.95-.23.304-1.59.902-1.918.823a1.608 1.608 0 0 1-1.082-1.082c-.129-.398-.14-1.164 0-1.437a3.782 3.782 0 0 1 1.945-1.324c.59-.16 1.024-.024 1.149.101zm.402 7.808c.113 2.16.379 4.922.55 6.203.11.8.247.984.54.91.492-.125 1.082-.98 1.308-1.41.047-.043.164.05.18.11.063.378.09.765.074 1.148-.758 1.761-2.824 3.578-3.746 3.812-.926.235-1.414-.36-1.687-2.527-.223-2.223-.719-8.195-.508-8.707.348-.703 2.812-2.281 3.187-2.375.059-.016.297.203.23.312-.171.41-.21 1.098-.128 2.524" fill="#71b4c7"/><path d="M55.867 586.262c-.054.629-.445 1.527-.953 1.965-.312.23-.66.414-1.031.539.035.144.117.46.14.55a5.756 5.756 0 0 1-1.175 5.22 7.797 7.797 0 0 1-2.782 1.905c-.203.051-.402.121-.593.211-.164.07-.387.282-.344.457.074.29.348.403 1.059.54 1.308.19 2.835.39 4.105.777 1.496.453 2.39.937 2.727 2.265.285 1.13-.27 2.715-1.743 4.196a8.204 8.204 0 0 1-3.78 2.246c-3.438.867-6.102-.313-6.575-2.192-.25-.984 1.258-2.34 2.84-3.734.05-.047 0-.098-.028-.117-.718-.309-1.449-.742-1.62-1.406a1.41 1.41 0 0 1 .085-.637c.348-.582 1.473-1.606 1.871-1.98.02-.036.028-.13-.058-.11-1.899.05-3.016-1.078-3.41-2.644a6.174 6.174 0 0 1 1.382-5.368 7.208 7.208 0 0 1 3.32-1.98c.692-.18 1.65-.168 2.954 0 .437.043 1.133.113 1.597 0 .7-.18 1.333-.563 1.813-1.106.11.11.176.25.2.403zm-1.34 17.113c-.144-.578-.734-1.082-1.668-1.363-1.273-.418-3.129-.809-3.765-.649-.52.13-1.813 1.473-1.606 2.282.348 1.39 2.61 2.296 5.04 1.683 1.652-.418 2.19-1.203 2-1.953zm-3.855-13.43c-.402-1.593-1.055-1.98-1.719-1.812-1.215.304-1.36 3.265-.82 5.406.332 1.305.957 2.066 1.765 1.863 1.329-.336 1.2-3.656.774-5.457" fill="#71b4c7"/><path d="M61.02 590.438a11.402 11.402 0 0 0-.387 3.328c.023 1.074.07 1.859.539 2.48-.238.524-2.55 2.094-3.063 2.281a.712.712 0 0 1-.468-.28c-.125-.247-.168-.911-.243-1.567-.425-4.848-.586-10.473-.988-15.11-.066-.508-.168-.914-.55-.847-.376.093-.942.422-1.505.75a3.16 3.16 0 0 1-.054-1.067c1.226-1.207 3.633-3.008 4.761-3.297.29-.07.602.18.684 1.735.188 3.062.426 7.652.574 10.082.016.058.102.035.145-.035 1.219-2.743 3.062-5.082 4.91-5.551 1.387-.36 1.777 1.183 1.918 3.332.18 2.7.234 4.71.398 5.715.102.406.196.543.399.484.406-.101.773-.594 1.293-1.34.043.051.152.114.18.23.062.31.078.626.05.942-.59 1.438-2.535 3.473-3.984 3.84-.75.187-1.238-.645-1.352-2.184-.18-2.199-.277-4.14-.359-6.433-.047-1.035-.215-1.453-.559-1.367-.64.156-1.687 1.617-2.34 3.879" fill="#71b4c7"/><g clip-path="url(#e)"><path d="M73.86 582.824a.189.189 0 0 0-.137.18c.078 2.012.34 5.61.59 6.96.124.74.449.93.769.852.637-.16 1.531-1.25 2.035-2.421a.319.319 0 0 1 .223.156c.086.39.105.793.055 1.187-.555 1.465-2.43 4.032-4.395 4.528-1.129.285-1.781-.594-2.129-2.45-.18-.937-.523-5.836-.598-7.972-.015-.059-.066-.137-.125-.121-.402.101-1.394.32-1.843.375-.067-.016-.102-.285-.09-.348.101-.336.765-1.242.953-1.352.277-.105.562-.195.852-.265a.23.23 0 0 0 .164-.196c.035-1.457-.024-2.18.09-2.824.042-.32 1.007-1.734 3.046-2.926.13-.093.317.168.274.239a9.134 9.134 0 0 0-.133 1.789c.031.605.07 1.734.133 2.828a.18.18 0 0 0 .172.187c.02 0 .039 0 .058-.007l3.961-1.024c2.88-.816 3.977-1.558 3.305-4.344a8.449 8.449 0 0 0-.555-1.582c.031-.113.594-.324.824-.293.313.137 1 .672 1.235 1.72.726 3.019-2.492 5.648-5.121 6.312" fill="#71b4c7"/></g><g clip-path="url(#f)"><path d="M27.719 630.57c-.133-.52-.504-1.261-1.54-1.828-1.296-.75-2.964-1.375-4.331-2.16-.93-.504-2.145-1.426-2.535-2.96-.329-1.302-.274-3.04 1.289-5.13a8.308 8.308 0 0 1 4.394-2.953c2.082-.527 3.344.078 3.469.566.055.239.086.48.09.723-.059.8-.23 1.586-.516 2.34-.035.102-.754.312-.789.168-.04-.27-.309-.969-.66-1.281-.711-.621-1.735-.887-3.063-.551-1.62.414-2.007 1.8-1.691 3.047.187.75.742 1.476 1.742 2.023 1.215.676 4.067 1.711 5.094 2.371.941.567 1.594 1.2 1.93 2.532.328 1.3.039 2.945-1.239 4.714-1.43 1.899-3.285 3.2-5.57 3.778-2.605.652-5.125.058-5.738-2.371-.149-.578-.012-2.368.62-3.391.106-.18.696-.297.72-.21.035.296.085.593.16.882.672 2.418 3.058 3.601 5.668 2.941 2.195-.558 2.879-1.746 2.496-3.25" fill="#71b4c7"/></g><path d="M33.707 620.613c.492 1.942 1.441 2.992 2.852 2.633.812-.203 1.8-.887 2.832-2.683a.309.309 0 0 1 .195.167c.059.23.137.918.059 1.09-1.055 2.524-3.172 4.004-4.938 4.453-1.246.313-2.309 0-2.992-.753-.652-.637-1.059-1.641-1.285-2.54-.614-2.43-.262-5.41 1.312-7.347 1.211-1.54 2.88-2.606 4.125-2.922 1.012-.254 1.649-.18 2.063 0 .289.117.484.398.484.71 0 .52-.492 2.063-.945 2.454a.502.502 0 0 1-.422.047c-.957-.742-1.965-1.442-2.805-1.23-.98.25-1.394 2.507-.535 5.921M44.64 616.469a11.415 11.415 0 0 0-.39 3.332c.023 1.07.07 1.86.54 2.476-.24.524-2.548 2.094-3.06 2.282a.683.683 0 0 1-.472-.282c-.125-.246-.168-.91-.242-1.57-.426-4.848-.586-10.469-.989-15.11-.066-.503-.168-.91-.55-.843-.38.098-.942.422-1.504.75a3.16 3.16 0 0 1-.055-1.067c1.234-1.203 3.64-3.011 4.77-3.296.289-.075.601.18.683 1.734.191 3.063.426 7.648.578 10.082.016.059.102.035.145-.035 1.215-2.742 3.058-5.082 4.906-5.55 1.39-.36 1.777 1.183 1.922 3.331.18 2.692.234 4.711.394 5.719.106.402.2.539.403.48.402-.101.77-.593 1.289-1.34.047.051.152.114.18.231.062.309.082.625.054.941-.59 1.438-2.539 3.473-3.984 3.84-.754.188-1.242-.644-1.352-2.183-.18-2.2-.281-4.141-.36-6.434-.046-1.035-.214-1.457-.562-1.367-.64.152-1.687 1.617-2.343 3.879M64.336 609.922c.789 3.125.168 6.144-2.18 8.305-.86.742-2.426 1.722-3.672 2.035-2.37.601-3.933-.82-4.582-3.395-.62-2.46-.367-5.48 1.383-7.43 1.149-1.304 2.82-2.375 4.297-2.746 2.57-.652 4.168.914 4.754 3.23zm-4.453 8.457c1.738-.438 1.613-4.223.91-7-.402-1.59-1.078-3.328-2.473-2.977-1.543.36-1.722 3.914-.949 6.98.602 2.364 1.441 3.259 2.512 2.99M76.234 606.918c.79 3.125.168 6.148-2.18 8.309-.859.738-2.425 1.722-3.671 2.035-2.371.601-3.93-.82-4.582-3.395-.621-2.46-.371-5.476 1.386-7.43 1.145-1.316 2.817-2.378 4.29-2.757 2.578-.645 4.171.922 4.757 3.238zm-4.453 8.453c1.739-.437 1.614-4.226.903-7.004-.403-1.59-1.082-3.324-2.477-2.972-1.539.359-1.723 3.914-.945 6.98.61 2.367 1.453 3.262 2.52 2.992M75.34 596.953c1.32-1.351 3.707-3 4.574-3.219.414-.074.676.602.723 1.91.312 4.168.73 13.02 1.062 14.813.059.477.203.809.551.719.29-.074.723-.426 1.441-1.473.028 0 .145.086.18.203.035.114.125.739.031.977-.914 1.863-2.77 3.656-4.043 3.976-.867.22-1.363-.886-1.57-2.683-.332-2.899-.668-11.52-1.012-14.364-.05-.324-.21-.59-.445-.539a5.065 5.065 0 0 0-1.453.707c-.086-.125-.14-.94-.04-1.027M84.508 618.156c.137-.066.078-1.281.05-1.62l-.019-.208c-.129 0-7.39 1.832-14.219 3.574-2.28.563-7.87 1.98-13.199 3.336-4.93 1.215-24.91 6.313-25.055 6.38-.082.05-.113 1.257-.113 1.628l.05.2c.294-.051 11.7-2.915 19.352-4.86 3.93-.984 9.02-2.27 13.083-3.305 7.68-1.926 19.906-5.02 20.07-5.125" fill="#71b4c7"/></svg>