<svg id="Layer_1" xmlns="http://www.w3.org/2000/svg" viewBox="0 0 931 934.7" width="931" height="934.7"><style>.st0{fill:none;stroke:#000000;stroke-width:2;stroke-linecap:round;stroke-linejoin:round;stroke-miterlimit:10;} .st1{fill:none;stroke:#000000;stroke-width:2;stroke-miterlimit:10;} .st2{fill:#F7788A;} .st3{fill:none;stroke:#000000;stroke-linecap:round;stroke-linejoin:round;stroke-miterlimit:10;} .st4{font-family:&apos;HelveticaNeue&apos;;} .st5{font-size:16px;} .st6{fill:#FFFFFF;} .st7{font-size:12px;} .st8{fill:#47A2F1;} .st9{fill:none;stroke:#000000;stroke-linecap:round;stroke-linejoin:round;stroke-miterlimit:10;stroke-dasharray:4,4;} .st10{fill:none;stroke:#000000;stroke-miterlimit:10;} .st11{fill:#78C445;} .st12{font-family:&apos;Helvetica&apos;;} .st13{fill:#C4F6A8;} .st14{fill:#E1E1E1;}</style><path class="st0" d="M204.4 414.4l-21.5 81.8"/><path d="M180.5 505.4l5.9-8.3-7-1.9 1.1 10.2z"/><path class="st1" d="M180.5 505.4l5.9-8.3-7-1.9 1.1 10.2z"/><path class="st2" d="M99.3 372.1h221.5c1.1 0 2 .9 2 2v37.8c0 1.1-.9 2-2 2H99.3c-1.1 0-2-.9-2-2v-37.8c0-1.1.8-2 2-2z"/><path class="st3" d="M99.3 372.1h221.5c1.1 0 2 .9 2 2v37.8c0 1.1-.9 2-2 2H99.3c-1.1 0-2-.9-2-2v-37.8c0-1.1.8-2 2-2z"/><text transform="translate(147.808 398.776)" class="st4 st5">RC&lt;SyntaxData&gt;</text><path class="st2" d="M38 509.1h272c1.1 0 2 .9 2 2v37.8c0 1.1-.9 2-2 2H38c-1.1 0-2-.9-2-2v-37.8c0-1.1.9-2 2-2z"/><path class="st3" d="M38 509.1h272c1.1 0 2 .9 2 2v37.8c0 1.1-.9 2-2 2H38c-1.1 0-2-.9-2-2v-37.8c0-1.1.9-2 2-2z"/><text transform="translate(111.808 535.776)" class="st4 st5">RC&lt;SyntaxData&gt;</text><path class="st6" d="M141.4 452.7h102v15h-102v-15z"/><text transform="translate(142.452 463.986)" class="st4 st7">CachedChild</text><text transform="translate(212.052 463.986)" class="st4 st7">r</text><text transform="translate(215.752 463.986)" class="st4 st7">en: 0</text><path class="st8" d="M176 39.1h168c1.1 0 2 .9 2 2v37.8c0 1.1-.9 2-2 2H176c-1.1 0-2-.9-2-2V41.1c0-1.1.9-2 2-2z"/><path class="st3" d="M176 39.1h168c1.1 0 2 .9 2 2v37.8c0 1.1-.9 2-2 2H176c-1.1 0-2-.9-2-2V41.1c0-1.1.9-2 2-2z"/><text transform="translate(194.504 65.776)" class="st4 st5">ReturnStmtSyntax</text><path class="st9" d="M252.4 80.9c-7.3 21.1-18.5 55.7-26.3 92.1-12.7 58.8-6.5 32.4-11 94.7-2.6 35.1-3.8 70.4-4.4 94.5"/><path d="M210.4 370.2l3.2-7.9-6-.1 2.8 8z"/><path class="st10" d="M210.4 370.2l3.2-7.9-6-.1 2.8 8z"/><path class="st11" d="M112.4 629.2h181.2c1.1 0 2 .9 2 2v77.6c0 1.1-.9 2-2 2H112.4c-1.1 0-2-.9-2-2v-77.6c0-1.1.9-2 2-2z"/><path class="st3" d="M112.4 629.2h181.2c1.1 0 2 .9 2 2v77.6c0 1.1-.9 2-2 2H112.4c-1.1 0-2-.9-2-2v-77.6c0-1.1.9-2 2-2z"/><text transform="translate(141.712 668.776)" class="st4 st5">RC&lt;RawSyntax&gt;</text><text transform="translate(121.956 683.224)" class="st12 st7">SyntaxKind::IntegerLiteralExpr</text><path class="st13" d="M324.4 625.9h181.2c1.1 0 2 .9 2 2v84.2c0 1.1-.9 2-2 2H324.4c-1.1 0-2-.9-2-2v-84.2c0-1.1.9-2 2-2z"/><path class="st3" d="M324.4 625.9h181.2c1.1 0 2 .9 2 2v84.2c0 1.1-.9 2-2 2H324.4c-1.1 0-2-.9-2-2v-84.2c0-1.1.9-2 2-2z"/><text transform="translate(331.632 654.776)" class="st4 st5">RC&lt;RawTokenSyntax&gt;</text><text transform="translate(365.304 669.224)" class="st12 st7">SyntaxKind::</text><text transform="translate(432.704 669.224)" class="st12 st7">T</text><text transform="translate(438.704 669.224)" class="st12 st7">oken</text><text transform="translate(377.318 683.224)" class="st12 st7">tok::kw_return</text><text transform="translate(399.326 697.224)" class="st12 st7">return</text><path class="st0" d="M178.3 550.9l13.6 65.7"/><path d="M193.9 626l1.6-10.2-7.1 1.5 5.5 8.7z"/><path class="st1" d="M193.9 626l1.6-10.2-7.1 1.5 5.5 8.7z"/><path class="st2" d="M242.8 142.1h252.5c1.1 0 2 .9 2 2v37.8c0 1.1-.9 2-2 2H242.8c-1.1 0-2-.9-2-2v-37.8c0-1.1.8-2 2-2z"/><path class="st3" d="M242.8 142.1h252.5c1.1 0 2 .9 2 2v37.8c0 1.1-.9 2-2 2H242.8c-1.1 0-2-.9-2-2v-37.8c0-1.1.8-2 2-2z"/><text transform="translate(306.808 168.776)" class="st4 st5">RC&lt;SyntaxData&gt;</text><path class="st6" d="M173.2 576.4h24v15h-24v-15z"/><text transform="translate(173.29 587.76)" class="st4 st7">Raw</text><path class="st0" d="M369 183.9v50.3"/><path d="M369 243.8l3.6-9.6h-7.2l3.6 9.6z"/><path class="st1" d="M369 243.8l3.6-9.6h-7.2l3.6 9.6z"/><path class="st6" d="M318 202.5h102v15H318v-15z"/><text transform="translate(319.098 213.834)" class="st4 st7">CachedChild</text><text transform="translate(388.698 213.834)" class="st4 st7">r</text><text transform="translate(392.398 213.834)" class="st4 st7">en: 0</text><path class="st6" d="M205.2 198.7h28v15h-28v-15z"/><text transform="translate(206.597 210.036)" class="st4 st7">Data</text><path class="st0" d="M282.1 80.9l55.4 52.4"/><path d="M344.5 139.9l-4.5-9.3-4.9 5.3 9.4 4z"/><path class="st1" d="M344.5 139.9l-4.5-9.3-4.9 5.3 9.4 4z"/><path class="st6" d="M293.4 97.3h28v15h-28v-15z"/><text transform="translate(294.518 108.629)" class="st4 st7">Root</text><path class="st11" d="M502 242.4h184c1.1 0 2 .9 2 2v47.3c0 1.1-.9 2-2 2H502c-1.1 0-2-.9-2-2v-47.3c0-1.1.9-2 2-2z"/><path class="st3" d="M502 242.4h184c1.1 0 2 .9 2 2v47.3c0 1.1-.9 2-2 2H502c-1.1 0-2-.9-2-2v-47.3c0-1.1.9-2 2-2z"/><text transform="translate(532.712 266.776)" class="st4 st5">RC&lt;RawSyntax&gt;</text><text transform="translate(518.965 281.224)" class="st12 st7">SyntaxKind::CodeBlockStmt</text><path class="st0" d="M413.9 183.9l58.1 27 55.5 26"/><path d="M536.2 241l-7.1-7.4-3.1 6.6 10.2.8z"/><path class="st1" d="M536.2 241l-7.1-7.4-3.1 6.6 10.2.8z"/><path class="st11" d="M331.6 492.6h166.9c1.1 0 2 .9 2 2v70.8c0 1.1-.9 2-2 2H331.6c-1.1 0-2-.9-2-2v-70.8c0-1.1.9-2 2-2z"/><path class="st3" d="M331.6 492.6h166.9c1.1 0 2 .9 2 2v70.8c0 1.1-.9 2-2 2H331.6c-1.1 0-2-.9-2-2v-70.8c0-1.1.9-2 2-2z"/><text transform="translate(353.712 528.776)" class="st4 st5">RC&lt;RawSyntax&gt;</text><text transform="translate(350.972 543.224)" class="st12 st7">SyntaxKind::ReturnStmt</text><path class="st0" d="M241.7 414.2l106.2 71"/><path d="M355.9 490.5l-6-8.3-4 6 10 2.3z"/><path class="st1" d="M355.9 490.5l-6-8.3-4 6 10 2.3z"/><path class="st6" d="M292.8 448.9h24v15h-24v-15z"/><text transform="translate(292.952 460.208)" class="st4 st7">Raw</text><path class="st6" d="M456.8 201.9h24v15h-24v-15z"/><text transform="translate(456.877 213.246)" class="st4 st7">Raw</text><path class="st13" d="M509.3 355.6h173.4c1.1 0 2 .9 2 2v70.8c0 1.1-.9 2-2 2H509.3c-1.1 0-2-.9-2-2v-70.8c0-1.1.9-2 2-2z"/><path class="st3" d="M509.3 355.6h173.4c1.1 0 2 .9 2 2v70.8c0 1.1-.9 2-2 2H509.3c-1.1 0-2-.9-2-2v-70.8c0-1.1.9-2 2-2z"/><text transform="translate(512.632 377.776)" class="st4 st5">RC&lt;RawTokenSyntax&gt;</text><text transform="translate(546.304 392.224)" class="st12 st7">SyntaxKind::</text><text transform="translate(613.704 392.224)" class="st12 st7">T</text><text transform="translate(619.704 392.224)" class="st12 st7">oken</text><text transform="translate(564.983 406.224)" class="st12 st7">tok::l_brace</text><text transform="translate(593.996 420.224)" class="st12 st7">{</text><path class="st11" d="M341.9 355.6h146.3c1.1 0 2 .9 2 2v70.8c0 1.1-.9 2-2 2H341.9c-1.1 0-2-.9-2-2v-70.8c0-1.1.9-2 2-2z"/><path class="st3" d="M341.9 355.6h146.3c1.1 0 2 .9 2 2v70.8c0 1.1-.9 2-2 2H341.9c-1.1 0-2-.9-2-2v-70.8c0-1.1.9-2 2-2z"/><text transform="translate(353.712 391.776)" class="st4 st5">RC&lt;RawSyntax&gt;</text><text transform="translate(359.644 406.224)" class="st12 st7">SyntaxKind::StmtList</text><path class="st13" d="M703.4 352.2h181.2c1.1 0 2 .9 2 2v77.6c0 1.1-.9 2-2 2H703.4c-1.1 0-2-.9-2-2v-77.6c0-1.1.9-2 2-2z"/><path class="st3" d="M703.4 352.2h181.2c1.1 0 2 .9 2 2v77.6c0 1.1-.9 2-2 2H703.4c-1.1 0-2-.9-2-2v-77.6c0-1.1.9-2 2-2z"/><text transform="translate(710.632 377.776)" class="st4 st5">RC&lt;RawTokenSyntax&gt;</text><text transform="translate(744.304 392.224)" class="st12 st7">SyntaxKind::</text><text transform="translate(811.704 392.224)" class="st12 st7">T</text><text transform="translate(817.704 392.224)" class="st12 st7">oken</text><text transform="translate(762.318 406.224)" class="st12 st7">tok::r_brace</text><text transform="translate(791.996 420.224)" class="st12 st7">}</text><path class="st0" d="M594.4 293.6l.8 49.1"/><path d="M595.3 352.3l3.5-9.6-7.2.1 3.7 9.5z"/><path class="st1" d="M595.3 352.3l3.5-9.6-7.2.1 3.7 9.5z"/><path class="st0" d="M557.3 293.6l-78.2 54.6"/><path d="M471.2 353.7l10-2.5-4.2-5.9-5.8 8.4z"/><path class="st1" d="M471.2 353.7l10-2.5-4.2-5.9-5.8 8.4z"/><path class="st0" d="M635 293.6l82.8 51.8"/><path d="M725.9 350.4l-6.2-8.1-3.8 6.1 10 2z"/><path class="st1" d="M725.9 350.4l-6.2-8.1-3.8 6.1 10 2z"/><path class="st0" d="M415 430.4v49.3"/><path d="M415 489.3l3.6-9.6h-7.2l3.6 9.6z"/><path class="st1" d="M415 489.3l3.6-9.6h-7.2l3.6 9.6z"/><path class="st0" d="M415 567.4V613"/><path d="M415 622.6l3.6-9.6h-7.2l3.6 9.6z"/><path class="st1" d="M415 622.6l3.6-9.6h-7.2l3.6 9.6z"/><path class="st0" d="M358.4 567.4l-42.5 28-40.3 26.7"/><path d="M267.6 627.4l10-2.3-4-6-6 8.3z"/><path class="st1" d="M267.6 627.4l10-2.3-4-6-6 8.3z"/><path class="st13" d="M116.3 772.2h173.4c1.1 0 2 .9 2 2v77.6c0 1.1-.9 2-2 2H116.3c-1.1 0-2-.9-2-2v-77.6c0-1.1.9-2 2-2z"/><path class="st3" d="M116.3 772.2h173.4c1.1 0 2 .9 2 2v77.6c0 1.1-.9 2-2 2H116.3c-1.1 0-2-.9-2-2v-77.6c0-1.1.9-2 2-2z"/><text transform="translate(119.632 797.776)" class="st4 st5">RC&lt;RawTokenSyntax&gt;</text><text transform="translate(153.304 812.224)" class="st12 st7">SyntaxKind::</text><text transform="translate(220.704 812.224)" class="st12 st7">T</text><text transform="translate(226.704 812.224)" class="st12 st7">oken</text><text transform="translate(155.642 826.224)" class="st12 st7">tok::integer_literal</text><text transform="translate(199.663 840.224)" class="st12 st7">1</text><path class="st0" d="M203 710.8v48.5"/><path d="M203 768.9l3.6-9.6h-7.2l3.6 9.6z"/><path class="st1" d="M203 768.9l3.6-9.6h-7.2l3.6 9.6z"/><path class="st6" d="M390 582.5h50v15h-50v-15z"/><text transform="translate(390.1 593.787)" class="st4 st7">Layout: 0</text><path class="st6" d="M297.8 583.4h50v15h-50v-15z"/><text transform="translate(297.856 594.756)" class="st4 st7">Layout: 1</text><path class="st6" d="M390 450.7h50v15h-50v-15z"/><text transform="translate(390.1 462.03)" class="st4 st7">Layout: 0</text><path class="st6" d="M569.9 317.1h50v15h-50v-15z"/><text transform="translate(570.006 328.448)" class="st4 st7">Layout: 0</text><path class="st6" d="M488.6 316.7h50v15h-50v-15z"/><text transform="translate(488.658 328.007)" class="st4 st7">Layout: 1</text><path class="st6" d="M660.3 317.6h50v15h-50v-15z"/><text transform="translate(660.386 328.886)" class="st4 st7">Layout: 2</text><path class="st6" d="M178 725.5h50v15h-50v-15z"/><text transform="translate(178.1 736.852)" class="st4 st7">Layout: 0</text><path class="st14" d="M636.5 518.8h81c1.1 0 2 .9 2 2v18.4c0 1.1-.9 2-2 2h-81c-1.1 0-2-.9-2-2v-18.4c0-1.1.9-2 2-2z"/><path class="st3" d="M636.5 518.8h81c1.1 0 2 .9 2 2v18.4c0 1.1-.9 2-2 2h-81c-1.1 0-2-.9-2-2v-18.4c0-1.1.9-2 2-2z"/><text transform="translate(641.592 535.776)" class="st4 st5">Spaces(1)</text><path class="st3" d="M618.1 430.4l52.3 88.4"/><path class="st14" d="M534.5 518.8h81c1.1 0 2 .9 2 2v18.4c0 1.1-.9 2-2 2h-81c-1.1 0-2-.9-2-2v-18.4c0-1.1.9-2 2-2z"/><path class="st3" d="M534.5 518.8h81c1.1 0 2 .9 2 2v18.4c0 1.1-.9 2-2 2h-81c-1.1 0-2-.9-2-2v-18.4c0-1.1.9-2 2-2z"/><text transform="translate(539.592 535.776)" class="st4 st5">Spaces(0)</text><path class="st3" d="M590.3 430.4l-13.6 88.4"/><path class="st14" d="M847.5 518.8h81c1.1 0 2 .9 2 2v18.4c0 1.1-.9 2-2 2h-81c-1.1 0-2-.9-2-2v-18.4c0-1.1.9-2 2-2z"/><path class="st3" d="M847.5 518.8h81c1.1 0 2 .9 2 2v18.4c0 1.1-.9 2-2 2h-81c-1.1 0-2-.9-2-2v-18.4c0-1.1.9-2 2-2z"/><text transform="translate(852.592 535.776)" class="st4 st5">Spaces(0)</text><path class="st3" d="M822 433.8l58.3 85"/><path class="st14" d="M745.5 518.8h81c1.1 0 2 .9 2 2v18.4c0 1.1-.9 2-2 2h-81c-1.1 0-2-.9-2-2v-18.4c0-1.1.9-2 2-2z"/><path class="st3" d="M745.5 518.8h81c1.1 0 2 .9 2 2v18.4c0 1.1-.9 2-2 2h-81c-1.1 0-2-.9-2-2v-18.4c0-1.1.9-2 2-2z"/><text transform="translate(750.592 535.776)" class="st4 st5">Spaces(0)</text><path class="st3" d="M791.6 433.8l-4.9 85"/><path class="st14" d="M444.5 801.8h81c1.1 0 2 .9 2 2v18.4c0 1.1-.9 2-2 2h-81c-1.1 0-2-.9-2-2v-18.4c0-1.1.9-2 2-2z"/><path class="st3" d="M444.5 801.8h81c1.1 0 2 .9 2 2v18.4c0 1.1-.9 2-2 2h-81c-1.1 0-2-.9-2-2v-18.4c0-1.1.9-2 2-2z"/><text transform="translate(449.592 818.776)" class="st4 st5">Spaces(0)</text><path class="st14" d="M342.5 801.8h81c1.1 0 2 .9 2 2v18.4c0 1.1-.9 2-2 2h-81c-1.1 0-2-.9-2-2v-18.4c0-1.1.9-2 2-2z"/><path class="st3" d="M342.5 801.8h81c1.1 0 2 .9 2 2v18.4c0 1.1-.9 2-2 2h-81c-1.1 0-2-.9-2-2v-18.4c0-1.1.9-2 2-2z"/><text transform="translate(347.592 818.776)" class="st4 st5">Spaces(0)</text><path class="st3" d="M436.6 714.1l42.9 87.7m-74.4-87.7l-19.6 87.7"/><path class="st14" d="M111.5 911.8h81c1.1 0 2 .9 2 2v18.4c0 1.1-.9 2-2 2h-81c-1.1 0-2-.9-2-2v-18.4c0-1.1.9-2 2-2z"/><path class="st3" d="M111.5 911.8h81c1.1 0 2 .9 2 2v18.4c0 1.1-.9 2-2 2h-81c-1.1 0-2-.9-2-2v-18.4c0-1.1.9-2 2-2z"/><text transform="translate(116.592 928.776)" class="st4 st5">Spaces(0)</text><path class="st14" d="M213.5 911.8h81c1.1 0 2 .9 2 2v18.4c0 1.1-.9 2-2 2h-81c-1.1 0-2-.9-2-2v-18.4c0-1.1.9-2 2-2z"/><path class="st3" d="M213.5 911.8h81c1.1 0 2 .9 2 2v18.4c0 1.1-.9 2-2 2h-81c-1.1 0-2-.9-2-2v-18.4c0-1.1.9-2 2-2z"/><text transform="translate(218.592 928.776)" class="st4 st5">Spaces(1)</text><path class="st3" d="M184.1 853.8l-26.9 58m64.7-58l26.9 58"/><path class="st2" d="M258.3 247.1h221.5c1.1 0 2 .9 2 2v37.8c0 1.1-.9 2-2 2H258.3c-1.1 0-2-.9-2-2v-37.8c0-1.1.8-2 2-2z"/><path class="st3" d="M258.3 247.1h221.5c1.1 0 2 .9 2 2v37.8c0 1.1-.9 2-2 2H258.3c-1.1 0-2-.9-2-2v-37.8c0-1.1.8-2 2-2z"/><text transform="translate(306.808 273.776)" class="st4 st5">RC&lt;SyntaxData&gt;</text><path class="st0" d="M376.7 288.9l20.1 54.6"/><path d="M400.1 352.5l.1-10.2-6.8 2.5 6.7 7.7z"/><path class="st1" d="M400.1 352.5l.1-10.2-6.8 2.5 6.7 7.7z"/><path class="st6" d="M375.8 311.5h24v15h-24v-15z"/><text transform="translate(375.887 322.83)" class="st4 st7">Raw</text><path class="st0" d="M342.4 288.9l-48.9 38.5-46.8 36.7"/><path d="M239.1 370.1l9.8-3.1-4.4-5.7-5.4 8.8z"/><path class="st1" d="M239.1 370.1l9.8-3.1-4.4-5.7-5.4 8.8z"/><path class="st6" d="M243.2 319.3h102v15h-102v-15z"/><text transform="translate(244.255 330.661)" class="st4 st7">CachedChild</text><text transform="translate(313.855 330.661)" class="st4 st7">r</text><text transform="translate(317.555 330.661)" class="st4 st7">en: 0</text><path class="st6" d="M548.9 461.1h71v15h-71v-15z"/><text transform="translate(549.183 472.447)" class="st4 st7">Leading</text><text transform="translate(592.083 472.447)" class="st4 st7">T</text><text transform="translate(597.883 472.447)" class="st4 st7">rivia</text><path class="st6" d="M624.8 490h66v15h-66v-15z"/><text transform="translate(625.114 501.32)" class="st4 st7">T</text><text transform="translate(630.914 501.32)" class="st4 st7">railing</text><text transform="translate(662.914 501.32)" class="st4 st7">T</text><text transform="translate(668.714 501.32)" class="st4 st7">rivia</text><path class="st6" d="M754.4 455.6h71v15h-71v-15z"/><text transform="translate(754.68 466.925)" class="st4 st7">Leading</text><text transform="translate(797.58 466.925)" class="st4 st7">T</text><text transform="translate(803.38 466.925)" class="st4 st7">rivia</text><path class="st6" d="M827.6 482.5h66v15h-66v-15z"/><text transform="translate(827.91 493.861)" class="st4 st7">T</text><text transform="translate(833.71 493.861)" class="st4 st7">railing</text><text transform="translate(865.71 493.861)" class="st4 st7">T</text><text transform="translate(871.51 493.861)" class="st4 st7">rivia</text><path class="st6" d="M136.4 872.5h71v15h-71v-15z"/><text transform="translate(136.707 883.84)" class="st4 st7">Leading</text><text transform="translate(179.607 883.84)" class="st4 st7">T</text><text transform="translate(185.407 883.84)" class="st4 st7">rivia</text><path class="st6" d="M208.9 889.5h66v15h-66v-15z"/><text transform="translate(209.282 900.834)" class="st4 st7">T</text><text transform="translate(215.082 900.834)" class="st4 st7">railing</text><text transform="translate(247.082 900.834)" class="st4 st7">T</text><text transform="translate(252.882 900.834)" class="st4 st7">rivia</text><path class="st6" d="M361.1 744.6h71v15h-71v-15z"/><text transform="translate(361.41 755.895)" class="st4 st7">Leading</text><text transform="translate(404.31 755.895)" class="st4 st7">T</text><text transform="translate(410.11 755.895)" class="st4 st7">rivia</text><path class="st6" d="M433.5 767.8h66v15h-66v-15z"/><text transform="translate(433.87 779.108)" class="st4 st7">T</text><text transform="translate(439.67 779.108)" class="st4 st7">railing</text><text transform="translate(471.67 779.108)" class="st4 st7">T</text><text transform="translate(477.47 779.108)" class="st4 st7">rivia</text></svg>