<svg data-name="Layer 1" xmlns="http://www.w3.org/2000/svg" viewBox="0 0 1024 768" width="1024" height="768"><defs><clipPath id="a"><path fill="none" d="M75.91 558.89h83.83v83.41H75.91z"/></clipPath><clipPath id="b"><path fill="none" d="M76.12 272.89h83.41v83.41H76.12z"/></clipPath><clipPath id="c"><path fill="none" d="M75.86 415.89h83.93v83.41H75.86z"/></clipPath><clipPath id="d"><path fill="none" d="M70.97 129.89h93.72v83.42H70.97z"/></clipPath><clipPath id="e"><path fill="none" d="M70.97 129.89h93.72v83.41H70.97z"/></clipPath><clipPath id="f"><path fill="none" d="M348.53 341.33h326.94v85.34H348.53z"/></clipPath><clipPath id="g"><path fill="none" d="M186.64 186.15h34.98v399.9h-34.98z"/></clipPath><clipPath id="h"><path fill="none" d="M186.64 290.83h34.98v158.54h-34.98z"/></clipPath><clipPath id="i"><path fill="none" d="M802.39 186.15h34.98v399.9h-34.98z"/></clipPath><clipPath id="j"><path fill="none" d="M802.39 287.47h34.98v197.26h-34.98z"/></clipPath></defs><text transform="translate(863 79)" font-size="24" font-family="SFProDisplay-Medium, SF Pro Display"><tspan letter-spacing="-.127em">T</tspan><tspan x="11.07" y="0">a</tspan><tspan x="23.51" y="0" letter-spacing="-.022em">r</tspan><tspan x="30.85" y="0">gets</tspan></text><g clip-path="url(#a)"><path d="M104.89 572.34l-1.14-.76-.8-1.19-.28-1.42.28-1.43.8-1.14 1.14-.77 1.43-.31 1.42.31 1.15.77.8 1.14.31 1.46-.28 1.42-.8 1.19-1.15.76-1.42.31zm12.62-13.45l-2.92.07-2.67.14-2.47.21-2.23.35-2 .41-1.77.53-1.53.62-1.32.69-1.08.81-.87.9-.59 1-.38 1.08-.18 1.18.07 1.29v9.56h20.29v2.88H87.93l-1.11.17-1.25.35-1.39.56-1.46.83-1.46 1.15-1.39 1.53-1.25 2-1.11 2.47-.83 3-.56 3.62-.21 4.24.17 4.27.49 3.65.73 3.06 1 2.54 1.11 2 1.22 1.6 1.25 1.25 1.25.91 1.22.62 1.11.42 1 .25.73.1h7.76v-10.62l.06-.74.14-.94.25-1.1.34-1.22.53-1.29.63-1.29.94-1.22 1.16-1.07 1.42-.94 1.74-.76 2-.49 2.4-.17h20.75l.73-.07.9-.14 1-.25 1.15-.34 1.22-.49 1.21-.66 1.15-.87 1-1.08.91-1.32.73-1.6.45-1.9.17-2.19v-19.02l-.06-.69-.14-.91-.35-1-.55-1.15-.87-1.18-1.19-1.18-1.56-1.11-2.05-1-2.54-.91-3.13-.69-3.71-.46z"/><path d="M127.9 635.6l-1.14-.8-.8-1.15-.28-1.43.28-1.42.8-1.14 1.14-.8 1.43-.28 1.43.28 1.14.8.8 1.14.28 1.42-.28 1.43-.8 1.15-1.14.8-1.43.28zm12.87-55.6v10.63l-.08.73-.14 1-.24 1.11-.35 1.22-.52 1.25-.69 1.25-.94 1.21-1.15 1.12-1.42 1-1.74.73-2.05.49-2.4.17H108.3l-.73.07-.9.13-1 .21-1.14.35-1.22.49-1.21.69-1.15.84-1 1.11-.95 1.3-.73 1.6-.45 1.87-.17 2.23V631.81l.07.69.14.87.35 1 .56 1.14.86 1.19 1.18 1.18 1.57 1.14 2 1 2.53.87 3.13.69 3.72.49 4.42.14h2.92l2.67-.14 2.47-.24 2.23-.31 2-.45 1.77-.53 1.53-.59 1.32-.7 1.08-.83.87-.86.59-1 .38-1.08.18-1.18-.07-1.26v-9.59h-20.36v-2.85H146.88l.84-.07 1.11-.17 1.25-.32 1.39-.56 1.46-.83 1.46-1.14 1.39-1.57 1.25-2 1.11-2.47.84-3 .55-3.61.21-4.28-.17-4.27-.49-3.62-.73-3-1-2.54-1.11-2.06-1.22-1.63-1.25-1.21-1.26-.94-1.21-.63-1.11-.41-1-.21-.73-.11h-.48z"/></g><g clip-path="url(#b)"><path d="M76.12 272.89h83.41v83.42H76.12zm76.58 63.52c-.61-3.8-3.08-7-10.44-10-2.56-1.2-5.4-2-6.24-4a4 4 0 0 1-.16-2.45c.52-2.24 3.18-2.92 5.26-2.29a5.63 5.63 0 0 1 3.39 3.13c3.6-2.35 3.6-2.35 6.1-3.91a14.47 14.47 0 0 0-2-2.71c-2.19-2.45-5.11-3.71-9.85-3.6l-2.45.31a11.33 11.33 0 0 0-5.95 3.49c-4 4.49-2.82 12.31 2 15.54 4.74 3.55 11.68 4.33 12.57 7.67.84 4.06-3 5.37-6.83 4.9-2.82-.62-4.38-2-6.1-4.64l-6.36 3.65a14.06 14.06 0 0 0 2.81 3.86c6 6.1 21.17 5.79 23.88-3.49a11.61 11.61 0 0 0 .26-5.74zm-31.22-25.18h-7.82v20.18c0 4.28.22 8.21-.48 9.42-1.14 2.4-4.1 2.09-5.44 1.67a6.7 6.7 0 0 1-2.89-3 2.7 2.7 0 0 0-.44-.69L98 342.75a12.29 12.29 0 0 0 4.6 5.28 15.36 15.36 0 0 0 11.15 1.41 9.81 9.81 0 0 0 6.3-4.91c1.77-3.23 1.39-7.19 1.37-11.63v-21.47z"/></g><g clip-path="url(#c)"><path d="M146.35 415.93C157 417.76 160 425 159.74 432.61v-.11L155 495.05l-62 4.26c-5.16-.22-16.64-.7-17.16-16.75l5.75-10.49 9.86 23 1.76 4.11 9.81-32h-.11l.06-.1 32.36 10.33-4.88-19-3.45-13.56 30.84-2-2.15-1.78L133.56 423l12.8-7.14zm-70.49 66.46zm17.94-49c12.45-12.39 28.52-19.67 34.7-13.39s-.37 21.35-12.85 33.7-28.33 20-34.49 13.83.15-21.74 12.63-34.09z"/></g><g clip-path="url(#e)"><path d="M156.81 188.58c.22-.44.22-.88.43-1.32 5.26-20.58-7.22-44.67-28.68-57.37 9.42 12.7 13.14 27.81 9.85 41.39a21.36 21.36 0 0 1-1.09 3.5 19.84 19.84 0 0 1-1.76-1.09 267.82 267.82 0 0 1-44-36.13c-.66-.66 12.27 18.39 26.72 33.5-6.79-3.94-26.06-17.74-38.11-28.91a50.74 50.74 0 0 0 5.26 7.23c10.07 12.92 23.21 28.69 39 40.73-11.17 6.8-26.72 7.22-42.48 0a62.42 62.42 0 0 1-11-6.57 64.63 64.63 0 0 0 29.12 24.74c14.67 6.36 29.56 5.92 40.29 0h.23a4.45 4.45 0 0 0 1.31-.87c5.25-2.63 15.55-5.48 21.24 5.48 1.53 3.06 4.38-11.17-6.35-24.31z"/></g><text transform="translate(60 79)" font-size="24" font-family="SFProDisplay-Medium, SF Pro Display">Languages</text><path fill="none" stroke="#000" stroke-width="5" d="M349.29 338.33h325.42v91.34H349.29z"/><g clip-path="url(#f)"><text transform="translate(466 393)" font-size="26" font-family="SFProDisplay-Medium, SF Pro Display">L<tspan x="13.81" y="0" letter-spacing="-.058em">L</tspan><tspan x="26.12" y="0">VM IR</tspan></text></g><path fill="none" stroke="#000" stroke-width="3" d="M219.82 386.1h97.49"/><path d="M315.81 392.7l13.2-6.6-13.2-6.6v13.2z"/><g clip-path="url(#g)"><path fill="none" stroke="#000" stroke-width="3" d="M187.98 188.65h31.13v394.9h-31.47"/></g><g clip-path="url(#h)"><path fill="none" stroke="#000" stroke-width="3" d="M187.98 293.33h31.13v153.54h-31.47"/></g><path fill="none" stroke="#000" stroke-width="3" d="M770.23 386.1h-97.49"/><path d="M768.73 392.7l13.2-6.6-13.2-6.6v13.2z"/><g clip-path="url(#i)"><path fill="none" stroke="#000" stroke-width="3" d="M836.02 188.65h-31.13v394.9h31.47"/></g><g clip-path="url(#j)"><path fill="none" stroke="#000" stroke-width="3" d="M836.02 289.97h-31.13v192.26h31.47"/></g><text transform="translate(863 208)" font-size="32" font-family="SFProDisplay-Semibold, SF Pro Display" font-weight="700"><tspan letter-spacing="-.002em">x</tspan><tspan x="16.14" y="0" letter-spacing="-.001em">8</tspan><tspan x="36.36" y="0">6</tspan></text><text transform="translate(863 303)" font-size="32" font-family="SFProDisplay-Semibold, SF Pro Display" font-weight="700">ARM</text><text transform="translate(863 492)" font-size="32" font-family="SFProDisplay-Semibold, SF Pro Display" font-weight="700"><tspan letter-spacing="-.019em">P</tspan><tspan x="18.69" y="0" letter-spacing="-.002em">o</tspan><tspan x="36.47" y="0" letter-spacing="-.004em">w</tspan><tspan x="60.75" y="0">erPC</tspan></text><path fill="none" stroke="#000" stroke-width="3" d="M836.36 384h-31.47"/><text transform="translate(863 397)" font-size="32" font-family="SFProDisplay-Semibold, SF Pro Display" font-weight="700">RIS<tspan x="47.77" y="0" letter-spacing="-.016em">C</tspan><tspan x="69.74" y="0" letter-spacing="-.029em">-</tspan><tspan x="82.79" y="0">V</tspan></text><text transform="translate(863 587)" font-size="32" font-family="SFProDisplay-Semibold, SF Pro Display" font-weight="700">S<tspan x="19.77" y="0" letter-spacing="-.061em">P</tspan><tspan x="37.11" y="0">ARC</tspan></text></svg>