<svg data-name="Layer 1" xmlns="http://www.w3.org/2000/svg" viewBox="0 0 1024 768" width="1024" height="768"><defs><clipPath id="a"><path fill="none" d="M879.49 188.76V98.5H265.08v1.5H144v88.76h-1.5v452.83h736.99V188.76z"/></clipPath><clipPath id="b"><path fill="none" d="M266.58 100h122.58v90.26H266.58z"/></clipPath><clipPath id="c"><path fill="none" d="M284 104.26h87v82h-87z"/></clipPath><clipPath id="d"><path fill="none" d="M284 104.26h87v82h-87z"/></clipPath><clipPath id="e"><path fill="none" d="M389.16 100h122.58v90.26H389.16z"/></clipPath><clipPath id="f"><path fill="none" d="M410 104.26h80v82h-80z"/></clipPath><clipPath id="g"><path fill="none" d="M511.75 100h122.58v90.26H511.75z"/></clipPath><clipPath id="h"><path fill="none" d="M540 111.26h67v67h-67z"/></clipPath><clipPath id="i"><path fill="none" d="M634.33 100h122.58v90.26H634.33z"/></clipPath><clipPath id="j"><path fill="none" d="M654 107.26h82v75h-82z"/></clipPath><clipPath id="k"><path fill="none" d="M144 190.26h122.58v90.26H144z"/></clipPath><clipPath id="l"><path fill="none" d="M168 201.79h75v67h-75z"/></clipPath><clipPath id="m"><path fill="none" d="M168 201.79h75v67h-75z"/></clipPath><clipPath id="n"><path fill="none" d="M0 0h1024v768H0z"/></clipPath><clipPath id="o"><path fill="none" d="M144 280.53h122.58v90.26H144z"/></clipPath><clipPath id="p"><path fill="none" d="M172 292.32h67v67h-67z"/></clipPath><clipPath id="q"><path fill="none" d="M144 370.79h122.58v90.26H144z"/></clipPath><clipPath id="r"><path fill="none" d="M172 382.85h67v67h-67z"/></clipPath><clipPath id="s"><path fill="none" d="M144 461.06h122.58v90.26H144z"/></clipPath><clipPath id="t"><path fill="none" d="M172 472.38h67v67h-67z"/></clipPath><clipPath id="u"><path fill="none" d="M757.41 101.5h122.08v87.26H757.41z"/></clipPath><clipPath id="v"><path fill="none" d="M145.5 551.82h119.58v89.76H145.5z"/></clipPath></defs><g clip-path="url(#d)"><path d="M356.91 118.77c1.46-.73 2.19-1.46 3.28-1.46a3.62 3.62 0 0 1 3.28 1.83c.73 1.1 3.28 1.83 4.37 1.83.73 0 1.83-2.57 2.56-4.76s.73-4.77.36-5.13a12.73 12.73 0 0 0-4-1.1 3.49 3.49 0 0 1-2.55.73c-1.46 0-2.92-1.1-4-2.2-1.82-1.83-4-2.56-6.2-3.29a22.11 22.11 0 0 0-6.92-.74 24.25 24.25 0 0 0-10.21.74 17.52 17.52 0 0 0-4 1.46 3.83 3.83 0 0 1-1.82.73c-.37.37-.37.74 0 .74a15.72 15.72 0 0 0 1.82-.37s-1.82.73-1.82 1.47a.35.35 0 0 0 .36.36 7.45 7.45 0 0 1 1.82-.36c1.46 0 3.65-.74 5.47-.74a8.9 8.9 0 0 1 6.56 2.93c3.28 4 2.92 9.16 2.92 10.26-.73 7.7-17.86 54.59-18.59 57.89s-.73 5.13 3.28 6.23 5.47 0 6.2-1.47c.36-2.56 11.3-60.45 17.86-65.58"/><path d="M342.69 115.11L284 124.27l9.48 61.18 31.35-5.13c-.37-2.56 8-24.54 9.48-28.58l-16 2.57 2.18-6.6 11.3-1.83 2.92 3.67a11.51 11.51 0 0 0 .73-2.57l-15.67-19.42a2.32 2.32 0 0 1 .36-3.29l.73-.74a2.3 2.3 0 0 1 3.28.37L338 140c2.92-8.79 5.47-16.49 5.47-19.05.37-.73.37-3.3-.73-5.86M299 151.38l9.84-1.83-2.55 6.59-6.56 1.1zm21.14-18.69l1.09.37c1.46.37 1.83 1.83 1.46 3.3l-10.93 29.31-6.57 8.79.73-11 10.94-29.31c.36-1.47 1.82-1.83 3.28-1.47m39.37-10.26c-1.46 1.47-3.28 6.23-6.93 20.16h.37l1.09 5.86-2.91.36a46.38 46.38 0 0 1-1.46 5.87c6.2 3.29 2.91 11.35 2.55 11.35s-.37 0-.37-.36.37-1.47-.72-1.84a21.22 21.22 0 0 1-3.28-1.46c-1.1 4.4-2.19 9.52-3.29 15l23-3.66-7.65-51.66z"/></g><g clip-path="url(#f)"><path d="M419.44 136.7l9.52 8.48-9.52 8.65zm30.48 8.56L469 131v28.6zm21-41L437.6 136.7l-20-15.3-7.6 3.85v40l7.6 3.77 20-15.22 33.4 32.46 19-7.6V112z"/></g><g clip-path="url(#h)"><path d="M607 144.73h-.08l-12-12.06 12-12.32v-5l-1.81-1.81h-22.92l-1.85 1.69v2.92l-6.8-6.8v-.08.08l-3.6 3.6-1.5-1.5h-22.76l-1.78 1.93v5.26l1.72 1.72h2v14.83l-7.56 7.55H540h.07l7.56 7.56v18l2.53 1.46h6.49l5.18-5.31 11.63 11.63v.07-.07l7-7h1.35a.74.74 0 0 0 .7-.5l.41-1.19a.73.73 0 0 0-.11-.66l4.08-4.09-1.71 5.48a.75.75 0 0 0 .5.93.83.83 0 0 0 .22 0h5.09a.74.74 0 0 0 .68-.45l.46-1.1a.75.75 0 0 0-.42-1 .76.76 0 0 0-.27 0h-.21l2.34-7.38h3.44l-2.83 9a.75.75 0 0 0 .49.93.78.78 0 0 0 .22 0h5.59a.73.73 0 0 0 .69-.48l.46-1.19a.74.74 0 0 0-.44-.95.8.8 0 0 0-.26-.05h-.4l3.15-10.25a.72.72 0 0 0-.1-.67l-1-1.41a.73.73 0 0 0-.58-.29h-4a.7.7 0 0 0-.53.23l-1.12 1.22h-1.74l-.12-.13 12.41-12.41h.1zm-39.54 25.55l4.41-12.59h-1.4l.83-.85h4.64l-4.37 12.72h1.74l-.22.72zm10.32-21l.42.42-.75 2.57-.63.63h-2.71l-.5-.5.87-2.44.8-.68zm-22.18 20.13h-4.78l-.73-.42v-49.1h-3.45l-.28-.28v-3.28l.4-.43h20.58l.59.6v3.09l-.39.48h-3v24.26l24.58-24.26h-5.82l-.49-.52v-3.25l.34-.31h20.91l.37.37v3l-28.19 28.9H575a.71.71 0 0 0-.34.16l-.95.83a.9.9 0 0 0-.21.31l-.82 2.32zm41.23-11l1.33-1.45h3.72l.86 1.16-3.53 11.46h1.38l-.22.59h-5l3.13-9.95h-5.6l-3 9.46h1.18l-.2.49h-4.48l3.09-9.9h-5.85l-3 9.32h1.21l-.2.58H577l4.23-12.45h-1.63l.25-.76h4.61l1.45 1.51h2.53l1.37-1.55h3l1.36 1.49z"/></g><g clip-path="url(#j)"><path d="M719 125c1.35-6.78.56-12-2.55-14a6.38 6.38 0 0 0-3.74-1c-7.64.32-19.9 10.85-29.85 26.41-11.86 18.43-16.08 36.86-9.39 41.25 3.18 2.07 8.2.63 13.93-3.52" fill="none" stroke="#000" stroke-miterlimit="10" stroke-width="2.391"/><path d="M725.41 154.76c5.65-2.24 9.15-5.27 9.39-8.7.4-8.06-17-15.48-39-16.67-2-.08-4.06-.16-6-.16-19.19.08-34.15 5.34-34.55 12.6-.16 3.51 2.95 6.86 8.36 9.66" fill="none" stroke="#000" stroke-miterlimit="10" stroke-width="2.391"/><path d="M689.59 113.27c-3.9-3.27-7.57-5-10.51-4.79a6.08 6.08 0 0 0-2.15.56c-7.16 3.67-4.85 22.66 5.09 42.37s24 32.71 31.13 29c6.92-3.51 5-21.22-4-40" fill="none" stroke="#000" stroke-miterlimit="10" stroke-width="2.391"/><path d="M701.37 145.18a6.37 6.37 0 1 1-6.37-6.38 6.4 6.4 0 0 1 6.37 6.38"/></g><g clip-path="url(#m)"><path d="M236.7 248.93c.17-.35.17-.7.35-1.05 4.21-16.54-5.79-35.89-23-46.09C221.63 212 224.6 224.13 222 235a17.63 17.63 0 0 1-.88 2.82 15.65 15.65 0 0 1-1.4-.88 214.09 214.09 0 0 1-35.22-29 212.29 212.29 0 0 0 21.37 26.91c-5.43-3.17-20.85-14.25-30.49-23.22a40 40 0 0 0 4.21 5.81c8.06 10.37 18.58 23 31.19 32.71-8.93 5.46-21.38 5.8-34 0a50.23 50.23 0 0 1-8.76-5.28 51.79 51.79 0 0 0 23.31 19.88c11.74 5.1 23.66 4.75 32.24 0h.18a3.77 3.77 0 0 0 1.05-.7c4.21-2.11 12.45-4.4 17 4.4 1.23 2.46 3.51-9-5.08-19.53z"/></g><g clip-path="url(#n)" fill="#fff"><path d="M266.58 190.26h122.58v90.26H266.58zM389.16 190.26h122.58v90.26H389.16zM511.75 190.26h122.58v90.26H511.75zM634.33 190.26h122.58v90.26H634.33z"/><path d="M756.91 190.26h122.58v90.26H756.91z"/></g><g clip-path="url(#p)"><path d="M172 292.32h67v67h-67zm61.51 51c-.48-3.06-2.48-5.62-8.38-8-2.06-1-4.34-1.63-5-3.18a3.28 3.28 0 0 1-.12-2c.41-1.8 2.55-2.34 4.22-1.84a4.52 4.52 0 0 1 2.73 2.51c2.88-1.89 2.88-1.89 4.9-3.14a11.83 11.83 0 0 0-1.64-2.18c-1.76-2-4.1-3-7.91-2.88l-2 .24a9 9 0 0 0-4.77 2.81 8.74 8.74 0 0 0 1.59 12.48c3.81 2.85 9.38 3.47 10.09 6.16.67 3.26-2.43 4.31-5.49 3.93-2.26-.5-3.52-1.63-4.9-3.73l-5.1 2.94a11.35 11.35 0 0 0 2.25 3.1c4.86 4.9 17 4.65 19.19-2.81a9.48 9.48 0 0 0 .21-4.61zm-25.08-20.22h-6.27v16.2c0 3.44.18 6.6-.38 7.57-.92 1.93-3.3 1.68-4.37 1.34a5.37 5.37 0 0 1-2.32-2.39c-.18-.29-.31-.54-.36-.54l-5.09 3.14a9.79 9.79 0 0 0 3.7 4.23 12.21 12.21 0 0 0 8.95 1.13 7.89 7.89 0 0 0 5.06-3.93c1.42-2.6 1.12-5.79 1.1-9.35v-17.25z"/></g><g clip-path="url(#n)" fill="#fff"><path d="M266.58 280.53h122.58v90.26H266.58zM389.16 280.53h122.58v90.26H389.16zM511.75 280.53h122.58v90.26H511.75zM634.33 280.53h122.58v90.26H634.33z"/><path d="M756.91 280.53h122.58v90.26H756.91z"/></g><g clip-path="url(#r)"><path d="M228.27 382.88c8.47 1.47 10.87 7.3 10.69 13.4v-.09l-3.81 50.25-49.54 3.41c-4.12-.17-13.28-.56-13.7-13.45l4.59-8.42 7.87 18.49 1.41 3.3 7.83-25.68h-.09v-.08l25.83 8.3-3.89-15.25-2.77-11 24.63-1.59-1.72-1.44-17.68-14.5 10.22-5.73zM172 436.26zm14.32-39.36c9.94-9.93 22.77-15.79 27.7-10.79s-.29 17.15-10.25 27.07-22.62 16.1-27.54 11.11.12-17.46 10.08-27.39z"/></g><g clip-path="url(#n)" fill="#fff"><path d="M266.58 370.79h122.58v90.26H266.58zM389.16 370.79h122.58v90.26H389.16zM511.75 370.79h122.58v90.26H511.75zM634.33 370.79h122.58v90.26H634.33z"/><path d="M756.91 370.79h122.58v90.26H756.91z"/></g><g clip-path="url(#t)"><path d="M195.16 483.18l-.91-.61-.64-.95-.22-1.15.22-1.14.64-.92.91-.62 1.15-.25 1.13.25.92.62.64.92.22 1.14-.22 1.15-.64.95-.92.61-1.13.25zm10.09-10.8l-2.33.06-2.14.11-2 .17-1.78.28-1.61.34-1.42.42-1.22.5-1.06.56-.86.64-.69.72-.48.79-.3.86-.14.95.06 1v7.68h16.22v2.32H181.61l-.89.14-1 .28-1.11.44-1.17.68-1.16.92-1.11 1.22-1 1.6-.88 2-.67 2.43-.44 2.9-.18 3.41.14 3.43.39 2.93.58 2.46.78 2 .89 1.64 1 1.29 1 1 1 .73 1 .5.89.34.78.19.58.08h6.2v-8.54l.05-.59.11-.75.2-.89.28-1 .41-1 .56-1 .75-1 .91-.89 1.14-.75 1.39-.61 1.64-.4 1.92-.13h16.58l.58-.06.72-.11.84-.2.92-.28 1-.39 1-.53.92-.7.83-.86.73-1.06.58-1.29.36-1.53.14-1.76V480.84l-.05-.56-.11-.73-.28-.83-.44-.93-.7-1-.94-.94-1.25-.89-1.64-.84-2-.73-2.5-.56-3-.36z"/><path d="M213.55 534l-.91-.64-.64-.92-.22-1.15.22-1.14.64-.92.91-.64 1.15-.23 1.14.23.91.64.64.92.22 1.14-.22 1.15-.64.92-.91.64-1.14.22zm10.29-44.67v8.55l-.06.58-.11.79-.2.89-.28 1-.41 1-.56 1-.75 1-.91.9-1.14.78-1.39.58-1.64.39-1.92.14h-16.58l-.59.06-.72.11-.83.17-.91.28-1 .39-1 .56-.92.67-.83.89-.72 1.06-.59 1.28-.36 1.51-.13 1.79v15.27l.06.55.11.7.28.84.45.92.69.95.94 1 1.25.92 1.64.84 2 .7 2.5.56 3 .39 3.53.11h2.34l2.13-.11 2-.2 1.78-.25 1.62-.36L217 538l1.22-.48 1.06-.55.86-.67.69-.7.47-.81.31-.87.14-.94-.06-1v-7.7h-16.24V522h23.27l.67-.06.89-.14 1-.25 1.11-.45 1.16-.67 1.17-.92 1.12-1.26 1-1.59.89-2 .67-2.4.44-2.91.16-3.35-.14-3.43-.39-2.9-.58-2.46-.78-2-.89-1.65-1-1.31-1-1-1-.76-1-.5-.89-.34-.78-.16-.58-.09h-.39z"/></g><g clip-path="url(#n)" fill="#fff"><path d="M266.58 461.06h122.58v90.26H266.58zM389.16 461.06h122.58v90.26H389.16zM511.75 461.06h122.58v90.26H511.75zM634.33 461.06h122.58v90.26H634.33z"/><path d="M756.91 461.06h122.58v90.26H756.91zM266.58 551.32h122.58v90.26H266.58zM389.16 551.32h122.58v90.26H389.16zM511.75 551.32h122.58v90.26H511.75zM634.33 551.32h122.58v90.26H634.33z"/><path d="M756.91 551.32h122.58v90.26H756.91z"/></g><g clip-path="url(#u)"><text transform="translate(809 153)" font-size="22" font-family="HelveticaNeue-Bold, Helvetica Neue" font-weight="700">...</text></g><g clip-path="url(#v)"><text transform="translate(196 605)" font-size="22" font-family="HelveticaNeue-Bold, Helvetica Neue" font-weight="700">...</text></g><g clip-path="url(#n)" fill="none"><path stroke="#929292" d="M389.16 98.5v452.82M389.16 551.32v90.27M511.75 98.5v452.82M511.75 551.32v90.27M634.33 98.5v452.82M634.33 551.32v90.27M756.91 98.5v452.82M756.91 551.32v90.27M142.5 280.53h124.08M266.58 280.53h612.91M142.5 370.79h124.08M266.58 370.79h612.91M142.5 461.06h124.08M266.58 461.06h612.91M142.5 551.32h736.99"/><path stroke="#000" stroke-width="3" d="M266.58 98.5v91.76M266.58 190.26v361.06M266.58 551.32v90.27M142.5 190.26h124.08M266.58 190.26h612.91M144 188.76v452.83M265.08 100h614.41"/></g><text transform="translate(476 71)" font-size="24" font-family="SFProDisplay-Medium, SF Pro Display">Edi<tspan x="32.29" y="0" letter-spacing="-.012em">t</tspan><tspan x="39.7" y="0">ors</tspan></text><text transform="rotate(-90 274.5 167.5)" font-size="24" font-family="SFProDisplay-Medium, SF Pro Display">Languages</text></svg>