<svg id="a0ca7748-65ab-4595-9333-d1041d9bc42b" data-name="Layer 1" xmlns="http://www.w3.org/2000/svg" xmlns:xlink="http://www.w3.org/1999/xlink" viewBox="0 0 1024 768"><defs><clipPath id="eeb32e27-fe86-4a51-a32f-608553994a08"><polygon points="879.49 188.76 879.49 98.5 265.08 98.5 265.08 100 144 100 144 188.76 142.5 188.76 142.5 641.59 879.49 641.59 879.49 188.76" style="fill:none"/></clipPath><clipPath id="387f6457-d09d-47a6-9645-5dc15a1e68fd"><rect x="266.58" y="100" width="122.58" height="90.26" style="fill:none"/></clipPath><clipPath id="ca38b4db-fb15-4cf3-84e4-2b9742c94271"><rect x="284" y="104.26" width="87" height="82" style="fill:none"/></clipPath><clipPath id="d5d38844-7c0f-44cd-96f2-b4471b23dadd"><rect x="284" y="104.26" width="87" height="82" style="fill:none"/></clipPath><clipPath id="a3cde3ec-6f3a-4328-854a-59af21a136ad"><rect x="389.16" y="100" width="122.58" height="90.26" style="fill:none"/></clipPath><clipPath id="37b5d1c2-3fa7-41c4-994d-ae77ea4f1df7"><rect x="410" y="104.26" width="80" height="82" style="fill:none"/></clipPath><clipPath id="ae8e312e-5ccc-447b-800f-5101fc6899fd"><rect x="511.75" y="100" width="122.58" height="90.26" style="fill:none"/></clipPath><clipPath id="5ecf4c34-864a-44c7-b999-79a79959855f"><rect x="540" y="111.26" width="67" height="67" style="fill:none"/></clipPath><clipPath id="75a2a886-68bf-4f08-92b3-25bf796d926f"><rect x="634.33" y="100" width="122.58" height="90.26" style="fill:none"/></clipPath><clipPath id="dcec91d6-1055-4de7-8ad5-02df7313454b"><rect x="654" y="107.26" width="82" height="75" style="fill:none"/></clipPath><clipPath id="75a02128-125a-46ab-85da-385035ea8165"><rect x="144" y="190.26" width="122.58" height="90.26" style="fill:none"/></clipPath><clipPath id="c5e18cbc-295d-4a6d-a194-62723da7a990"><rect x="168" y="201.79" width="75" height="67" style="fill:none"/></clipPath><clipPath id="2c77f874-f536-4a98-9120-95eacca431aa"><rect x="168" y="201.79" width="75" height="67" style="fill:none"/></clipPath><clipPath id="f0828738-c2f6-44fd-9ae9-84de819c1083"><rect width="1024" height="768" style="fill:none"/></clipPath><clipPath id="09ef82b2-bc86-4275-a424-7dc2391fa553"><rect x="144" y="280.53" width="122.58" height="90.26" style="fill:none"/></clipPath><clipPath id="2f95c291-004e-40cc-bd87-1e57515cc431"><rect x="172" y="292.32" width="67" height="67" style="fill:none"/></clipPath><clipPath id="dc6fac7d-bccc-4471-a943-148ccbf743d2"><rect x="144" y="370.79" width="122.58" height="90.26" style="fill:none"/></clipPath><clipPath id="b31612eb-8786-47ad-a65f-de6af30d5cf7"><rect x="172" y="382.85" width="67" height="67" style="fill:none"/></clipPath><clipPath id="36e9c847-82e7-42c3-ad40-64c8a16e0905"><rect x="144" y="461.06" width="122.58" height="90.26" style="fill:none"/></clipPath><clipPath id="7db2485c-1e98-4def-8d36-4321704a282d"><rect x="172" y="472.38" width="67" height="67" style="fill:none"/></clipPath><clipPath id="ab9bd594-59c8-4fcb-8528-285daacadf39"><rect x="757.41" y="101.5" width="122.08" height="87.26" style="fill:none"/></clipPath><clipPath id="48a50826-4028-44f9-9e1d-b93b646b846b"><rect x="145.5" y="551.82" width="119.58" height="89.76" style="fill:none"/></clipPath></defs><title>Artboard 1</title><g style="clip-path:url(#eeb32e27-fe86-4a51-a32f-608553994a08)"><g style="clip-path:url(#387f6457-d09d-47a6-9645-5dc15a1e68fd)"><g style="clip-path:url(#ca38b4db-fb15-4cf3-84e4-2b9742c94271)"><g style="clip-path:url(#d5d38844-7c0f-44cd-96f2-b4471b23dadd)"><path d="M356.91,118.77c1.46-.73,2.19-1.46,3.28-1.46a3.62,3.62,0,0,1,3.28,1.83c.73,1.1,3.28,1.83,4.37,1.83.73,0,1.83-2.57,2.56-4.76s.73-4.77.36-5.13a12.73,12.73,0,0,0-4-1.1,3.49,3.49,0,0,1-2.55.73c-1.46,0-2.92-1.1-4-2.2-1.82-1.83-4-2.56-6.2-3.29a22.11,22.11,0,0,0-6.92-.74,24.25,24.25,0,0,0-10.21.74,17.52,17.52,0,0,0-4,1.46,3.83,3.83,0,0,1-1.82.73c-.37.37-.37.74,0,.74a15.72,15.72,0,0,0,1.82-.37s-1.82.73-1.82,1.47a.35.35,0,0,0,.36.36,7.45,7.45,0,0,1,1.82-.36c1.46,0,3.65-.74,5.47-.74a8.9,8.9,0,0,1,6.56,2.93c3.28,4,2.92,9.16,2.92,10.26-.73,7.7-17.86,54.59-18.59,57.89s-.73,5.13,3.28,6.23,5.47,0,6.2-1.47c.36-2.56,11.3-60.45,17.86-65.58"/><path d="M342.69,115.11,284,124.27l9.48,61.18,31.35-5.13c-.37-2.56,8-24.54,9.48-28.58l-16,2.57,2.18-6.6,11.3-1.83,2.92,3.67a11.51,11.51,0,0,0,.73-2.57l-15.67-19.42a2.32,2.32,0,0,1,.36-3.29l.73-.74a2.3,2.3,0,0,1,3.28.37L338,140c2.92-8.79,5.47-16.49,5.47-19.05.37-.73.37-3.3-.73-5.86M299,151.38l9.84-1.83-2.55,6.59-6.56,1.1Zm21.14-18.69,1.09.37c1.46.37,1.83,1.83,1.46,3.3l-10.93,29.31-6.57,8.79.73-11,10.94-29.31c.36-1.47,1.82-1.83,3.28-1.47m39.37-10.26c-1.46,1.47-3.28,6.23-6.93,20.16h.37l1.09,5.86-2.91.36a46.38,46.38,0,0,1-1.46,5.87c6.2,3.29,2.91,11.35,2.55,11.35s-.37,0-.37-.36.37-1.47-.72-1.84a21.22,21.22,0,0,1-3.28-1.46c-1.1,4.4-2.19,9.52-3.29,15l23-3.66-7.65-51.66Z"/></g></g></g></g><g style="clip-path:url(#eeb32e27-fe86-4a51-a32f-608553994a08)"><g style="clip-path:url(#a3cde3ec-6f3a-4328-854a-59af21a136ad)"><g style="clip-path:url(#37b5d1c2-3fa7-41c4-994d-ae77ea4f1df7)"><path d="M419.44,136.7l9.52,8.48-9.52,8.65Zm30.48,8.56L469,131V159.6Zm21-41L437.6,136.7l-20-15.3-7.6,3.85v40l7.6,3.77,20-15.22L471,186.26l19-7.6V112Z"/></g></g></g><g style="clip-path:url(#eeb32e27-fe86-4a51-a32f-608553994a08)"><g style="clip-path:url(#ae8e312e-5ccc-447b-800f-5101fc6899fd)"><g style="clip-path:url(#5ecf4c34-864a-44c7-b999-79a79959855f)"><g style="clip-path:url(#5ecf4c34-864a-44c7-b999-79a79959855f)"><path d="M607,144.73h-.08l-12-12.06,12-12.32v-5l-1.81-1.81H582.19l-1.85,1.69v2.92l-6.8-6.8v-.08l0,0,0,0v.08l-3.6,3.6-1.5-1.5H545.68l-1.78,1.93v5.26l1.72,1.72h2v14.83l-7.56,7.55H540l0,0,0,0h.07l7.56,7.56v18l2.53,1.46h6.49l5.18-5.31,11.63,11.63v.07l0,0,0,0v-.07l7-7h1.35a.74.74,0,0,0,.7-.5l.41-1.19a.73.73,0,0,0-.11-.66l4.08-4.09-1.71,5.48a.75.75,0,0,0,.5.93.83.83,0,0,0,.22,0h5.09a.74.74,0,0,0,.68-.45l.46-1.1a.75.75,0,0,0-.42-1,.76.76,0,0,0-.27,0h-.21l2.34-7.38h3.44l-2.83,9a.75.75,0,0,0,.49.93.78.78,0,0,0,.22,0h5.59a.73.73,0,0,0,.69-.48l.46-1.19a.74.74,0,0,0-.44-.95.8.8,0,0,0-.26-.05h-.4l3.15-10.25a.72.72,0,0,0-.1-.67l-1-1.41h0a.73.73,0,0,0-.58-.29h-4a.7.7,0,0,0-.53.23l-1.12,1.22h-1.74l-.12-.13,12.41-12.41H607l0,0Zm-39.54,25.55,4.41-12.59h-1.4l.83-.85h4.64l-4.37,12.72h1.74l-.22.72Zm10.32-21,.42.42-.75,2.57-.63.63h-2.71l-.5-.5.87-2.44.8-.68ZM555.6,169.41h-4.78l-.73-.42v-49.1h-3.45l-.28-.28v-3.28l.4-.43h20.58l.59.6v3.09l-.39.48h-3v24.26l24.58-24.26h-5.82l-.49-.52V116.3l.34-.31h20.91l.37.37v3l-28.19,28.9H575a.71.71,0,0,0-.34.16l-.95.83h0a.9.9,0,0,0-.21.31l-.82,2.32Zm41.23-11,1.33-1.45h3.72l.86,1.16-3.53,11.46h1.38l-.22.59h-5l3.13-9.95H592.9l-3,9.46h1.18l-.2.49h-4.48l3.09-9.9h-5.85l-3,9.32h1.21l-.2.58H577l4.23-12.45h-1.63l.25-.76h4.61l1.45,1.51h2.53l1.37-1.55h3l1.36,1.49Z"/></g></g></g></g><g style="clip-path:url(#eeb32e27-fe86-4a51-a32f-608553994a08)"><g style="clip-path:url(#75a2a886-68bf-4f08-92b3-25bf796d926f)"><g style="clip-path:url(#dcec91d6-1055-4de7-8ad5-02df7313454b)"><g style="clip-path:url(#dcec91d6-1055-4de7-8ad5-02df7313454b)"><path d="M719,125c1.35-6.78.56-12-2.55-14a6.38,6.38,0,0,0-3.74-1c-7.64.32-19.9,10.85-29.85,26.41-11.86,18.43-16.08,36.86-9.39,41.25,3.18,2.07,8.2.63,13.93-3.52" style="fill:none;stroke:#000;stroke-miterlimit:10;stroke-width:2.3907454013824463px"/><path d="M725.41,154.76c5.65-2.24,9.15-5.27,9.39-8.7.4-8.06-17-15.48-39-16.67-2-.08-4.06-.16-6-.16-19.19.08-34.15,5.34-34.55,12.6-.16,3.51,2.95,6.86,8.36,9.66" style="fill:none;stroke:#000;stroke-miterlimit:10;stroke-width:2.3907454013824463px"/><path d="M689.59,113.27c-3.9-3.27-7.57-5-10.51-4.79a6.08,6.08,0,0,0-2.15.56c-7.16,3.67-4.85,22.66,5.09,42.37s24,32.71,31.13,29c6.92-3.51,5-21.22-4-40" style="fill:none;stroke:#000;stroke-miterlimit:10;stroke-width:2.3907454013824463px"/><path d="M701.37,145.18A6.37,6.37,0,1,1,695,138.8a6.4,6.4,0,0,1,6.37,6.38"/></g></g></g></g><g style="clip-path:url(#eeb32e27-fe86-4a51-a32f-608553994a08)"><g style="clip-path:url(#75a02128-125a-46ab-85da-385035ea8165)"><g style="clip-path:url(#c5e18cbc-295d-4a6d-a194-62723da7a990)"><g style="clip-path:url(#2c77f874-f536-4a98-9120-95eacca431aa)"><path d="M236.7,248.93c.17-.35.17-.7.35-1.05,4.21-16.54-5.79-35.89-23-46.09C221.63,212,224.6,224.13,222,235a17.63,17.63,0,0,1-.88,2.82,15.65,15.65,0,0,1-1.4-.88,214.09,214.09,0,0,1-35.22-29,212.29,212.29,0,0,0,21.37,26.91c-5.43-3.17-20.85-14.25-30.49-23.22a40,40,0,0,0,4.21,5.81c8.06,10.37,18.58,23,31.19,32.71-8.93,5.46-21.38,5.8-34,0a50.23,50.23,0,0,1-8.76-5.28,51.79,51.79,0,0,0,23.31,19.88c11.74,5.1,23.66,4.75,32.24,0h.18a3.77,3.77,0,0,0,1.05-.7c4.21-2.11,12.45-4.4,17,4.4,1.23,2.46,3.51-9-5.08-19.53Z"/></g></g></g></g><g style="clip-path:url(#eeb32e27-fe86-4a51-a32f-608553994a08)"><g style="clip-path:url(#f0828738-c2f6-44fd-9ae9-84de819c1083)"><rect x="266.58" y="190.26" width="122.58" height="90.26" style="fill:#fff"/><rect x="389.16" y="190.26" width="122.58" height="90.26" style="fill:#fff"/><rect x="511.75" y="190.26" width="122.58" height="90.26" style="fill:#fff"/><rect x="634.33" y="190.26" width="122.58" height="90.26" style="fill:#fff"/><rect x="756.91" y="190.26" width="122.58" height="90.26" style="fill:#fff"/></g></g><g style="clip-path:url(#eeb32e27-fe86-4a51-a32f-608553994a08)"><g style="clip-path:url(#09ef82b2-bc86-4275-a424-7dc2391fa553)"><g style="clip-path:url(#2f95c291-004e-40cc-bd87-1e57515cc431)"><g style="clip-path:url(#2f95c291-004e-40cc-bd87-1e57515cc431)"><path d="M172,292.32h67v67H172Zm61.51,51c-.48-3.06-2.48-5.62-8.38-8-2.06-1-4.34-1.63-5-3.18a3.28,3.28,0,0,1-.12-2c.41-1.8,2.55-2.34,4.22-1.84a4.52,4.52,0,0,1,2.73,2.51c2.88-1.89,2.88-1.89,4.9-3.14a11.83,11.83,0,0,0-1.64-2.18c-1.76-2-4.1-3-7.91-2.88l-2,.24a9,9,0,0,0-4.77,2.81,8.74,8.74,0,0,0,1.59,12.48c3.81,2.85,9.38,3.47,10.09,6.16.67,3.26-2.43,4.31-5.49,3.93-2.26-.5-3.52-1.63-4.9-3.73l-5.1,2.94a11.35,11.35,0,0,0,2.25,3.1c4.86,4.9,17,4.65,19.19-2.81a9.48,9.48,0,0,0,.21-4.61Zm-25.08-20.22h-6.27c0,5.41,0,10.78,0,16.2,0,3.44.18,6.6-.38,7.57-.92,1.93-3.3,1.68-4.37,1.34a5.37,5.37,0,0,1-2.32-2.39c-.18-.29-.31-.54-.36-.54l-5.09,3.14a9.79,9.79,0,0,0,3.7,4.23,12.21,12.21,0,0,0,8.95,1.13,7.89,7.89,0,0,0,5.06-3.93c1.42-2.6,1.12-5.79,1.1-9.35,0-5.73,0-11.47,0-17.25Z"/></g></g></g></g><g style="clip-path:url(#eeb32e27-fe86-4a51-a32f-608553994a08)"><g style="clip-path:url(#f0828738-c2f6-44fd-9ae9-84de819c1083)"><rect x="266.58" y="280.53" width="122.58" height="90.26" style="fill:#fff"/><rect x="389.16" y="280.53" width="122.58" height="90.26" style="fill:#fff"/><rect x="511.75" y="280.53" width="122.58" height="90.26" style="fill:#fff"/><rect x="634.33" y="280.53" width="122.58" height="90.26" style="fill:#fff"/><rect x="756.91" y="280.53" width="122.58" height="90.26" style="fill:#fff"/></g></g><g style="clip-path:url(#eeb32e27-fe86-4a51-a32f-608553994a08)"><g style="clip-path:url(#dc6fac7d-bccc-4471-a943-148ccbf743d2)"><g style="clip-path:url(#b31612eb-8786-47ad-a65f-de6af30d5cf7)"><g style="clip-path:url(#b31612eb-8786-47ad-a65f-de6af30d5cf7)"><path d="M228.27,382.88c8.47,1.47,10.87,7.3,10.69,13.4l0-.09-3.81,50.25-49.54,3.41h0c-4.12-.17-13.28-.56-13.7-13.45l4.59-8.42,7.87,18.49,1.41,3.3,7.83-25.68h-.09l0-.08,25.83,8.3-3.89-15.25-2.77-11,24.63-1.59-1.72-1.44-17.68-14.5,10.22-5.73ZM172,436.26v0Zm14.32-39.36c9.94-9.93,22.77-15.79,27.7-10.79s-.29,17.15-10.25,27.07-22.62,16.1-27.54,11.11.12-17.46,10.08-27.39Z"/></g></g></g></g><g style="clip-path:url(#eeb32e27-fe86-4a51-a32f-608553994a08)"><g style="clip-path:url(#f0828738-c2f6-44fd-9ae9-84de819c1083)"><rect x="266.58" y="370.79" width="122.58" height="90.26" style="fill:#fff"/><rect x="389.16" y="370.79" width="122.58" height="90.26" style="fill:#fff"/><rect x="511.75" y="370.79" width="122.58" height="90.26" style="fill:#fff"/><rect x="634.33" y="370.79" width="122.58" height="90.26" style="fill:#fff"/><rect x="756.91" y="370.79" width="122.58" height="90.26" style="fill:#fff"/></g></g><g style="clip-path:url(#eeb32e27-fe86-4a51-a32f-608553994a08)"><g style="clip-path:url(#36e9c847-82e7-42c3-ad40-64c8a16e0905)"><g style="clip-path:url(#7db2485c-1e98-4def-8d36-4321704a282d)"><path d="M195.16,483.18l-.91-.61-.64-.95-.22-1.15.22-1.14.64-.92.91-.62,1.15-.25,1.13.25.92.62.64.92.22,1.14-.22,1.15-.64.95-.92.61-1.13.25Zm10.09-10.8-2.33.06-2.14.11-2,.17L197,473l-1.61.34-1.42.42-1.22.5-1.06.56-.86.64-.69.72-.48.79-.3.86-.14.95.06,1,0,7.68h16.22v2.32H182.89l-.17,0h-.44l-.67,0-.89.14-1,.28-1.11.44-1.17.68-1.16.92-1.11,1.22-1,1.6-.88,2-.67,2.43-.44,2.9L172,505.8l.14,3.43.39,2.93.58,2.46.78,2,.89,1.64,1,1.29,1,1,1,.73,1,.5.89.34.78.19.58.08h6.2v-8.54l.05-.59.11-.75.2-.89.28-1,.41-1,.56-1,.75-1,.91-.89,1.14-.75,1.39-.61,1.64-.4,1.92-.13h16.58l.58-.06.72-.11.84-.2.92-.28,1-.39,1-.53.92-.7.83-.86.73-1.06.58-1.29.36-1.53.14-1.76V481.2l0-.36-.05-.56-.11-.73-.28-.83-.44-.93-.7-1-.94-.94-1.25-.89-1.64-.84-2-.73-2.5-.56-3-.36Z"/><path d="M213.55,534l-.91-.64-.64-.92-.22-1.15.22-1.14.64-.92.91-.64,1.15-.23,1.14.23.91.64.64.92.22,1.14-.22,1.15-.64.92-.91.64-1.14.22Zm10.29-44.67v8.55l-.06.58-.11.79-.2.89-.28,1-.41,1-.56,1-.75,1-.91.9-1.14.78-1.39.58-1.64.39-1.92.14H198.25l-.36,0-.59.06-.72.11-.83.17-.91.28-1,.39-1,.56-.92.67-.83.89-.72,1.06-.59,1.28-.36,1.51-.13,1.79v14.91l0,.36.06.55.11.7.28.84.45.92.69.95.94,1,1.25.92,1.64.84,2,.7,2.5.56,3,.39,3.53.11,2.34,0,2.13-.11,2-.2,1.78-.25,1.62-.36L217,538l1.22-.48,1.06-.55.86-.67.69-.7.47-.81.31-.87.14-.94-.06-1,0-7.7H205.45V522h22.83l.44,0,.67-.06.89-.14,1-.25,1.11-.45,1.16-.67,1.17-.92,1.12-1.26,1-1.59.89-2,.67-2.4.44-2.91L239,506l-.14-3.43-.39-2.9-.58-2.46-.78-2-.89-1.65-1-1.31-1-1-1-.76-1-.5-.89-.34-.78-.16-.58-.09-.39,0Z"/></g></g></g><g style="clip-path:url(#eeb32e27-fe86-4a51-a32f-608553994a08)"><g style="clip-path:url(#f0828738-c2f6-44fd-9ae9-84de819c1083)"><rect x="266.58" y="461.06" width="122.58" height="90.26" style="fill:#fff"/><rect x="389.16" y="461.06" width="122.58" height="90.26" style="fill:#fff"/><rect x="511.75" y="461.06" width="122.58" height="90.26" style="fill:#fff"/><rect x="634.33" y="461.06" width="122.58" height="90.26" style="fill:#fff"/><rect x="756.91" y="461.06" width="122.58" height="90.26" style="fill:#fff"/><rect x="266.58" y="551.32" width="122.58" height="90.26" style="fill:#fff"/><rect x="389.16" y="551.32" width="122.58" height="90.26" style="fill:#fff"/><rect x="511.75" y="551.32" width="122.58" height="90.26" style="fill:#fff"/><rect x="634.33" y="551.32" width="122.58" height="90.26" style="fill:#fff"/><rect x="756.91" y="551.32" width="122.58" height="90.26" style="fill:#fff"/></g></g><g style="clip-path:url(#eeb32e27-fe86-4a51-a32f-608553994a08)"><g style="clip-path:url(#ab9bd594-59c8-4fcb-8528-285daacadf39)"><text transform="translate(809 153)" style="font-size:22px;font-family:HelveticaNeue-Bold, Helvetica Neue;font-weight:700">...</text></g></g><g style="clip-path:url(#eeb32e27-fe86-4a51-a32f-608553994a08)"><g style="clip-path:url(#48a50826-4028-44f9-9e1d-b93b646b846b)"><text transform="translate(196 605)" style="font-size:22px;font-family:HelveticaNeue-Bold, Helvetica Neue;font-weight:700">...</text></g></g><g style="clip-path:url(#eeb32e27-fe86-4a51-a32f-608553994a08)"><g style="clip-path:url(#f0828738-c2f6-44fd-9ae9-84de819c1083)"><line x1="389.16" y1="98.5" x2="389.16" y2="551.32" style="fill:none;stroke:#929292"/><line x1="389.16" y1="551.32" x2="389.16" y2="641.59" style="fill:none;stroke:#929292"/><line x1="511.75" y1="98.5" x2="511.75" y2="551.32" style="fill:none;stroke:#929292"/><line x1="511.75" y1="551.32" x2="511.75" y2="641.59" style="fill:none;stroke:#929292"/><line x1="634.33" y1="98.5" x2="634.33" y2="551.32" style="fill:none;stroke:#929292"/><line x1="634.33" y1="551.32" x2="634.33" y2="641.59" style="fill:none;stroke:#929292"/><line x1="756.91" y1="98.5" x2="756.91" y2="551.32" style="fill:none;stroke:#929292"/><line x1="756.91" y1="551.32" x2="756.91" y2="641.59" style="fill:none;stroke:#929292"/><line x1="142.5" y1="280.53" x2="266.58" y2="280.53" style="fill:none;stroke:#929292"/><line x1="266.58" y1="280.53" x2="879.49" y2="280.53" style="fill:none;stroke:#929292"/><line x1="142.5" y1="370.79" x2="266.58" y2="370.79" style="fill:none;stroke:#929292"/><line x1="266.58" y1="370.79" x2="879.49" y2="370.79" style="fill:none;stroke:#929292"/><line x1="142.5" y1="461.06" x2="266.58" y2="461.06" style="fill:none;stroke:#929292"/><line x1="266.58" y1="461.06" x2="879.49" y2="461.06" style="fill:none;stroke:#929292"/><line x1="142.5" y1="551.32" x2="879.49" y2="551.32" style="fill:none;stroke:#929292"/><line x1="266.58" y1="98.5" x2="266.58" y2="190.26" style="fill:none;stroke:#000;stroke-width:3px"/><line x1="266.58" y1="190.26" x2="266.58" y2="551.32" style="fill:none;stroke:#000;stroke-width:3px"/><line x1="266.58" y1="551.32" x2="266.58" y2="641.59" style="fill:none;stroke:#000;stroke-width:3px"/><line x1="142.5" y1="190.26" x2="266.58" y2="190.26" style="fill:none;stroke:#000;stroke-width:3px"/><line x1="266.58" y1="190.26" x2="879.49" y2="190.26" style="fill:none;stroke:#000;stroke-width:3px"/><line x1="144" y1="188.76" x2="144" y2="641.59" style="fill:none;stroke:#000;stroke-width:3px"/><line x1="265.08" y1="100" x2="879.49" y2="100" style="fill:none;stroke:#000;stroke-width:3px"/></g></g><path d="M488.29,71H477.56V54.09h10.73v2.26h-8.11V61.3h7.68v2.18h-7.68v5.25h8.11Z"/><path d="M490.13,64.84c0-3.89,2.07-6.37,5.16-6.37a4.21,4.21,0,0,1,3.87,2.25h0V54.09h2.55V71h-2.46V68.9h-.05a4.27,4.27,0,0,1-3.93,2.31C492.2,71.21,490.13,68.73,490.13,64.84Zm2.59,0c0,2.6,1.26,4.23,3.26,4.23s3.25-1.66,3.25-4.23-1.3-4.23-3.25-4.23S492.72,62.25,492.72,64.84Z"/><path d="M504.22,55.43a1.47,1.47,0,1,1,1.46,1.44A1.46,1.46,0,0,1,504.22,55.43Zm.2,3.24H507V71h-2.53Z"/><path d="M512.82,55.75v2.92h2.34v2h-2.34v6.79c0,1.07.47,1.55,1.5,1.55a4.87,4.87,0,0,0,.83-.06v2a6.24,6.24,0,0,1-1.4.12c-2.5,0-3.47-1-3.47-3.33V60.68h-1.8v-2h1.8V55.75Z"/><path d="M516.4,64.84c0-4,2.33-6.39,5.85-6.39s5.84,2.43,5.84,6.39-2.32,6.39-5.84,6.39S516.4,68.81,516.4,64.84Zm9.12,0c0-2.73-1.29-4.3-3.27-4.3S519,62.11,519,64.84s1.29,4.31,3.27,4.31S525.52,67.58,525.52,64.84Z"/><path d="M530.05,58.67h2.42v2.1h0a3,3,0,0,1,3-2.3,4.25,4.25,0,0,1,.87.1v2.35a3.73,3.73,0,0,0-1.14-.14,2.55,2.55,0,0,0-2.64,2.84V71h-2.53Z"/><path d="M542.53,58.45c2.74,0,4.67,1.53,4.75,3.73H544.9c-.12-1.12-1-1.81-2.44-1.81s-2.28.67-2.28,1.64c0,.76.61,1.28,1.88,1.6l2.08.48c2.48.59,3.42,1.53,3.42,3.35,0,2.25-2.1,3.79-5.12,3.79s-4.85-1.51-5.05-3.77h2.51c.19,1.18,1.11,1.84,2.66,1.84s2.46-.63,2.46-1.63c0-.78-.47-1.22-1.76-1.55l-2.2-.53c-2.23-.54-3.36-1.7-3.36-3.43C537.7,60,539.65,58.45,542.53,58.45Z"/><path d="M107,429.94v10.5H90.09v-2.62h14.64v-7.88Z"/><path d="M103.5,428.49c-2.16,0-3.48-1.65-3.65-4.58l-.2-3.38h-1c-1.37,0-2.19.93-2.19,2.47a2.37,2.37,0,0,0,1.81,2.61V428c-2.23-.14-3.87-2-3.87-5.09s1.58-4.9,4-4.9H107v2.43h-2v.06a4.4,4.4,0,0,1,2.24,3.89C107.21,426.8,105.71,428.49,103.5,428.49Zm-1.12-8h-1l.19,3c.1,1.51.77,2.36,1.83,2.36s1.78-.89,1.78-2.25A3,3,0,0,0,102.38,420.53Z"/><path d="M94.67,415.56v-2.41h2.06v-.06a4,4,0,0,1-2.27-3.88c0-2.72,1.74-4.28,4.56-4.28h8v2.55H99.51c-1.85,0-2.87.86-2.87,2.62A2.88,2.88,0,0,0,99.82,413H107v2.53Z"/><path d="M108,402.6v-2.54a2.93,2.93,0,0,0,1.71-2.93c0-2-1.12-3.15-2.81-3.15h-2v0a4.29,4.29,0,0,1,2.22,3.91c0,3.09-2.42,5.12-6.26,5.12s-6.32-2-6.32-5.18a4.31,4.31,0,0,1,2.31-3.93v-.05H94.67v-2.46h12.11c2.94,0,4.86,2.28,4.86,5.79C111.64,400.13,110.09,402.29,108,402.6ZM100.8,394c-2.53,0-4.19,1.31-4.19,3.29s1.62,3.21,4.19,3.21,4.15-1.27,4.15-3.21S103.34,394,100.8,394Z"/><path d="M107,378.37v2.42h-2.09v.06a3.87,3.87,0,0,1,2.31,3.82c0,2.69-1.74,4.33-4.57,4.33h-8v-2.54h7.49c1.88,0,2.88-.89,2.88-2.63s-1.26-2.93-3.18-2.93H94.67v-2.53Z"/><path d="M103.5,376.36c-2.16,0-3.48-1.65-3.65-4.58l-.2-3.37h-1c-1.37,0-2.19.92-2.19,2.47a2.36,2.36,0,0,0,1.81,2.6v2.39c-2.23-.14-3.87-2-3.87-5.08s1.58-4.9,4-4.9H107v2.42h-2v.06a4.41,4.41,0,0,1,2.24,3.89C107.21,374.68,105.71,376.36,103.5,376.36Zm-1.12-7.95h-1l.19,3c.1,1.51.77,2.37,1.83,2.37s1.78-.89,1.78-2.25A3,3,0,0,0,102.38,368.41Z"/><path d="M108,363.54V361a2.93,2.93,0,0,0,1.71-2.93c0-2-1.12-3.15-2.81-3.15h-2v0a4.3,4.3,0,0,1,2.22,3.91c0,3.09-2.42,5.12-6.26,5.12s-6.32-2-6.32-5.18a4.31,4.31,0,0,1,2.31-3.93v0H94.67v-2.46h12.11c2.94,0,4.86,2.27,4.86,5.78C111.64,361.07,110.09,363.23,108,363.54Zm-7.16-8.63c-2.53,0-4.19,1.3-4.19,3.28s1.62,3.21,4.19,3.21,4.15-1.27,4.15-3.21S103.34,354.91,100.8,354.91Z"/><path d="M103.38,339.31c2.25.35,3.85,2.48,3.85,5.31,0,3.62-2.44,5.81-6.34,5.81s-6.44-2.23-6.44-5.71,2.41-5.55,6.15-5.55h.87v8.71h.15a3.23,3.23,0,0,0,3.56-3.32,2.79,2.79,0,0,0-1.8-2.85Zm-3.68,8.55V341.7a3,3,0,0,0-3.21,3A3.18,3.18,0,0,0,99.7,347.86Z"/><path d="M94.45,332.61c0-2.75,1.53-4.67,3.73-4.75v2.38c-1.12.12-1.81,1-1.81,2.44S97,335,98,335c.76,0,1.28-.61,1.6-1.89l.48-2.07c.59-2.48,1.53-3.42,3.35-3.42,2.25,0,3.79,2.1,3.79,5.12s-1.51,4.85-3.77,5.05v-2.51c1.18-.2,1.84-1.11,1.84-2.66s-.63-2.46-1.63-2.46c-.78,0-1.22.47-1.55,1.76l-.53,2.2c-.54,2.23-1.7,3.35-3.43,3.35C96,337.43,94.45,335.49,94.45,332.61Z"/></svg>