<svg data-name="Layer 1" xmlns="http://www.w3.org/2000/svg" viewBox="0 0 1024 768" width="1024" height="768"><defs><clipPath id="a"><path fill="none" d="M862.14 549.95h103.02v94H862.14z"/></clipPath><clipPath id="b"><path fill="none" d="M863.65 263.9h100v102.4h-100z"/></clipPath><clipPath id="c"><path fill="none" d="M871.73 414.11h83.83v83.83h-83.83z"/></clipPath><clipPath id="d"><path fill="none" d="M859.05 122.97h109.19v102.4H859.05z"/></clipPath><clipPath id="e"><path fill="none" d="M859.05 122.98h109.19v102.4H859.05z"/></clipPath><clipPath id="f"><path fill="none" d="M75.91 558.89h83.83v83.41H75.91z"/></clipPath><clipPath id="g"><path fill="none" d="M76.12 272.89h83.41v83.41H76.12z"/></clipPath><clipPath id="h"><path fill="none" d="M75.86 415.89h83.93v83.41H75.86z"/></clipPath><clipPath id="i"><path fill="none" d="M70.97 129.89h93.72v83.42H70.97z"/></clipPath><clipPath id="j"><path fill="none" d="M70.97 129.89h93.72v83.41H70.97z"/></clipPath><clipPath id="k"><path fill="none" d="M348.53 341.33h326.94v85.34H348.53z"/></clipPath><clipPath id="l"><path fill="none" d="M186.64 186.15h34.98v399.9h-34.98z"/></clipPath><clipPath id="m"><path fill="none" d="M186.64 290.83h34.98v158.54h-34.98z"/></clipPath><clipPath id="n"><path fill="none" d="M802.39 186.15h34.98v399.9h-34.98z"/></clipPath><clipPath id="o"><path fill="none" d="M802.39 290.83h34.98v158.54h-34.98z"/></clipPath></defs><g clip-path="url(#a)"><path d="M943.85 572.18c1.7-8.5.7-15-3.2-17.5a8.05 8.05 0 0 0-4.7-1.2c-9.6.4-25 13.6-37.5 33.1-14.9 23.1-20.2 46.2-11.8 51.7 4 2.6 10.3.8 17.5-4.4" fill="none" stroke="#000" stroke-miterlimit="10" stroke-width="3"/><path d="M951.85 609.48c7.1-2.8 11.5-6.6 11.8-10.9.5-10.1-21.4-19.4-49-20.9-2.5-.1-5.1-.2-7.6-.2-24.1.1-42.9 6.7-43.4 15.8-.2 4.4 3.7 8.6 10.5 12.1" fill="none" stroke="#000" stroke-miterlimit="10" stroke-width="3"/><path d="M906.85 557.48c-4.9-4.1-9.5-6.3-13.2-6a7.67 7.67 0 0 0-2.7.7c-9 4.6-6.1 28.4 6.4 53.1s30.1 41 39.1 36.4c8.7-4.4 6.3-26.6-5-50.2" fill="none" stroke="#000" stroke-miterlimit="10" stroke-width="3"/><path d="M921.65 597.48a8 8 0 1 1-8-8 8 8 0 0 1 8 8"/></g><g clip-path="url(#b)"><path d="M875.45 304.4l11.9 10.6-11.9 10.8zm38.1 10.7l23.8-17.8V333zm26.3-51.2l-41.7 40.5-25-19.1-9.5 4.8v50l9.5 4.7 25-19 41.7 40.5 23.8-9.5v-83.3z"/></g><g clip-path="url(#c)"><path d="M955.57 456h-.1l-15.08-15.09 15-15.41v-6.27l-2.24-2.23h-28.63l-2.31 2.11v3.65l-8.51-8.51v-.09l-.05.05v-.05.09l-4.51 4.51-1.87-1.88h-28.43l-2.23 2.42v6.58l2.16 2.15h2.51v18.55l-9.45 9.42h-.1v.05h.1l9.45 9.45v22.59l3.17 1.82h8.11l6.48-6.65 14.55 14.55v.1l.06-.05.05.05v-.1l8.77-8.76h1.69a.92.92 0 0 0 .87-.62l.51-1.49a.92.92 0 0 0-.12-.84l5.1-5.1-2.14 6.85A.93.93 0 0 0 929 489a.84.84 0 0 0 .27 0h6.37a.9.9 0 0 0 .85-.57l.58-1.37a1 1 0 0 0 0-.71.91.91 0 0 0-.52-.5.84.84 0 0 0-.33-.07h-.27l2.94-9.23h4.3l-3.54 11.25a.92.92 0 0 0 .61 1.16 1.18 1.18 0 0 0 .28 0h7a.94.94 0 0 0 .87-.6L949 487a.93.93 0 0 0-.55-1.19 1 1 0 0 0-.32-.06h-.51l3.95-12.83a.9.9 0 0 0-.14-.84l-1.31-1.76a.92.92 0 0 0-.73-.35h-5a.93.93 0 0 0-.67.28l-1.39 1.53h-2.18l-.15-.16 15.53-15.52h.1-.05zm-49.47 32l5.51-15.75h-1.75l1-1.06h5.8l-5.46 15.91h2.17l-.27.9zm12.9-26.3l.52.52-.94 3.22-.79.79h-3.38l-.63-.63 1.08-3 1-.86zm-27.75 25.17h-6l-.92-.53v-61.43H880l-.35-.35v-4.11l.5-.54h25.75l.74.75v3.87l-.49.6h-3.77v30.35l30.76-30.35h-7.29l-.6-.65v-4.06l.42-.39h26.16l.46.46v3.74l-35.26 36.16h-1.52a.84.84 0 0 0-.42.21l-1.19 1a1 1 0 0 0-.26.39l-1 2.89zm51.59-13.81l1.65-1.81h4.66l1.08 1.45-4.41 14.3h1.72l-.28.73H941l4-12.4h-7l-3.76 11.84h1.48l-.26.61h-5.6l3.86-12.4h-7.31l-3.71 11.67h1.52l-.25.73h-5.81l5.3-15.58h-2l.32-.95h5.76l1.81 1.88h3.17l1.71-1.94h3.71l1.71 1.87z"/></g><g clip-path="url(#e)"><path d="M950.56 141.09c1.83-.91 2.74-1.83 4.12-1.83a4.55 4.55 0 0 1 4.11 2.29c.92 1.37 4.12 2.29 5.49 2.29.92 0 2.29-3.21 3.21-6s.91-5.95.45-6.41-4.11-1.37-5-1.37a4.36 4.36 0 0 1-3.2.92c-1.83 0-3.66-1.38-5-2.75-2.29-2.29-5-3.2-7.78-4.12a28.32 28.32 0 0 0-8.69-.91 30.5 30.5 0 0 0-12.82.91 22.65 22.65 0 0 0-5 1.83 4.82 4.82 0 0 1-2.29.92c-.45.46-.45.91 0 .91a20.06 20.06 0 0 0 2.29-.45s-2.29.91-2.29 1.83a.45.45 0 0 0 .46.45 9.41 9.41 0 0 1 2.29-.45c1.83 0 4.57-.92 6.86-.92a11.21 11.21 0 0 1 8.24 3.66c4.12 5 3.66 11.44 3.66 12.81-.92 9.61-22.42 68.17-23.34 72.29s-.91 6.41 4.12 7.78 6.86 0 7.78-1.83c.46-3.21 14.18-75.49 22.42-81.9"/><path d="M932.71 136.52L859.06 148 871 224.36l39.3-6.36c-.46-3.2 10.06-30.65 11.89-35.69l-20.13 3.2 2.75-8.23L919 175l3.66 4.57a14.13 14.13 0 0 0 .91-3.2l-19.67-24.25a2.91 2.91 0 0 1 .46-4.12l.91-.91c1.38-.92 3.21-.92 4.12.46l17.39 20.13c3.65-11 6.86-20.59 6.86-23.79.46-.92.46-4.12-.92-7.32m-54.9 45.29l12.36-2.29-3.18 8.19-8.23 1.37zm26.54-23.33l1.37.46c1.83.45 2.29 2.28 1.83 4.11l-13.72 36.6-8.24 11 .92-13.72 13.72-36.6c.46-1.83 2.29-2.29 4.12-1.83m49.41-12.81c-1.83 1.83-4.12 7.78-8.69 25.16h.46l1.37 7.33-3.66.45a58.27 58.27 0 0 1-1.83 7.32c7.78 4.12 3.66 14.18 3.2 14.18s-.46 0-.46-.46.46-1.83-.91-2.28a28.26 28.26 0 0 1-4.12-1.83c-1.37 5.49-2.74 11.89-4.12 18.75l28.83-4.57-9.61-64.51z"/></g><text transform="translate(878 79)" font-size="24" font-family="SFProDisplay-Medium, SF Pro Display">Edi<tspan x="32.29" y="0" letter-spacing="-.012em">t</tspan><tspan x="39.7" y="0">ors</tspan></text><g clip-path="url(#f)"><path d="M104.89 572.34l-1.14-.76-.8-1.19-.28-1.42.28-1.43.8-1.14 1.14-.77 1.43-.31 1.42.31 1.15.77.8 1.14.31 1.46-.28 1.42-.8 1.19-1.15.76-1.42.31zm12.62-13.45l-2.92.07-2.67.14-2.47.21-2.23.35-2 .41-1.77.53-1.53.62-1.32.69-1.08.81-.87.9-.59 1-.38 1.08-.18 1.18.07 1.29v9.56h20.29v2.88H87.93l-1.11.17-1.25.35-1.39.56-1.46.83-1.46 1.15-1.39 1.53-1.25 2-1.11 2.47-.83 3-.56 3.62-.21 4.24.17 4.27.49 3.65.73 3.06 1 2.54 1.11 2 1.22 1.6 1.25 1.25 1.25.91 1.22.62 1.11.42 1 .25.73.1h7.76v-10.62l.06-.74.14-.94.25-1.1.34-1.22.53-1.29.63-1.29.94-1.22 1.16-1.07 1.42-.94 1.74-.76 2-.49 2.4-.17h20.75l.73-.07.9-.14 1-.25 1.15-.34 1.22-.49 1.21-.66 1.15-.87 1-1.08.91-1.32.73-1.6.45-1.9.17-2.19v-19.02l-.06-.69-.14-.91-.35-1-.55-1.15-.87-1.18-1.19-1.18-1.56-1.11-2.05-1-2.54-.91-3.13-.69-3.71-.46z"/><path d="M127.9 635.6l-1.14-.8-.8-1.15-.28-1.43.28-1.42.8-1.14 1.14-.8 1.43-.28 1.43.28 1.14.8.8 1.14.28 1.42-.28 1.43-.8 1.15-1.14.8-1.43.28zm12.87-55.6v10.63l-.08.73-.14 1-.24 1.11-.35 1.22-.52 1.25-.69 1.25-.94 1.21-1.15 1.12-1.42 1-1.74.73-2.05.49-2.4.17H108.3l-.73.07-.9.13-1 .21-1.14.35-1.22.49-1.21.69-1.15.84-1 1.11-.95 1.3-.73 1.6-.45 1.87-.17 2.23V631.81l.07.69.14.87.35 1 .56 1.14.86 1.19 1.18 1.18 1.57 1.14 2 1 2.53.87 3.13.69 3.72.49 4.42.14h2.92l2.67-.14 2.47-.24 2.23-.31 2-.45 1.77-.53 1.53-.59 1.32-.7 1.08-.83.87-.86.59-1 .38-1.08.18-1.18-.07-1.26v-9.59h-20.36v-2.85H146.88l.84-.07 1.11-.17 1.25-.32 1.39-.56 1.46-.83 1.46-1.14 1.39-1.57 1.25-2 1.11-2.47.84-3 .55-3.61.21-4.28-.17-4.27-.49-3.62-.73-3-1-2.54-1.11-2.06-1.22-1.63-1.25-1.21-1.26-.94-1.21-.63-1.11-.41-1-.21-.73-.11h-.48z"/></g><g clip-path="url(#g)"><path d="M76.12 272.89h83.41v83.42H76.12zm76.58 63.52c-.61-3.8-3.08-7-10.44-10-2.56-1.2-5.4-2-6.24-4a4 4 0 0 1-.16-2.45c.52-2.24 3.18-2.92 5.26-2.29a5.63 5.63 0 0 1 3.39 3.13c3.6-2.35 3.6-2.35 6.1-3.91a14.47 14.47 0 0 0-2-2.71c-2.19-2.45-5.11-3.71-9.85-3.6l-2.45.31a11.33 11.33 0 0 0-5.95 3.49c-4 4.49-2.82 12.31 2 15.54 4.74 3.55 11.68 4.33 12.57 7.67.84 4.06-3 5.37-6.83 4.9-2.82-.62-4.38-2-6.1-4.64l-6.36 3.65a14.06 14.06 0 0 0 2.81 3.86c6 6.1 21.17 5.79 23.88-3.49a11.61 11.61 0 0 0 .26-5.74zm-31.22-25.18h-7.82v20.18c0 4.28.22 8.21-.48 9.42-1.14 2.4-4.1 2.09-5.44 1.67a6.7 6.7 0 0 1-2.89-3 2.7 2.7 0 0 0-.44-.69L98 342.75a12.29 12.29 0 0 0 4.6 5.28 15.36 15.36 0 0 0 11.15 1.41 9.81 9.81 0 0 0 6.3-4.91c1.77-3.23 1.39-7.19 1.37-11.63v-21.47z"/></g><g clip-path="url(#h)"><path d="M146.35 415.93C157 417.76 160 425 159.74 432.61v-.11L155 495.05l-62 4.26c-5.16-.22-16.64-.7-17.16-16.75l5.75-10.49 9.86 23 1.76 4.11 9.81-32h-.11l.06-.1 32.36 10.33-4.88-19-3.45-13.56 30.84-2-2.15-1.78L133.56 423l12.8-7.14zm-70.49 66.46zm17.94-49c12.45-12.39 28.52-19.67 34.7-13.39s-.37 21.35-12.85 33.7-28.33 20-34.49 13.83.15-21.74 12.63-34.09z"/></g><g clip-path="url(#j)"><path d="M156.81 188.58c.22-.44.22-.88.43-1.32 5.26-20.58-7.22-44.67-28.68-57.37 9.42 12.7 13.14 27.81 9.85 41.39a21.36 21.36 0 0 1-1.09 3.5 19.84 19.84 0 0 1-1.76-1.09 267.82 267.82 0 0 1-44-36.13c-.66-.66 12.27 18.39 26.72 33.5-6.79-3.94-26.06-17.74-38.11-28.91a50.74 50.74 0 0 0 5.26 7.23c10.07 12.92 23.21 28.69 39 40.73-11.17 6.8-26.72 7.22-42.48 0a62.42 62.42 0 0 1-11-6.57 64.63 64.63 0 0 0 29.12 24.74c14.67 6.36 29.56 5.92 40.29 0h.23a4.45 4.45 0 0 0 1.31-.87c5.25-2.63 15.55-5.48 21.24 5.48 1.53 3.06 4.38-11.17-6.35-24.31z"/></g><text transform="translate(60 79)" font-size="24" font-family="SFProDisplay-Medium, SF Pro Display">Languages</text><path fill="none" stroke="#000" stroke-width="5" d="M349.29 338.33h325.42v91.34H349.29z"/><g clip-path="url(#k)"><text transform="translate(368 393)" font-size="26" font-family="SFProDisplay-Medium, SF Pro Display">Language Ser<tspan x="155.48" y="0" letter-spacing="-.014em">v</tspan><tspan x="168.09" y="0">er P</tspan><tspan x="211" y="0" letter-spacing="-.021em">r</tspan><tspan x="218.99" y="0">o</tspan><tspan x="233.18" y="0" letter-spacing="-.012em">t</tspan><tspan x="241.21" y="0">ocol</tspan></text></g><path fill="none" stroke="#000" stroke-width="3" d="M219.82 386.1h97.49"/><path d="M315.81 392.7l13.2-6.6-13.2-6.6v13.2z"/><g clip-path="url(#l)"><path fill="none" stroke="#000" stroke-width="3" d="M187.98 188.65h31.13v394.9h-31.47"/></g><g clip-path="url(#m)"><path fill="none" stroke="#000" stroke-width="3" d="M187.98 293.33h31.13v153.54h-31.47"/></g><path fill="none" stroke="#000" stroke-width="3" d="M804.17 386.1h-97.49"/><path d="M708.18 379.5l-13.19 6.6 13.19 6.6v-13.2z"/><g clip-path="url(#n)"><path fill="none" stroke="#000" stroke-width="3" d="M836.02 188.65h-31.13v394.9h31.47"/></g><g clip-path="url(#o)"><path fill="none" stroke="#000" stroke-width="3" d="M836.02 293.33h-31.13v153.54h31.47"/></g></svg>