<svg xmlns="http://www.w3.org/2000/svg" viewBox="0 0 1024 768" width="1024" height="768">
    <defs>
        <clipPath id="a">
            <path fill="none" d="M75.91 558.89h83.83v83.41H75.91z"/>
        </clipPath>
        <clipPath id="b">
            <path fill="none" d="M76.12 272.89h83.41v83.41H76.12z"/>
        </clipPath>
        <clipPath id="c">
            <path fill="none" d="M75.86 415.89h83.93v83.41H75.86z"/>
        </clipPath>
        <clipPath id="d">
            <path fill="none" d="M70.97 129.89h93.72v83.42H70.97z"/>
        </clipPath>
        <clipPath id="e">
            <path fill="none" d="M70.97 129.89h93.72v83.41H70.97z"/>
        </clipPath>
        <clipPath id="f">
            <path fill="none" d="M348.53 341.33h326.94v85.34H348.53z"/>
        </clipPath>
        <clipPath id="g">
            <path fill="none" d="M186.64 186.15h34.98v399.9h-34.98z"/>
        </clipPath>
        <clipPath id="h">
            <path fill="none" d="M186.64 290.83h34.98v158.54h-34.98z"/>
        </clipPath>
        <clipPath id="i">
            <path fill="none" d="M802.39 186.15h34.98v399.9h-34.98z"/>
        </clipPath>
        <clipPath id="j">
            <path fill="none" d="M802.39 287.47h34.98v197.26h-34.98z"/>
        </clipPath>
    </defs>
    <path d="M868.75 79V64.35h-5.18v-2.26h13v2.26h-5.17V79zM874.83 75.5c0-2.16 1.66-3.48 4.59-3.65l3.37-.2v-1c0-1.37-.92-2.19-2.47-2.19a2.35 2.35 0 0 0-2.6 1.81h-2.39c.14-2.23 2-3.87 5.08-3.87s4.9 1.58 4.9 4V79h-2.42v-2h-.06a4.42 4.42 0 0 1-3.89 2.24c-2.42-.03-4.11-1.53-4.11-3.74zm8-1.12v-1l-3 .19c-1.51.1-2.37.77-2.37 1.83s.89 1.78 2.25 1.78a3 3 0 0 0 3.08-2.8zM887.76 66.67h2.41v2.1h.06a3 3 0 0 1 3-2.3 4.25 4.25 0 0 1 .87.1v2.35a3.73 3.73 0 0 0-1.14-.14 2.55 2.55 0 0 0-2.64 2.84V79h-2.53zM895 80h2.54a2.94 2.94 0 0 0 2.93 1.71c2 0 3.16-1.12 3.16-2.81v-2a4.27 4.27 0 0 1-3.9 2.22c-3.1 0-5.12-2.42-5.12-6.26s2-6.32 5.18-6.32a4.3 4.3 0 0 1 3.92 2.31h.05v-2.18h2.46v12.11c0 2.94-2.27 4.86-5.79 4.86-2.96 0-5.11-1.55-5.43-3.64zm8.64-7.16c0-2.53-1.3-4.19-3.28-4.19s-3.21 1.62-3.21 4.19 1.26 4.16 3.21 4.16 3.28-1.66 3.28-4.2zM919.24 75.38c-.36 2.25-2.49 3.85-5.31 3.85-3.62 0-5.81-2.44-5.81-6.34s2.22-6.44 5.7-6.44 5.56 2.41 5.56 6.15v.87h-8.71v.15a3.23 3.23 0 0 0 3.33 3.56 2.78 2.78 0 0 0 2.84-1.8zm-8.56-3.68h6.17a3 3 0 0 0-3-3.21 3.18 3.18 0 0 0-3.17 3.21zM924.62 63.75v2.92H927v2h-2.34v6.79c0 1.07.46 1.55 1.5 1.55A5 5 0 0 0 927 77v2a6.34 6.34 0 0 1-1.41.12c-2.5 0-3.47-1-3.47-3.33v-7.11h-1.79v-2h1.79v-2.93zM933.64 66.45c2.74 0 4.66 1.53 4.74 3.73H936c-.12-1.12-1-1.81-2.44-1.81s-2.29.67-2.29 1.64c0 .76.61 1.28 1.89 1.6l2.07.48c2.49.59 3.43 1.53 3.43 3.35 0 2.25-2.1 3.79-5.13 3.79s-4.85-1.51-5-3.77H931c.2 1.18 1.12 1.84 2.66 1.84s2.46-.63 2.46-1.63c0-.78-.47-1.22-1.75-1.55l-2.21-.53c-2.22-.54-3.35-1.7-3.35-3.43 0-2.16 1.95-3.71 4.83-3.71z"/>
    <g clip-path="url(#a)">
        <path d="M104.89 572.34l-1.14-.76-.8-1.19-.28-1.42.28-1.43.8-1.14 1.14-.77 1.43-.31 1.42.31 1.15.77.8 1.14.31 1.46-.28 1.42-.8 1.19-1.15.76-1.42.31zm12.62-13.45l-2.92.07-2.67.14-2.47.21-2.23.35-2 .41-1.77.53-1.53.62-1.32.69-1.08.81-.87.9-.59 1-.38 1.08-.18 1.18.07 1.29v9.56h20.29v2.88H87.93l-1.11.17-1.25.35-1.39.56-1.46.83-1.46 1.15-1.39 1.53-1.25 2-1.11 2.47-.83 3-.56 3.62-.21 4.24.17 4.27.49 3.65.73 3.06 1 2.54 1.11 2 1.22 1.6 1.25 1.25 1.25.91 1.22.62 1.11.42 1 .25.73.1h7.76v-10.62l.06-.74.14-.94.25-1.1.34-1.22.53-1.29.63-1.29.94-1.22 1.16-1.07 1.42-.94 1.74-.76 2-.49 2.4-.17h20.75l.73-.07.9-.14 1-.25 1.15-.34 1.22-.49 1.21-.66 1.15-.87 1-1.08.91-1.32.73-1.6.45-1.9.17-2.19v-19.02l-.06-.69-.14-.91-.35-1-.55-1.15-.87-1.18-1.19-1.18-1.56-1.11-2.05-1-2.54-.91-3.13-.69-3.71-.46z"/>
        <path d="M127.9 635.6l-1.14-.8-.8-1.15-.28-1.43.28-1.42.8-1.14 1.14-.8 1.43-.28 1.43.28 1.14.8.8 1.14.28 1.42-.28 1.43-.8 1.15-1.14.8-1.43.28zm12.87-55.6v10.63l-.08.73-.14 1-.24 1.11-.35 1.22-.52 1.25-.69 1.25-.94 1.21-1.15 1.12-1.42 1-1.74.73-2.05.49-2.4.17H108.3l-.73.07-.9.13-1 .21-1.14.35-1.22.49-1.21.69-1.15.84-1 1.11-.95 1.3-.73 1.6-.45 1.87-.17 2.23V631.81l.07.69.14.87.35 1 .56 1.14.86 1.19 1.18 1.18 1.57 1.14 2 1 2.53.87 3.13.69 3.72.49 4.42.14h2.92l2.67-.14 2.47-.24 2.23-.31 2-.45 1.77-.53 1.53-.59 1.32-.7 1.08-.83.87-.86.59-1 .38-1.08.18-1.18-.07-1.26v-9.59h-20.36v-2.85H146.88l.84-.07 1.11-.17 1.25-.32 1.39-.56 1.46-.83 1.46-1.14 1.39-1.57 1.25-2 1.11-2.47.84-3 .55-3.61.21-4.28-.17-4.27-.49-3.62-.73-3-1-2.54-1.11-2.06-1.22-1.63-1.25-1.21-1.26-.94-1.21-.63-1.11-.41-1-.21-.73-.11h-.48z"/>
    </g>
    <g clip-path="url(#b)">
        <path d="M76.12 272.89h83.41v83.42H76.12zm76.58 63.52c-.61-3.8-3.08-7-10.44-10-2.56-1.2-5.4-2-6.24-4a4 4 0 0 1-.16-2.45c.52-2.24 3.18-2.92 5.26-2.29a5.63 5.63 0 0 1 3.39 3.13c3.6-2.35 3.6-2.35 6.1-3.91a14.47 14.47 0 0 0-2-2.71c-2.19-2.45-5.11-3.71-9.85-3.6l-2.45.31a11.33 11.33 0 0 0-5.95 3.49c-4 4.49-2.82 12.31 2 15.54 4.74 3.55 11.68 4.33 12.57 7.67.84 4.06-3 5.37-6.83 4.9-2.82-.62-4.38-2-6.1-4.64l-6.36 3.65a14.06 14.06 0 0 0 2.81 3.86c6 6.1 21.17 5.79 23.88-3.49a11.61 11.61 0 0 0 .26-5.74zm-31.22-25.18h-7.82v20.18c0 4.28.22 8.21-.48 9.42-1.14 2.4-4.1 2.09-5.44 1.67a6.7 6.7 0 0 1-2.89-3 2.7 2.7 0 0 0-.44-.69L98 342.75a12.29 12.29 0 0 0 4.6 5.28 15.36 15.36 0 0 0 11.15 1.41 9.81 9.81 0 0 0 6.3-4.91c1.77-3.23 1.39-7.19 1.37-11.63v-21.47z"/>
    </g>
    <g clip-path="url(#c)">
        <path d="M146.35 415.93C157 417.76 160 425 159.74 432.61v-.11L155 495.05l-62 4.26c-5.16-.22-16.64-.7-17.16-16.75l5.75-10.49 9.86 23 1.76 4.11 9.81-32h-.11l.06-.1 32.36 10.33-4.88-19-3.45-13.56 30.84-2-2.15-1.78L133.56 423l12.8-7.14zm-70.49 66.46zm17.94-49c12.45-12.39 28.52-19.67 34.7-13.39s-.37 21.35-12.85 33.7-28.33 20-34.49 13.83.15-21.74 12.63-34.09z"/>
    </g>
    <g clip-path="url(#e)">
        <path d="M156.81 188.58c.22-.44.22-.88.43-1.32 5.26-20.58-7.22-44.67-28.68-57.37 9.42 12.7 13.14 27.81 9.85 41.39a21.36 21.36 0 0 1-1.09 3.5 19.84 19.84 0 0 1-1.76-1.09 267.82 267.82 0 0 1-44-36.13c-.66-.66 12.27 18.39 26.72 33.5-6.79-3.94-26.06-17.74-38.11-28.91a50.74 50.74 0 0 0 5.26 7.23c10.07 12.92 23.21 28.69 39 40.73-11.17 6.8-26.72 7.22-42.48 0a62.42 62.42 0 0 1-11-6.57 64.63 64.63 0 0 0 29.12 24.74c14.67 6.36 29.56 5.92 40.29 0h.23a4.45 4.45 0 0 0 1.31-.87c5.25-2.63 15.55-5.48 21.24 5.48 1.53 3.06 4.38-11.17-6.35-24.31z"/>
    </g>
    <path d="M72.06 79h-10.5V62.09h2.62v14.64h7.88zM73.51 75.5c0-2.16 1.65-3.48 4.58-3.65l3.38-.2v-1c0-1.37-.93-2.19-2.47-2.19a2.37 2.37 0 0 0-2.61 1.81H74c.14-2.23 2-3.87 5.09-3.87S84 68 84 70.5V79h-2.44v-2h-.06a4.4 4.4 0 0 1-3.89 2.24c-2.41-.03-4.1-1.53-4.1-3.74zm8-1.12v-1l-3 .19c-1.51.1-2.36.77-2.36 1.83s.89 1.78 2.25 1.78a3 3 0 0 0 3.07-2.8zM86.44 66.67h2.41v2.06h.06a4 4 0 0 1 3.88-2.27c2.72 0 4.28 1.74 4.28 4.56v8h-2.55v-7.51c0-1.85-.86-2.87-2.62-2.87a2.88 2.88 0 0 0-2.9 3.18V79h-2.56zM99.4 80h2.54a2.93 2.93 0 0 0 2.93 1.71c2 0 3.15-1.12 3.15-2.81v-2a4.29 4.29 0 0 1-3.91 2.22C101 79.05 99 76.63 99 72.79s2-6.32 5.18-6.32a4.31 4.31 0 0 1 3.93 2.31v-2.11h2.46v12.11c0 2.94-2.28 4.86-5.79 4.86-2.91 0-5.07-1.55-5.38-3.64zm8.6-7.2c0-2.53-1.31-4.19-3.29-4.19s-3.21 1.62-3.21 4.19 1.31 4.2 3.25 4.2 3.25-1.66 3.25-4.2zM123.63 79h-2.42v-2.09h-.06a3.87 3.87 0 0 1-3.82 2.31c-2.69 0-4.33-1.74-4.33-4.57v-8h2.54v7.49c0 1.88.89 2.88 2.63 2.88s2.93-1.26 2.93-3.18v-7.17h2.53zM125.64 75.5c0-2.16 1.65-3.48 4.58-3.65l3.37-.2v-1c0-1.37-.92-2.19-2.47-2.19a2.36 2.36 0 0 0-2.6 1.81h-2.39c.14-2.23 2-3.87 5.08-3.87s4.9 1.58 4.9 4V79h-2.42v-2h-.06a4.41 4.41 0 0 1-3.89 2.24c-2.42-.03-4.1-1.53-4.1-3.74zm8-1.12v-1l-3 .19c-1.51.1-2.37.77-2.37 1.83s.89 1.78 2.25 1.78a3 3 0 0 0 3.07-2.8zM138.46 80H141a2.93 2.93 0 0 0 2.93 1.71c2 0 3.15-1.12 3.15-2.81v-2a4.3 4.3 0 0 1-3.91 2.22c-3.09 0-5.12-2.42-5.12-6.26s2-6.32 5.18-6.32a4.31 4.31 0 0 1 3.93 2.31v-2.18h2.46v12.11c0 2.94-2.27 4.86-5.78 4.86-2.91 0-5.07-1.55-5.38-3.64zm8.63-7.16c0-2.53-1.3-4.19-3.28-4.19s-3.21 1.62-3.21 4.19 1.27 4.16 3.21 4.16 3.28-1.66 3.28-4.2zM162.69 75.38c-.35 2.25-2.48 3.85-5.31 3.85-3.62 0-5.81-2.44-5.81-6.34s2.23-6.44 5.71-6.44 5.55 2.41 5.55 6.15v.87h-8.71v.15a3.23 3.23 0 0 0 3.32 3.56 2.79 2.79 0 0 0 2.85-1.8zm-8.55-3.68h6.16a3 3 0 0 0-3-3.21 3.18 3.18 0 0 0-3.16 3.21zM169.39 66.45c2.75 0 4.67 1.53 4.75 3.73h-2.38c-.12-1.12-1-1.81-2.44-1.81S167 69 167 70c0 .76.61 1.28 1.89 1.6l2.07.48c2.48.59 3.42 1.53 3.42 3.35 0 2.25-2.1 3.79-5.12 3.79s-4.85-1.51-5.05-3.77h2.51c.2 1.18 1.11 1.84 2.66 1.84s2.46-.63 2.46-1.63c0-.78-.47-1.22-1.76-1.55l-2.2-.53c-2.23-.54-3.35-1.7-3.35-3.43.04-2.15 1.98-3.7 4.86-3.7z"/>
    <path fill="none" stroke="#000" stroke-width="5" d="M349.29 338.33h325.42v91.34H349.29z"/>
    <g clip-path="url(#f)">
        <path d="M479.06 393h-11.37v-18.32h2.84v15.86h8.53zM492.88 393H481.5v-18.32h2.84v15.86h8.54zM499 393l-6.54-18.32h3.08l5 15.12h.08l5-15.12h3L502.1 393zM526.58 393v-13.48h-.08l-5.5 13.34h-2.1l-5.54-13.34h-.09V393h-2.59v-18.32h3.29l5.93 14.46h.1l5.92-14.46h3.3V393zM537.83 393v-18.32h2.85V393zM546.9 393h-2.85v-18.32h7.1c3.77 0 6.12 2.18 6.12 5.6a5.26 5.26 0 0 1-3.56 5.23l4.11 7.49h-3.28l-3.73-7h-3.91zm0-9.34h4c2.2 0 3.46-1.21 3.46-3.3s-1.34-3.29-3.53-3.29h-3.93z"/>
    </g>
    <path fill="none" stroke="#000" stroke-width="3" d="M219.82 386.1h97.49"/>
    <path d="M315.81 392.7l13.2-6.6-13.2-6.6v13.2z"/>
    <g clip-path="url(#g)">
        <path fill="none" stroke="#000" stroke-width="3" d="M187.98 188.65h31.13v394.9h-31.47"/>
    </g>
    <g clip-path="url(#h)">
        <path fill="none" stroke="#000" stroke-width="3" d="M187.98 293.33h31.13v153.54h-31.47"/>
    </g>
    <path fill="none" stroke="#000" stroke-width="3" d="M770.23 386.1h-97.49"/>
    <path d="M768.73 392.7l13.2-6.6-13.2-6.6v13.2z"/>
    <g clip-path="url(#i)">
        <path fill="none" stroke="#000" stroke-width="3" d="M836.02 188.65h-31.13v394.9h31.47"/>
    </g>
    <g clip-path="url(#j)">
        <path fill="none" stroke="#000" stroke-width="3" d="M836.02 289.97h-31.13v192.26h31.47"/>
    </g>
    <path d="M871 202.06l-3.45 5.94h-4.14l5.34-8.27-5.3-8.29h4.38l3.34 5.81h.08l3.3-5.81h4.26l-5.33 8.18 5.27 8.38h-4.25l-3.44-5.94zM880.48 201.91a5.9 5.9 0 0 1 5.13-5.8V196a5.26 5.26 0 0 1-4.24-5.09c0-3.42 3.3-5.94 7.89-5.94s7.88 2.5 7.88 5.95a5.29 5.29 0 0 1-4.22 5.08v.08a5.94 5.94 0 0 1 5.14 5.8c0 3.86-3.61 6.54-8.8 6.54s-8.78-2.67-8.78-6.51zm13.39-.3c0-2.2-1.9-3.78-4.61-3.78s-4.61 1.59-4.61 3.78 1.91 3.77 4.61 3.77 4.61-1.6 4.61-3.77zm-.72-10.2c0-2-1.61-3.36-3.89-3.36s-3.9 1.4-3.9 3.36 1.61 3.34 3.9 3.34 3.89-1.41 3.89-3.34zM902.31 204a13.94 13.94 0 0 1-1.61-7c0-7.51 3.49-12 9.2-12 4.13 0 7.33 2.46 8 6.1h-4a4 4 0 0 0-4-2.81c-3.37 0-5.36 3.12-5.33 8.56h.08a6.44 6.44 0 0 1 6.11-3.67 7.25 7.25 0 0 1 7.47 7.43c0 4.58-3.53 7.88-8.42 7.88a8.1 8.1 0 0 1-7.5-4.49zm11.92-3.26a4.49 4.49 0 0 0-9-.05 4.49 4.49 0 0 0 9 .05zM877.8 297.17h-8.3l-1.92 5.83h-4.16l8-22.55H876l8 22.55h-4.25zm-7.36-3.11h6.4l-3.14-9.62h-.11zM890.41 303h-4v-22.55h9c4.87 0 7.79 2.71 7.79 7a6.55 6.55 0 0 1-4.24 6.44l4.84 9.11h-4.6l-4.43-8.48h-4.36zm0-11.58H895c2.57 0 4-1.42 4-3.86s-1.58-3.84-4.12-3.84h-4.47zM926 303v-16h-.11l-6.52 15.81h-2.75l-6.5-15.81H910v16h-3.64v-22.55h4.67l6.9 17h.13l6.9-17h4.66V303zM873.75 469.45a7.21 7.21 0 0 1 7.59 7.55c0 4.5-3.2 7.55-7.76 7.55H869V492h-4v-22.55zM869 481.3h3.65c2.89 0 4.58-1.57 4.58-4.3s-1.67-4.25-4.56-4.25H869zM882.59 483.72c0-5.34 3.19-8.63 8-8.63s8 3.27 8 8.63-3.16 8.61-8 8.61-8-3.24-8-8.61zm12.08 0c0-3.52-1.59-5.53-4.06-5.53s-4.06 2-4.06 5.53 1.59 5.53 4.06 5.53 4.06-2 4.06-5.53zM919.05 492H915l-3.26-12.11h-.08l-3.3 12.11h-4.06l-4.49-16.56h3.91l2.8 12.72h.07l3.24-12.72h3.73l3.24 12.72h.09l2.8-12.72h3.84zM940 487.05c-.5 3.12-3.41 5.28-7.33 5.28-5 0-8-3.27-8-8.55s3-8.69 7.82-8.69 7.64 3.27 7.64 8.3v1.27h-11.6v.23c0 2.66 1.62 4.44 4.17 4.44a3.54 3.54 0 0 0 3.61-2.28zm-11.39-5h7.73a3.77 3.77 0 0 0-3.81-4 4 4 0 0 0-3.97 4.04zM942.61 475.44h3.73v2.89h.08a4 4 0 0 1 4-3.17 5.75 5.75 0 0 1 1.22.15v3.52a4.84 4.84 0 0 0-1.58-.22c-2.2 0-3.53 1.42-3.53 3.75V492h-3.89zM962.76 469.45a7.21 7.21 0 0 1 7.6 7.55c0 4.5-3.21 7.55-7.77 7.55H958V492h-4v-22.55zM958 481.3h3.65c2.9 0 4.58-1.57 4.58-4.3s-1.67-4.25-4.56-4.25H958zM972.53 480.72c0-7.19 4.08-11.64 10.48-11.64 5.24 0 9.22 3.26 9.72 8.11h-4a5.65 5.65 0 0 0-5.73-4.69c-3.87 0-6.36 3.19-6.36 8.22S979.12 489 983 489a5.49 5.49 0 0 0 5.75-4.33h4c-.7 4.83-4.39 7.76-9.72 7.76-6.45-.05-10.5-4.43-10.5-11.71z"/>
    <path fill="none" stroke="#000" stroke-width="3" d="M836.36 384h-31.47"/>
    <path d="M869 397h-4v-22.55h9c4.87 0 7.79 2.71 7.79 7a6.55 6.55 0 0 1-4.25 6.44l4.93 9.09h-4.6l-4.43-8.48H869zm0-11.58h4.54c2.56 0 4.05-1.42 4.05-3.86s-1.58-3.84-4.13-3.84H869zM885 397v-22.55h4V397zM896 390.66c.25 2.07 2.33 3.43 5.08 3.43s4.61-1.34 4.61-3.21c0-1.63-1.16-2.57-4-3.24l-2.93-.69c-4.15-.95-6.12-2.95-6.12-6.17 0-4 3.48-6.7 8.39-6.7s8.25 2.69 8.34 6.65h-3.87c-.19-2.11-2-3.37-4.53-3.37s-4.27 1.25-4.27 3.12c0 1.5 1.14 2.38 3.91 3l2.59.59c4.58 1.05 6.52 2.94 6.52 6.3 0 4.28-3.44 7-8.89 7-5.19 0-8.6-2.57-8.77-6.72zM912 385.72c0-7.19 4.08-11.64 10.49-11.64 5.23 0 9.22 3.26 9.72 8.11h-4a5.65 5.65 0 0 0-5.75-4.69c-3.88 0-6.36 3.19-6.36 8.22s2.47 8.23 6.37 8.23a5.47 5.47 0 0 0 5.75-4.33h4c-.71 4.83-4.39 7.76-9.72 7.76-6.5 0-10.5-4.38-10.5-11.66zM934.6 389.58v-3.47h10.26v3.47zM954.06 397l-7.84-22.55h4.43l5.72 18.22h.1l5.71-18.22h4.35L958.68 397zM868 580.66c.25 2.07 2.33 3.43 5.08 3.43s4.61-1.34 4.61-3.21c0-1.63-1.16-2.57-4-3.24l-2.93-.69c-4.15-1-6.12-3-6.12-6.17 0-4 3.48-6.7 8.39-6.7s8.25 2.69 8.34 6.65h-3.87c-.19-2.11-2-3.37-4.53-3.37s-4.27 1.25-4.27 3.12c0 1.5 1.14 2.38 3.91 3l2.59.59c4.58 1 6.52 2.94 6.52 6.3 0 4.28-3.44 7-8.89 7-5.19 0-8.6-2.57-8.77-6.72zM893.52 564.45a7.21 7.21 0 0 1 7.59 7.55c0 4.5-3.2 7.55-7.77 7.55h-4.56V587h-4v-22.55zm-4.74 11.85h3.66c2.89 0 4.58-1.57 4.58-4.3s-1.68-4.25-4.57-4.25h-3.67zM914.91 581.17h-8.3l-1.92 5.83h-4.16l8-22.55h4.55l8 22.55h-4.25zm-7.36-3.11H914l-3.14-9.62h-.11zM927.52 587h-4v-22.55h9c4.87 0 7.8 2.71 7.8 7a6.56 6.56 0 0 1-4.25 6.44l4.92 9.09h-4.6l-4.43-8.48h-4.36zm0-11.58h4.54c2.57 0 4.05-1.42 4.05-3.86s-1.58-3.84-4.12-3.84h-4.47zM942.72 575.72c0-7.19 4.08-11.64 10.48-11.64 5.24 0 9.22 3.26 9.72 8.11h-4a5.64 5.64 0 0 0-5.75-4.69c-3.87 0-6.36 3.19-6.36 8.22s2.47 8.23 6.38 8.23a5.49 5.49 0 0 0 5.75-4.33h3.95c-.7 4.83-4.39 7.76-9.72 7.76-6.4 0-10.45-4.38-10.45-11.66z"/>
</svg>
