<svg id="c44f2247-865a-423c-8386-38a70863c114" data-name="Layer 1" xmlns="http://www.w3.org/2000/svg" xmlns:xlink="http://www.w3.org/1999/xlink" viewBox="0 0 1024 768"><defs><clipPath id="e2095384-8c72-4aed-a30b-efb169cb623b"><rect x="862.14" y="549.95" width="103.02" height="94" style="fill:none"/></clipPath><clipPath id="8b0df218-882e-41f8-934f-a3885bf73b2b"><rect x="863.65" y="263.9" width="100" height="102.4" style="fill:none"/></clipPath><clipPath id="a9ee0953-5f8e-45ea-8620-63884f9092a8"><rect x="871.73" y="414.11" width="83.83" height="83.83" style="fill:none"/></clipPath><clipPath id="d9f0b7ad-592a-4fde-a02a-267ea0c1e876"><rect x="859.05" y="122.97" width="109.19" height="102.4" style="fill:none"/></clipPath><clipPath id="f2b78202-4a88-4ea2-b810-8e96aa9aa2a9"><rect x="859.05" y="122.98" width="109.19" height="102.4" style="fill:none"/></clipPath><clipPath id="14dd1a05-cfc4-4978-82b2-0bf55b575084"><rect x="75.91" y="558.89" width="83.83" height="83.41" style="fill:none"/></clipPath><clipPath id="8ea97d7f-f348-4891-9b9b-1430b190980d"><rect x="76.12" y="272.89" width="83.41" height="83.41" style="fill:none"/></clipPath><clipPath id="09d70265-1a21-4de4-8ea5-6d734303e251"><rect x="75.86" y="415.89" width="83.93" height="83.41" style="fill:none"/></clipPath><clipPath id="49a5dfe0-13a1-4e97-8b5a-0883171175eb"><rect x="70.97" y="129.89" width="93.72" height="83.42" style="fill:none"/></clipPath><clipPath id="5c7708ee-8b2d-4296-83ad-121e90b3d25d"><rect x="70.97" y="129.89" width="93.72" height="83.41" style="fill:none"/></clipPath><clipPath id="09d6c299-8808-4124-9deb-6c2fa9c65ab6"><rect x="348.53" y="341.33" width="326.94" height="85.34" style="fill:none"/></clipPath><clipPath id="7d628576-9420-4d46-925d-c232200c6b10"><rect x="186.64" y="186.15" width="34.98" height="399.9" style="fill:none"/></clipPath><clipPath id="eaa67543-56fd-43bb-ad8e-230c8be160a9"><rect x="186.64" y="290.83" width="34.98" height="158.54" style="fill:none"/></clipPath><clipPath id="0eb51faa-185a-4666-872e-4e891175abe9"><rect x="802.39" y="186.15" width="34.98" height="399.9" style="fill:none"/></clipPath><clipPath id="0363c5fb-f864-4c12-9c03-f0cc0723ecc5"><rect x="802.39" y="290.83" width="34.98" height="158.54" style="fill:none"/></clipPath></defs><title>Artboard 2</title><g style="clip-path:url(#e2095384-8c72-4aed-a30b-efb169cb623b)"><g style="clip-path:url(#e2095384-8c72-4aed-a30b-efb169cb623b)"><path d="M943.85,572.18c1.7-8.5.7-15-3.2-17.5a8.05,8.05,0,0,0-4.7-1.2c-9.6.4-25,13.6-37.5,33.1-14.9,23.1-20.2,46.2-11.8,51.7,4,2.6,10.3.8,17.5-4.4" style="fill:none;stroke:#000;stroke-miterlimit:10;stroke-width:3px"/><path d="M951.85,609.48c7.1-2.8,11.5-6.6,11.8-10.9.5-10.1-21.4-19.4-49-20.9-2.5-.1-5.1-.2-7.6-.2-24.1.1-42.9,6.7-43.4,15.8-.2,4.4,3.7,8.6,10.5,12.1" style="fill:none;stroke:#000;stroke-miterlimit:10;stroke-width:3px"/><path d="M906.85,557.48c-4.9-4.1-9.5-6.3-13.2-6a7.67,7.67,0,0,0-2.7.7c-9,4.6-6.1,28.4,6.4,53.1s30.1,41,39.1,36.4c8.7-4.4,6.3-26.6-5-50.2" style="fill:none;stroke:#000;stroke-miterlimit:10;stroke-width:3px"/><path d="M921.65,597.48a8,8,0,1,1-8-8,8,8,0,0,1,8,8"/></g></g><g style="clip-path:url(#8b0df218-882e-41f8-934f-a3885bf73b2b)"><path d="M875.45,304.4l11.9,10.6-11.9,10.8Zm38.1,10.7,23.8-17.8V333Zm26.3-51.2-41.7,40.5-25-19.1-9.5,4.8v50l9.5,4.7,25-19,41.7,40.5,23.8-9.5V273.5Z"/></g><g style="clip-path:url(#a9ee0953-5f8e-45ea-8620-63884f9092a8)"><g style="clip-path:url(#a9ee0953-5f8e-45ea-8620-63884f9092a8)"><path d="M955.57,456h-.1l-15.08-15.09,15-15.41v-6.27L953.15,417H924.52l-2.31,2.11v3.65l-8.51-8.51v-.09l-.05.05,0-.05v.09l-4.51,4.51-1.87-1.88H878.84l-2.23,2.42v6.58l2.16,2.15h2.51v18.55L871.83,456h-.1l0,0,0,.05h.1l9.45,9.45v22.59l3.17,1.82h8.11l6.48-6.65,14.55,14.55v.1l.06-.05.05.05v-.1l8.77-8.76h1.69a.92.92,0,0,0,.87-.62l.51-1.49a.92.92,0,0,0-.12-.84l5.1-5.1-2.14,6.85A.93.93,0,0,0,929,489a.84.84,0,0,0,.27,0h6.37a.9.9,0,0,0,.85-.57l.58-1.37a1,1,0,0,0,0-.71.91.91,0,0,0-.52-.5.84.84,0,0,0-.33-.07h-.27l2.94-9.23h4.3l-3.54,11.25a.92.92,0,0,0,.61,1.16,1.18,1.18,0,0,0,.28,0h7a.94.94,0,0,0,.87-.6L949,487a.93.93,0,0,0-.55-1.19,1,1,0,0,0-.32-.06h-.51l3.95-12.83a.9.9,0,0,0-.14-.84l-1.31-1.76v0a.92.92,0,0,0-.73-.35h-5a.93.93,0,0,0-.67.28l-1.39,1.53h-2.18l-.15-.16,15.53-15.52h.1l-.05,0ZM906.1,488l5.51-15.75h-1.75l1-1.06h5.8l-5.46,15.91h2.17l-.27.9ZM919,461.7l.52.52-.94,3.22-.79.79h-3.38l-.63-.63,1.08-3,1-.86Zm-27.75,25.17h-6l-.92-.53V424.91H880l-.35-.35v-4.11l.5-.54h25.75l.74.75v3.87l-.49.6h-3.77v30.35l30.76-30.35h-7.29l-.6-.65v-4.06l.42-.39h26.16l.46.46v3.74l-35.26,36.16h-1.52a.84.84,0,0,0-.42.21l-1.19,1h0a1,1,0,0,0-.26.39l-1,2.89Zm51.59-13.81,1.65-1.81h4.66l1.08,1.45L945.82,487h1.72l-.28.73H941L945,475.33h-7l-3.76,11.84h1.48l-.26.61h-5.6l3.86-12.4h-7.31l-3.71,11.67h1.52l-.25.73h-5.81l5.3-15.58h-2l.32-.95h5.76l1.81,1.88h3.17l1.71-1.94h3.71l1.71,1.87Z"/></g></g><g style="clip-path:url(#d9f0b7ad-592a-4fde-a02a-267ea0c1e876)"><g style="clip-path:url(#f2b78202-4a88-4ea2-b810-8e96aa9aa2a9)"><path d="M950.56,141.09c1.83-.91,2.74-1.83,4.12-1.83a4.55,4.55,0,0,1,4.11,2.29c.92,1.37,4.12,2.29,5.49,2.29.92,0,2.29-3.21,3.21-6s.91-5.95.45-6.41-4.11-1.37-5-1.37a4.36,4.36,0,0,1-3.2.92c-1.83,0-3.66-1.38-5-2.75-2.29-2.29-5-3.2-7.78-4.12a28.32,28.32,0,0,0-8.69-.91,30.5,30.5,0,0,0-12.82.91,22.65,22.65,0,0,0-5,1.83,4.82,4.82,0,0,1-2.29.92c-.45.46-.45.91,0,.91a20.06,20.06,0,0,0,2.29-.45s-2.29.91-2.29,1.83a.45.45,0,0,0,.46.45,9.41,9.41,0,0,1,2.29-.45c1.83,0,4.57-.92,6.86-.92a11.21,11.21,0,0,1,8.24,3.66c4.12,5,3.66,11.44,3.66,12.81-.92,9.61-22.42,68.17-23.34,72.29s-.91,6.41,4.12,7.78,6.86,0,7.78-1.83c.46-3.21,14.18-75.49,22.42-81.9"/><path d="M932.71,136.52,859.06,148,871,224.36,910.3,218c-.46-3.2,10.06-30.65,11.89-35.69l-20.13,3.2,2.75-8.23L919,175l3.66,4.57a14.13,14.13,0,0,0,.91-3.2l-19.67-24.25a2.91,2.91,0,0,1,.46-4.12l.91-.91c1.38-.92,3.21-.92,4.12.46l17.39,20.13c3.65-11,6.86-20.59,6.86-23.79.46-.92.46-4.12-.92-7.32m-54.9,45.29,12.36-2.29L887,187.76l-8.23,1.37Zm26.54-23.33,1.37.46c1.83.45,2.29,2.28,1.83,4.11l-13.72,36.6-8.24,11,.92-13.72,13.72-36.6c.46-1.83,2.29-2.29,4.12-1.83m49.41-12.81c-1.83,1.83-4.12,7.78-8.69,25.16h.46l1.37,7.33-3.66.45a58.27,58.27,0,0,1-1.83,7.32c7.78,4.12,3.66,14.18,3.2,14.18s-.46,0-.46-.46.46-1.83-.91-2.28a28.26,28.26,0,0,1-4.12-1.83c-1.37,5.49-2.74,11.89-4.12,18.75l28.83-4.57-9.61-64.51Z"/></g></g><path d="M890.29,79H879.56V62.09h10.73v2.26h-8.11v5h7.68v2.18h-7.68v5.25h8.11Z"/><path d="M892.13,72.84c0-3.89,2.07-6.37,5.16-6.37a4.21,4.21,0,0,1,3.87,2.25h0V62.09h2.55V79h-2.46V76.9h0a4.27,4.27,0,0,1-3.93,2.31C894.2,79.21,892.13,76.73,892.13,72.84Zm2.59,0c0,2.6,1.26,4.23,3.26,4.23s3.25-1.66,3.25-4.23-1.3-4.23-3.25-4.23S894.72,70.25,894.72,72.84Z"/><path d="M906.22,63.43a1.47,1.47,0,1,1,1.46,1.44A1.46,1.46,0,0,1,906.22,63.43Zm.2,3.24H909V79h-2.53Z"/><path d="M914.82,63.75v2.92h2.34v2h-2.34v6.79c0,1.07.47,1.55,1.5,1.55a4.87,4.87,0,0,0,.83-.06v2a6.24,6.24,0,0,1-1.4.12c-2.5,0-3.47-1-3.47-3.33V68.68h-1.8v-2h1.8V63.75Z"/><path d="M918.4,72.84c0-4,2.33-6.39,5.85-6.39s5.84,2.43,5.84,6.39-2.32,6.39-5.84,6.39S918.4,76.81,918.4,72.84Zm9.12,0c0-2.73-1.29-4.3-3.27-4.3S921,70.11,921,72.84s1.29,4.31,3.27,4.31S927.52,75.58,927.52,72.84Z"/><path d="M932.05,66.67h2.42v2.1h0a3,3,0,0,1,3-2.3,4.25,4.25,0,0,1,.87.1v2.35a3.73,3.73,0,0,0-1.14-.14,2.55,2.55,0,0,0-2.64,2.84V79h-2.53Z"/><path d="M944.53,66.45c2.74,0,4.67,1.53,4.75,3.73H946.9c-.12-1.12-1-1.81-2.44-1.81s-2.28.67-2.28,1.64c0,.76.61,1.28,1.88,1.6l2.08.48c2.48.59,3.42,1.53,3.42,3.35,0,2.25-2.1,3.79-5.12,3.79s-4.85-1.51-5.05-3.77h2.51c.19,1.18,1.11,1.84,2.66,1.84s2.46-.63,2.46-1.63c0-.78-.47-1.22-1.76-1.55l-2.2-.53c-2.23-.54-3.36-1.7-3.36-3.43C939.7,68,941.65,66.45,944.53,66.45Z"/><g style="clip-path:url(#14dd1a05-cfc4-4978-82b2-0bf55b575084)"><path d="M104.89,572.34l-1.14-.76-.8-1.19-.28-1.42.28-1.43.8-1.14,1.14-.77,1.43-.31,1.42.31,1.15.77.8,1.14L110,569l-.28,1.42-.8,1.19-1.15.76-1.42.31Zm12.62-13.45-2.92.07-2.67.14-2.47.21-2.23.35-2,.41-1.77.53-1.53.62-1.32.69-1.08.81-.87.9-.59,1-.38,1.08-.18,1.18.07,1.29,0,9.56h20.29v2.88H89.53l-.21,0h-.55l-.84,0-1.11.17-1.25.35-1.39.56-1.46.83-1.46,1.15-1.39,1.53-1.25,2-1.11,2.47-.83,3-.56,3.62-.21,4.24.17,4.27.49,3.65.73,3.06,1,2.54,1.11,2,1.22,1.6,1.25,1.25,1.25.91,1.22.62,1.11.42,1,.25.73.1h7.76V610.58l.06-.74.14-.94.25-1.1.34-1.22.53-1.29L96.9,604l.94-1.22L99,601.71l1.42-.94,1.74-.76,2-.49,2.4-.17h20.75l.73-.07.9-.14,1-.25,1.15-.34,1.22-.49,1.21-.66,1.15-.87,1-1.08.91-1.32.73-1.6.45-1.9.17-2.19V569.88l0-.46-.06-.69-.14-.91-.35-1-.55-1.15-.87-1.18-1.19-1.18-1.56-1.11-2.05-1-2.54-.91-3.13-.69-3.71-.46Z"/><path d="M127.9,635.6l-1.14-.8-.8-1.15-.28-1.43.28-1.42.8-1.14,1.14-.8,1.43-.28,1.43.28,1.14.8.8,1.14.28,1.42-.28,1.43-.8,1.15-1.14.8-1.43.28ZM140.77,580v10.63l-.08.73-.14,1-.24,1.11-.35,1.22-.52,1.25-.69,1.25-.94,1.21-1.15,1.12-1.42,1-1.74.73-2.05.49-2.4.17h-20.3l-.45,0-.73.07-.9.13-1,.21-1.14.35-1.22.49-1.21.69-1.15.84-1,1.11L99,607.1l-.73,1.6-.45,1.87-.17,2.23v18.56l0,.45.07.69.14.87.35,1,.56,1.14.86,1.19,1.18,1.18,1.57,1.14,2,1,2.53.87,3.13.69,3.72.49,4.42.14,2.92,0,2.67-.14,2.47-.24,2.23-.31,2-.45,1.77-.53,1.53-.59,1.32-.7,1.08-.83.87-.86.59-1,.38-1.08.18-1.18-.07-1.26,0-9.59H117.76v-2.85h28.56l.56,0,.84-.07,1.11-.17,1.25-.32,1.39-.56,1.46-.83,1.46-1.14,1.39-1.57,1.25-2,1.11-2.47.84-3,.55-3.61.21-4.28-.17-4.27-.49-3.62-.73-3-1-2.54-1.11-2.06-1.22-1.63-1.25-1.21-1.26-.94-1.21-.63-1.11-.41-1-.21-.73-.11-.48,0Z"/></g><g style="clip-path:url(#8ea97d7f-f348-4891-9b9b-1430b190980d)"><g style="clip-path:url(#8ea97d7f-f348-4891-9b9b-1430b190980d)"><path d="M76.12,272.89h83.41v83.42H76.12Zm76.58,63.52c-.61-3.8-3.08-7-10.44-10-2.56-1.2-5.4-2-6.24-4a4,4,0,0,1-.16-2.45c.52-2.24,3.18-2.92,5.26-2.29a5.63,5.63,0,0,1,3.39,3.13c3.6-2.35,3.6-2.35,6.1-3.91a14.47,14.47,0,0,0-2-2.71c-2.19-2.45-5.11-3.71-9.85-3.6l-2.45.31a11.33,11.33,0,0,0-5.95,3.49c-4,4.49-2.82,12.31,2,15.54,4.74,3.55,11.68,4.33,12.57,7.67.84,4.06-3,5.37-6.83,4.9-2.82-.62-4.38-2-6.1-4.64l-6.36,3.65a14.06,14.06,0,0,0,2.81,3.86c6,6.1,21.17,5.79,23.88-3.49a11.61,11.61,0,0,0,.26-5.74Zm-31.22-25.18h-7.82c0,6.74,0,13.43,0,20.18,0,4.28.22,8.21-.48,9.42-1.14,2.4-4.1,2.09-5.44,1.67a6.7,6.7,0,0,1-2.89-3,2.7,2.7,0,0,0-.44-.69L98,342.75a12.29,12.29,0,0,0,4.6,5.28,15.36,15.36,0,0,0,11.15,1.41,9.81,9.81,0,0,0,6.3-4.91c1.77-3.23,1.39-7.19,1.37-11.63,0-7.14,0-14.28,0-21.47Z"/></g></g><g style="clip-path:url(#09d70265-1a21-4de4-8ea5-6d734303e251)"><g style="clip-path:url(#09d70265-1a21-4de4-8ea5-6d734303e251)"><path d="M146.35,415.93C157,417.76,160,425,159.74,432.61l0-.11L155,495.05l-62,4.26H93c-5.16-.22-16.64-.7-17.16-16.75l5.75-10.49,9.86,23,1.76,4.11,9.81-32-.11,0,.06-.1,32.36,10.33-4.88-19L127,444.85l30.84-2-2.15-1.78L133.56,423l12.8-7.14ZM75.86,482.39v0Zm17.94-49C106.25,421,122.32,413.72,128.5,420s-.37,21.35-12.85,33.7-28.33,20-34.49,13.83.15-21.74,12.63-34.09Z"/></g></g><g style="clip-path:url(#49a5dfe0-13a1-4e97-8b5a-0883171175eb)"><g style="clip-path:url(#5c7708ee-8b2d-4296-83ad-121e90b3d25d)"><path d="M156.81,188.58c.22-.44.22-.88.43-1.32,5.26-20.58-7.22-44.67-28.68-57.37,9.42,12.7,13.14,27.81,9.85,41.39a21.36,21.36,0,0,1-1.09,3.5,19.84,19.84,0,0,1-1.76-1.09,267.82,267.82,0,0,1-44-36.13c-.66-.66,12.27,18.39,26.72,33.5-6.79-3.94-26.06-17.74-38.11-28.91a50.74,50.74,0,0,0,5.26,7.23c10.07,12.92,23.21,28.69,39,40.73-11.17,6.8-26.72,7.22-42.48,0a62.42,62.42,0,0,1-11-6.57,64.63,64.63,0,0,0,29.12,24.74c14.67,6.36,29.56,5.92,40.29,0h.23a4.45,4.45,0,0,0,1.31-.87c5.25-2.63,15.55-5.48,21.24,5.48,1.53,3.06,4.38-11.17-6.35-24.31Z"/></g></g><path d="M72.06,79H61.56V62.09h2.62V76.73h7.88Z"/><path d="M73.51,75.5c0-2.16,1.65-3.48,4.58-3.65l3.38-.2v-1c0-1.37-.93-2.19-2.47-2.19a2.37,2.37,0,0,0-2.61,1.81H74c.14-2.23,2-3.87,5.09-3.87S84,68,84,70.5V79H81.56V77H81.5a4.4,4.4,0,0,1-3.89,2.24C75.2,79.21,73.51,77.71,73.51,75.5Zm8-1.12v-1l-3,.19c-1.51.1-2.36.77-2.36,1.83s.89,1.78,2.25,1.78A3,3,0,0,0,81.47,74.38Z"/><path d="M86.44,66.67h2.41v2.06h.06a4,4,0,0,1,3.88-2.27c2.72,0,4.28,1.74,4.28,4.56v8H94.52V71.51c0-1.85-.86-2.87-2.62-2.87A2.88,2.88,0,0,0,89,71.82V79H86.44Z"/><path d="M99.4,80h2.54a2.93,2.93,0,0,0,2.93,1.71c2,0,3.15-1.12,3.15-2.81v-2h0a4.29,4.29,0,0,1-3.91,2.22C101,79.05,99,76.63,99,72.79s2-6.32,5.18-6.32a4.31,4.31,0,0,1,3.93,2.31h0V66.67h2.46V78.78c0,2.94-2.28,4.86-5.79,4.86C101.87,83.64,99.71,82.09,99.4,80ZM108,72.8c0-2.53-1.31-4.19-3.29-4.19s-3.21,1.62-3.21,4.19S102.81,77,104.75,77,108,75.34,108,72.8Z"/><path d="M123.63,79h-2.42V76.91h-.06a3.87,3.87,0,0,1-3.82,2.31c-2.69,0-4.33-1.74-4.33-4.57v-8h2.54v7.49c0,1.88.89,2.88,2.63,2.88s2.93-1.26,2.93-3.18V66.67h2.53Z"/><path d="M125.64,75.5c0-2.16,1.65-3.48,4.58-3.65l3.37-.2v-1c0-1.37-.92-2.19-2.47-2.19a2.36,2.36,0,0,0-2.6,1.81h-2.39c.14-2.23,2-3.87,5.08-3.87s4.9,1.58,4.9,4V79h-2.42V77h-.06a4.41,4.41,0,0,1-3.89,2.24C127.32,79.21,125.64,77.71,125.64,75.5Zm8-1.12v-1l-3,.19c-1.51.1-2.37.77-2.37,1.83s.89,1.78,2.25,1.78A3,3,0,0,0,133.59,74.38Z"/><path d="M138.46,80H141a2.93,2.93,0,0,0,2.93,1.71c2,0,3.15-1.12,3.15-2.81v-2h0a4.3,4.3,0,0,1-3.91,2.22c-3.09,0-5.12-2.42-5.12-6.26s2-6.32,5.18-6.32a4.31,4.31,0,0,1,3.93,2.31h0V66.67h2.46V78.78c0,2.94-2.27,4.86-5.78,4.86C140.93,83.64,138.77,82.09,138.46,80Zm8.63-7.16c0-2.53-1.3-4.19-3.28-4.19s-3.21,1.62-3.21,4.19S141.87,77,143.81,77,147.09,75.34,147.09,72.8Z"/><path d="M162.69,75.38c-.35,2.25-2.48,3.85-5.31,3.85-3.62,0-5.81-2.44-5.81-6.34s2.23-6.44,5.71-6.44,5.55,2.41,5.55,6.15v.87h-8.71v.15a3.23,3.23,0,0,0,3.32,3.56,2.79,2.79,0,0,0,2.85-1.8Zm-8.55-3.68h6.16a3,3,0,0,0-3-3.21A3.18,3.18,0,0,0,154.14,71.7Z"/><path d="M169.39,66.45c2.75,0,4.67,1.53,4.75,3.73h-2.38c-.12-1.12-1-1.81-2.44-1.81S167,69,167,70c0,.76.61,1.28,1.89,1.6l2.07.48c2.48.59,3.42,1.53,3.42,3.35,0,2.25-2.1,3.79-5.12,3.79s-4.85-1.51-5.05-3.77h2.51c.2,1.18,1.11,1.84,2.66,1.84s2.46-.63,2.46-1.63c0-.78-.47-1.22-1.76-1.55l-2.2-.53c-2.23-.54-3.35-1.7-3.35-3.43C164.57,68,166.51,66.45,169.39,66.45Z"/><rect x="349.29" y="338.33" width="325.42" height="91.34" style="fill:none;stroke:#000;stroke-width:5px"/><g style="clip-path:url(#09d6c299-8808-4124-9deb-6c2fa9c65ab6)"><path d="M381.06,393H369.69V374.68h2.84v15.86h8.53Z"/><path d="M382.64,389.2c0-2.33,1.79-3.77,5-3.94l3.66-.22v-1c0-1.48-1-2.37-2.68-2.37a2.56,2.56,0,0,0-2.82,1.95h-2.59c.15-2.41,2.21-4.19,5.51-4.19s5.31,1.72,5.31,4.4V393h-2.63v-2.2h-.06a4.78,4.78,0,0,1-4.22,2.43C384.47,393.23,382.64,391.6,382.64,389.2Zm8.62-1.2v-1.06l-3.29.21c-1.64.11-2.56.84-2.56,2s1,1.93,2.43,1.93A3.2,3.2,0,0,0,391.26,388Z"/><path d="M396.64,379.64h2.62v2.24h.06a4.33,4.33,0,0,1,4.2-2.46c3,0,4.64,1.87,4.64,4.93V393H405.4v-8.11c0-2-.94-3.11-2.84-3.11a3.12,3.12,0,0,0-3.18,3.44V393h-2.74Z"/><path d="M410.68,394h2.76a3.16,3.16,0,0,0,3.17,1.85c2.15,0,3.42-1.21,3.42-3v-2.2H420a4.62,4.62,0,0,1-4.22,2.4c-3.35,0-5.55-2.61-5.55-6.78s2.18-6.84,5.61-6.84a4.65,4.65,0,0,1,4.25,2.5h.05v-2.29h2.67v13.12c0,3.19-2.46,5.27-6.27,5.27C413.36,398,411,396.35,410.68,394Zm9.36-7.76c0-2.74-1.41-4.54-3.56-4.54S413,383.5,413,386.28s1.38,4.5,3.48,4.5S420,389,420,386.28Z"/><path d="M436.94,393h-2.63v-2.26h-.07a4.17,4.17,0,0,1-4.13,2.5c-2.91,0-4.69-1.89-4.69-4.95v-8.65h2.74v8.12c0,2,1,3.12,2.86,3.12s3.17-1.37,3.17-3.45v-7.79h2.75Z"/><path d="M439.11,389.2c0-2.33,1.79-3.77,5-3.94l3.66-.22v-1c0-1.48-1-2.37-2.68-2.37a2.56,2.56,0,0,0-2.82,1.95h-2.59c.15-2.41,2.21-4.19,5.51-4.19s5.31,1.72,5.31,4.4V393h-2.63v-2.2h-.07a4.76,4.76,0,0,1-4.21,2.43C440.93,393.23,439.11,391.6,439.11,389.2Zm8.62-1.2v-1.06l-3.29.21c-1.64.11-2.57.84-2.57,2s1,1.93,2.44,1.93A3.2,3.2,0,0,0,447.73,388Z"/><path d="M453,394h2.75a3.16,3.16,0,0,0,3.17,1.85c2.15,0,3.42-1.21,3.42-3v-2.2h0a4.65,4.65,0,0,1-4.23,2.4c-3.35,0-5.55-2.61-5.55-6.78s2.19-6.84,5.61-6.84a4.67,4.67,0,0,1,4.26,2.5h.05v-2.29h2.66v13.12c0,3.19-2.46,5.27-6.27,5.27C455.67,398,453.34,396.35,453,394Zm9.35-7.76c0-2.74-1.41-4.54-3.55-4.54s-3.48,1.76-3.48,4.54,1.37,4.5,3.48,4.5S462.35,389,462.35,386.28Z"/><path d="M479.25,389.08c-.38,2.43-2.69,4.17-5.75,4.17-3.92,0-6.3-2.65-6.3-6.86s2.41-7,6.18-7,6,2.62,6,6.67V387H470v.16c0,2.33,1.4,3.86,3.59,3.86a3,3,0,0,0,3.09-1.95Zm-9.27-4h6.68a3.28,3.28,0,0,0-3.28-3.48A3.45,3.45,0,0,0,470,385.09Z"/><path d="M489.11,387.9c.21,1.81,2,3,4.38,3s4-1.2,4-2.84c0-1.42-1-2.27-3.38-2.85l-2.37-.57c-3.37-.82-4.93-2.39-4.93-4.94,0-3.16,2.75-5.33,6.67-5.33s6.52,2.17,6.61,5.33H497.3c-.16-1.83-1.67-2.93-3.88-2.93s-3.72,1.11-3.72,2.74c0,1.29,1,2.05,3.32,2.64l2,.49c3.76.89,5.32,2.4,5.32,5.08,0,3.43-2.73,5.57-7.07,5.57-4.06,0-6.8-2.09-7-5.4Z"/><path d="M514,389.08c-.38,2.43-2.69,4.17-5.75,4.17-3.92,0-6.29-2.65-6.29-6.86s2.41-7,6.18-7,6,2.62,6,6.67V387h-9.44v.16c0,2.33,1.4,3.86,3.6,3.86a3,3,0,0,0,3.08-1.95Zm-9.26-4h6.67a3.28,3.28,0,0,0-3.27-3.48A3.44,3.44,0,0,0,504.77,385.09Z"/><path d="M516.31,379.64h2.61v2.28H519a3.21,3.21,0,0,1,3.21-2.49,5,5,0,0,1,.94.1v2.55a3.93,3.93,0,0,0-1.23-.15,2.75,2.75,0,0,0-2.86,3.07v8h-2.74Z"/><path d="M531.45,393h-2.94l-4.81-13.36h2.92L530,390.32h0l3.35-10.68h2.87Z"/><path d="M548.9,389.08c-.38,2.43-2.69,4.17-5.75,4.17-3.92,0-6.3-2.65-6.3-6.86s2.41-7,6.18-7,6,2.62,6,6.67V387h-9.43v.16c0,2.33,1.4,3.86,3.59,3.86a3,3,0,0,0,3.09-1.95Zm-9.27-4h6.68a3.28,3.28,0,0,0-3.28-3.48A3.45,3.45,0,0,0,539.63,385.09Z"/><path d="M551.17,379.64h2.62v2.28h.06a3.22,3.22,0,0,1,3.21-2.49,4.78,4.78,0,0,1,.94.1v2.55a3.88,3.88,0,0,0-1.23-.15,2.76,2.76,0,0,0-2.86,3.07v8h-2.74Z"/><path d="M572.17,374.68a5.75,5.75,0,0,1,6,6,5.81,5.81,0,0,1-6.12,6h-3.93V393H565.3V374.68Zm-4,9.67h3.26c2.47,0,3.88-1.33,3.88-3.64s-1.41-3.63-3.87-3.63h-3.27Z"/><path d="M580.36,379.64H583v2.28H583a3.21,3.21,0,0,1,3.21-2.49,4.88,4.88,0,0,1,.94.1v2.55a3.93,3.93,0,0,0-1.23-.15A2.75,2.75,0,0,0,583.1,385v8h-2.74Z"/><path d="M587.75,386.32c0-4.29,2.52-6.92,6.33-6.92s6.34,2.63,6.34,6.92-2.52,6.93-6.34,6.93S587.75,390.63,587.75,386.32Zm9.87,0c0-3-1.39-4.66-3.54-4.66s-3.54,1.7-3.54,4.66,1.4,4.67,3.54,4.67S597.62,389.29,597.62,386.32Z"/><path d="M606.09,376.48v3.16h2.54v2.18h-2.54v7.36c0,1.15.51,1.67,1.63,1.67a5.8,5.8,0,0,0,.9-.06V393a7.35,7.35,0,0,1-1.53.13c-2.7,0-3.75-1-3.75-3.61v-7.66h-2v-2.18h2v-3.16Z"/><path d="M610,386.32c0-4.29,2.53-6.92,6.33-6.92s6.34,2.63,6.34,6.92-2.51,6.93-6.34,6.93S610,390.63,610,386.32Zm9.88,0c0-3-1.4-4.66-3.55-4.66s-3.54,1.7-3.54,4.66,1.4,4.67,3.54,4.67S619.85,389.29,619.85,386.32Z"/><path d="M633.61,384.24a3,3,0,0,0-3.14-2.55c-2.12,0-3.51,1.76-3.51,4.63s1.41,4.64,3.54,4.64a2.94,2.94,0,0,0,3.11-2.48h2.64c-.29,2.84-2.57,4.77-5.78,4.77-3.82,0-6.31-2.61-6.31-6.93s2.49-6.92,6.29-6.92c3.44,0,5.53,2.21,5.77,4.84Z"/><path d="M637.59,386.32c0-4.29,2.53-6.92,6.34-6.92s6.33,2.63,6.33,6.92-2.51,6.93-6.33,6.93S637.59,390.63,637.59,386.32Zm9.88,0c0-3-1.39-4.66-3.54-4.66s-3.54,1.7-3.54,4.66,1.39,4.67,3.54,4.67S647.47,389.29,647.47,386.32Z"/><path d="M652.49,374.68h2.74V393h-2.74Z"/></g><polyline points="219.82 386.1 315.81 386.1 317.31 386.1" style="fill:none;stroke:#000;stroke-width:3px"/><polygon points="315.81 392.7 329.01 386.1 315.81 379.5 315.81 392.7"/><g style="clip-path:url(#7d628576-9420-4d46-925d-c232200c6b10)"><polyline points="187.98 188.65 219.11 188.65 219.11 583.55 187.64 583.55" style="fill:none;stroke:#000;stroke-width:3px"/></g><g style="clip-path:url(#eaa67543-56fd-43bb-ad8e-230c8be160a9)"><polyline points="187.98 293.33 219.11 293.33 219.11 446.87 187.64 446.87" style="fill:none;stroke:#000;stroke-width:3px"/></g><polyline points="804.17 386.1 708.18 386.1 706.68 386.1" style="fill:none;stroke:#000;stroke-width:3px"/><polygon points="708.18 379.5 694.99 386.1 708.18 392.7 708.18 379.5"/><g style="clip-path:url(#0eb51faa-185a-4666-872e-4e891175abe9)"><polyline points="836.02 188.65 804.89 188.65 804.89 583.55 836.36 583.55" style="fill:none;stroke:#000;stroke-width:3px"/></g><g style="clip-path:url(#0363c5fb-f864-4c12-9c03-f0cc0723ecc5)"><polyline points="836.02 293.33 804.89 293.33 804.89 446.87 836.36 446.87" style="fill:none;stroke:#000;stroke-width:3px"/></g></svg>