<?xml version="1.0" encoding="UTF-8"?>
<svg xmlns="http://www.w3.org/2000/svg" version="1.1" viewBox="0 0 1012 600">
    <defs>
        <style>
            .symbol {
                fill: #fff;
                fill-opacity: .85;
            }

            #name {
                fill: #000;
            }
        </style>
    </defs>
    <g id="name">
        <path
            d="M282.12,482.1c0,3.6.35,6.3,1.05,8.1.7,1.8,1.95,3.2,3.75,4.2,1.6.8,3.15,1.3,4.65,1.5,1.5.2,2.8.45,3.9.75,1.1.3,2,.75,2.7,1.35.7.6,1.05,1.6,1.05,3,0,3.2-1.8,4.8-5.4,4.8-3,0-6.59-.35-10.77-1.05-4.18-.7-8.64-1.05-13.38-1.05-5.14,0-9.5.35-13.08,1.05-3.58.7-6.47,1.05-8.67,1.05-3,0-4.5-1.7-4.5-5.1,0-1.4.25-2.4.75-3,.5-.6,1.2-1,2.1-1.2.9-.2,1.85-.35,2.85-.45,1-.1,2.1-.45,3.3-1.05,2.2-1.2,3.55-2.65,4.05-4.35.5-1.7.75-4.55.75-8.55v-70.8c0-5.4-.65-9-1.95-10.8-1.3-1.8-2.7-2.95-4.2-3.45-1.5-.5-2.9-.8-4.2-.9-1.3-.1-1.95-1.15-1.95-3.15,0-2.2,1.35-4,4.05-5.4,2.7-1.4,6.53-3.5,11.51-6.3,2.96-1.8,5.48-3.6,7.56-5.4,2.07-1.8,3.8-3.4,5.19-4.8,1.38-1.4,2.52-2.55,3.41-3.45.89-.9,1.73-1.35,2.52-1.35,1.97,0,2.96,2.1,2.96,6.3v109.5ZM280.32,320.1c2.6,3.4,3.9,7.2,3.9,11.4s-1.3,8-3.9,11.4c-2.6,3.4-5.7,5.1-9.3,5.1s-6.7-1.7-9.3-5.1c-2.6-3.4-3.9-7.2-3.9-11.4s1.3-8,3.9-11.4c2.6-3.4,5.7-5.1,9.3-5.1s6.7,1.7,9.3,5.1Z" />
        <path
            d="M356.82,316.8c1,0,1.85.15,2.55.45.7.3,1.25,1.05,1.65,2.25l39.9,121.2c.8,2.4,1.5,3.6,2.1,3.6.8,0,1.6-1.1,2.4-3.3l39.3-119.1c.4-1.6.95-2.85,1.65-3.75.7-.9,1.85-1.35,3.45-1.35h38.7c2.8,0,4.2,1.29,4.2,3.87,0,1.59-.45,2.63-1.35,3.13s-2.05.85-3.45,1.05c-1.4.2-2.95.35-4.65.45-1.7.1-3.45.55-5.25,1.34-2.2.99-3.55,2.24-4.05,3.73-.5,1.49-.75,4.22-.75,8.19v7.15l3.3,130.52c.2,5.37.55,9.24,1.05,11.62.5,2.39,2.35,4.27,5.55,5.66,1.8.8,3.6,1.24,5.4,1.34s3.35.2,4.65.29c1.3.1,2.35.45,3.15,1.05.8.6,1.2,1.8,1.2,3.6,0,1.2-.55,2.25-1.65,3.15-1.1.9-2.65,1.35-4.65,1.35-3.2,0-7.05-.35-11.55-1.05-4.5-.7-9.75-1.05-15.75-1.05-6.6,0-12.35.35-17.25,1.05-4.9.7-8.75,1.05-11.55,1.05-4,0-6-1.6-6-4.8,0-3,1.5-4.5,4.5-4.5,3.8,0,6.75-.3,8.85-.89,2.1-.6,3.7-1.64,4.8-3.13,1.1-1.49,1.75-3.43,1.95-5.81.2-2.38.3-5.36.3-8.94v-6.85l-2.1-110.26c0-2.18-.5-3.28-1.5-3.28-.6,0-1.2.99-1.8,2.98l-44.1,134.99c-1,3-2.6,4.49-4.8,4.49-2.6,0-4.2-1.2-4.8-3.6l-44.7-135.59c-1-2.58-1.7-3.87-2.1-3.87-1,0-1.6,1.89-1.8,5.66l-5.1,91.19c-.2,3.38-.35,6.46-.45,9.24-.1,2.79-.15,5.26-.15,7.45,0,9.34.8,16.14,2.4,20.41,1.6,4.27,5.3,6.41,11.1,6.41.6,0,1.2-.05,1.8-.15.6-.1,1.3-.15,2.1-.15,3.8,0,5.7,1.5,5.7,4.5,0,3.2-2.5,4.8-7.5,4.8-2.2,0-5.05-.2-8.55-.6-3.5-.4-7.55-.6-12.15-.6-4,0-7.55.2-10.65.6-3.1.4-5.75.6-7.95.6-4.8,0-7.2-1.6-7.2-4.8,0-3,1.4-4.5,4.2-4.5,1.2,0,2.25.05,3.15.15.9.1,1.65.15,2.25.15,2.6,0,4.7-.84,6.3-2.53,1.6-1.69,2.8-4.42,3.6-8.19.8-3.77,1.4-8.69,1.8-14.75.4-6.06.8-13.55,1.2-22.49l5.1-101.88c0-.39.05-1.09.15-2.08.1-.99.15-2.28.15-3.88,0-4.57-.4-7.74-1.2-9.53-.8-1.79-2.6-3.18-5.4-4.17-1.8-.6-3.5-.95-5.1-1.05-1.6-.1-3-.2-4.2-.3-1.2-.1-2.15-.4-2.85-.9-.7-.5-1.05-1.55-1.05-3.15,0-2.6,1.4-3.9,4.2-3.9h39.3Z" />
        <path
            d="M518.67,370.65c4.7-12.1,11.15-22.65,19.35-31.65,8.2-9,17.75-16.05,28.65-21.15,10.9-5.1,22.65-7.65,35.25-7.65,5.4,0,10.6.42,15.6,1.25,5,.83,9.5,1.81,13.5,2.95,4,1.14,7.3,2.38,9.9,3.71,2.6,1.33,4.4,2.49,5.4,3.49,1,1,1.9,4.15,2.7,9.45.8,5.3,1.2,12.45,1.2,21.45,0,3.6-.8,5.4-2.4,5.4-1.4,0-2.85-1.05-4.35-3.15-1.5-2.1-3.35-5.05-5.55-8.85-5.4-9-11-15.8-16.8-20.4-5.8-4.6-12.6-6.9-20.4-6.9-8.2,0-15.8,2.2-22.8,6.59-7,4.39-13.15,10.63-18.45,18.72-5.3,8.09-9.45,17.87-12.45,29.35-3,11.48-4.5,24.21-4.5,38.18,0,12.98,1.5,24.91,4.5,35.79,3,10.88,7.05,20.32,12.15,28.3,5.1,7.99,11,14.18,17.7,18.57,6.7,4.39,13.75,6.59,21.15,6.59,9.4,0,17.25-2.55,23.55-7.65s11.75-12.85,16.35-23.25c2.4-5.4,4.3-9.6,5.7-12.6,1.4-3,3-4.5,4.8-4.5,2.2,0,3.3,2.1,3.3,6.3,0,1.2-.15,3.95-.45,8.25-.3,4.3-.45,10.05-.45,17.25,0,3.4-1.25,6.65-3.75,9.75-2.5,3.1-6.05,5.85-10.65,8.25-4.6,2.4-10.05,4.3-16.35,5.7-6.3,1.4-13.25,2.1-20.85,2.1-12.6,0-24.25-2.6-34.95-7.8-10.7-5.2-19.95-12.3-27.75-21.3s-13.9-19.6-18.3-31.8c-4.4-12.2-6.6-25.4-6.6-39.6s2.35-27.05,7.05-39.15Z" />
        <path
            d="M723.11,416.1c-1.2-.4-1.9-.6-2.1-.6-1.2,0-1.95.45-2.25,1.35-.3.9-.45,2.35-.45,4.35v55.87c0,5.18.3,8.86.9,11.05.6,2.19,2.3,3.98,5.1,5.38,1.8.8,3.6,1.25,5.4,1.35,1.8.1,3.35.25,4.65.45,1.3.2,2.35.6,3.15,1.2.8.6,1.2,1.8,1.2,3.6,0,1.2-.55,2.25-1.65,3.15-1.1.9-2.65,1.35-4.65,1.35s-5.35-.35-10.05-1.05c-4.7-.7-10.85-1.05-18.45-1.05-7,0-12.75.35-17.25,1.05-4.5.7-7.85,1.05-10.05,1.05-4,0-6-1.59-6-4.79,0-1.4.35-2.4,1.05-3,.7-.6,1.55-1,2.55-1.2,1-.2,2.2-.3,3.6-.3s2.8-.2,4.2-.6c4.4-1.2,7-3.24,7.8-6.14.8-2.9,1.2-7.74,1.2-14.53v-135.08c0-4.39-.35-7.49-1.05-9.29-.7-1.8-2.45-3.19-5.25-4.19-1.8-.6-3.55-.95-5.25-1.05-1.7-.1-3.15-.25-4.35-.45-1.2-.2-2.15-.55-2.85-1.04-.7-.5-1.05-1.55-1.05-3.15,0-2.79,1.9-4.2,5.7-4.2.8,0,3.15.15,7.05.45,3.9.3,9.45.45,16.65.45h4.8c3.4,0,7.6-.1,12.6-.3,5-.2,10.8-.3,17.4-.3,34.8,0,52.2,18.3,52.2,54.9,0,7.6-1.1,14.6-3.3,21-2.2,6.4-5.2,11.95-9,16.65-3.8,4.7-8.15,8.4-13.05,11.1-4.9,2.7-10.15,4.05-15.75,4.05-2.8,0-5.7-.5-8.7-1.5-3-1-6.3-2.3-9.9-3.9l-4.8-2.1ZM722.96,406.95c3.3,2.1,6.85,3.15,10.65,3.15,6.8,0,12.8-3.65,18-10.95,5.2-7.3,7.8-17.25,7.8-29.85,0-6.8-.75-12.95-2.25-18.45-1.5-5.5-3.5-10.2-6-14.1-2.5-3.9-5.4-6.95-8.7-9.15-3.3-2.2-6.75-3.3-10.35-3.3-6.2,0-10.1,1.15-11.7,3.45-1.6,2.3-2.4,6.05-2.4,11.25v58.2c0,4.4,1.65,7.65,4.95,9.75Z" />
    </g>
    <g>
        <circle fill="#28cd41" cx="125.79" cy="219.26" r="50" />
        <g class="symbol">
            <path
                d="M105.98,246.67c3.04,0,9.82-2.94,14.79-6.39.59-.4,1.01-.5,1.53-.5.3.01.53.02.7.02,17.63-.04,32-8.83,32-23.99,0-13.3-13.15-23.97-29.56-23.97s-29.56,10.67-29.56,23.97c0,7.9,4.52,15.26,12.9,19.86.63.34.75.71.46,1.29-1.56,2.6-3.8,5.19-4.83,6.48-1.36,1.68-.56,3.21,1.57,3.21Z" />
        </g>
    </g>
    <g>
        <circle fill="#ff3b30" cx="249.17" cy="120.81" r="50" />
        <g class="symbol">
            <path
                d="M230.17,146.46h37.23c6.18,0,9.62-3.42,9.62-9.56v-32.15c0-6.14-3.44-9.55-9.62-9.55h-37.23c-6.17,0-9.61,3.4-9.61,9.55v32.15c0,6.15,3.44,9.56,9.61,9.56ZM230.86,139.08c-1.92,0-2.9-.9-2.9-2.94v-23.34c0-2.03.99-2.93,2.9-2.93h35.83c1.91,0,2.92.89,2.92,2.93v23.34c0,2.05-1.01,2.94-2.92,2.94h-35.83ZM243.83,118.29h1.55c1,0,1.34-.31,1.34-1.3v-1.55c0-.99-.34-1.3-1.34-1.3h-1.55c-.99,0-1.33.31-1.33,1.3v1.55c0,.99.34,1.3,1.33,1.3ZM252.2,118.29h1.57c.99,0,1.33-.31,1.33-1.3v-1.55c0-.99-.34-1.3-1.33-1.3h-1.57c-.98,0-1.32.31-1.32,1.3v1.55c0,.99.34,1.3,1.32,1.3ZM260.59,118.29h1.57c.98,0,1.32-.31,1.32-1.3v-1.55c0-.99-.35-1.3-1.32-1.3h-1.57c-.98,0-1.32.31-1.32,1.3v1.55c0,.99.35,1.3,1.32,1.3ZM235.45,126.53h1.57c.98,0,1.32-.31,1.32-1.28v-1.57c0-.99-.35-1.3-1.32-1.3h-1.57c-.98,0-1.34.31-1.34,1.3v1.57c0,.98.36,1.28,1.34,1.28ZM243.83,126.53h1.55c1,0,1.34-.31,1.34-1.28v-1.57c0-.99-.34-1.3-1.34-1.3h-1.55c-.99,0-1.33.31-1.33,1.3v1.57c0,.98.34,1.28,1.33,1.28ZM252.2,126.53h1.57c.99,0,1.33-.31,1.33-1.28v-1.57c0-.99-.34-1.3-1.33-1.3h-1.57c-.98,0-1.32.31-1.32,1.3v1.57c0,.98.34,1.28,1.32,1.28ZM260.59,126.53h1.57c.98,0,1.32-.31,1.32-1.28v-1.57c0-.99-.35-1.3-1.32-1.3h-1.57c-.98,0-1.32.31-1.32,1.3v1.57c0,.98.35,1.28,1.32,1.28ZM235.45,134.79h1.57c.98,0,1.32-.32,1.32-1.3v-1.57c0-.99-.35-1.3-1.32-1.3h-1.57c-.98,0-1.34.31-1.34,1.3v1.57c0,.98.36,1.3,1.34,1.3ZM243.83,134.79h1.55c1,0,1.34-.32,1.34-1.3v-1.57c0-.99-.34-1.3-1.34-1.3h-1.55c-.99,0-1.33.31-1.33,1.3v1.57c0,.98.34,1.3,1.33,1.3ZM252.2,134.79h1.57c.99,0,1.33-.32,1.33-1.3v-1.57c0-.99-.34-1.3-1.33-1.3h-1.57c-.98,0-1.32.31-1.32,1.3v1.57c0,.98.34,1.3,1.32,1.3Z" />
        </g>
    </g>
    <g>
        <circle fill="#a2845e" cx="413.46" cy="74.6" r="50" />
        <g class="symbol">
            <path
                d="M438.75,61.7v25.83c0,4.93-2.75,7.68-7.73,7.68h-35.72c-4.96,0-7.73-2.75-7.73-7.68v-25.83c0-4.94,2.77-7.68,7.73-7.68h35.72c4.98,0,7.73,2.74,7.73,7.68ZM395.43,82.96c0,.89.51,1.61,1.49,1.61h15.56c.99,0,1.49-.72,1.49-1.61,0-2-2.82-7.08-9.27-7.08s-9.27,5.07-9.27,7.08ZM418.87,81.46c-.89,0-1.54.68-1.54,1.54s.65,1.51,1.54,1.51h10.22c.87,0,1.51-.65,1.51-1.51s-.65-1.54-1.51-1.54h-10.22ZM418.87,73.12c-.89,0-1.54.66-1.54,1.51s.65,1.54,1.54,1.54h10.22c.87,0,1.51-.68,1.51-1.54s-.65-1.51-1.51-1.51h-10.22ZM400.01,69.42c0,2.92,2.11,5.12,4.69,5.12,2.59,0,4.7-2.19,4.7-5.12,0-2.76-2.1-5.03-4.7-5.03s-4.69,2.28-4.69,5.03ZM418.87,64.75c-.89,0-1.54.66-1.54,1.51s.65,1.54,1.54,1.54h10.22c.87,0,1.51-.68,1.51-1.54s-.65-1.51-1.51-1.51h-10.22Z" />
        </g>
    </g>
    <g>
        <circle fill="#007aff" cx="582.55" cy="74.6" r="50" />
        <g class="symbol">
            <path
                d="M562.12,77.44l15.64.04c.2,0,.28.08.28.27l.03,15.58c0,4.85,6.32,5.89,8.4,1.29l16.2-35.4c2.26-4.99-1.51-8.56-6.44-6.33l-35.5,16.22c-4.44,2.01-3.49,8.33,1.4,8.33Z" />
        </g>
    </g>
    <g>
        <circle fill="#ff9500" cx="742.05" cy="120.81" r="50" />
        <g class="symbol">
            <path
                d="M732.77,139.74h31.2c1.61,0,2.89-1.39,2.89-2.98s-1.25-2.96-2.89-2.96h-31.2c-1.62,0-2.88,1.37-2.88,2.96s1.27,2.98,2.88,2.98Z" />
            <path
                d="M720.63,140.82c2.23,0,4.06-1.83,4.06-4.06s-1.83-4.05-4.06-4.05-4.05,1.82-4.05,4.05,1.83,4.06,4.05,4.06Z" />
            <path
                d="M732.77,125h31.2c1.61,0,2.89-1.38,2.89-2.96s-1.25-2.97-2.89-2.97h-31.2c-1.62,0-2.88,1.37-2.88,2.97s1.27,2.96,2.88,2.96Z" />
            <path
                d="M720.63,126.1c2.23,0,4.06-1.83,4.06-4.06s-1.83-4.05-4.06-4.05-4.05,1.82-4.05,4.05,1.83,4.06,4.05,4.06Z" />
            <path
                d="M732.77,110.27h31.2c1.61,0,2.89-1.39,2.89-2.97s-1.25-2.96-2.89-2.96h-31.2c-1.62,0-2.88,1.37-2.88,2.96s1.27,2.97,2.88,2.97Z" />
            <path
                d="M720.63,111.36c2.23,0,4.06-1.82,4.06-4.05s-1.83-4.05-4.06-4.05-4.05,1.82-4.05,4.05,1.83,4.05,4.05,4.05Z" />
        </g>
    </g>
    <g>
        <circle fill="#55bef0" cx="880.66" cy="212.7" r="50" />
        <g class="symbol">
            <path
                d="M905.25,220.02l2.79,2.8c.88.88.9,2.32.02,3.18-.87.87-2.36.91-3.21.02l-2.8-2.82c-.87-.91-.9-2.34-.02-3.21.87-.87,2.32-.86,3.21.02ZM902.84,209.99c0,3.77-1.94,7.1-4.87,9.04-1.12-6.3-6.15-10.91-12.76-11.67-.7-1.05-1.51-2.04-2.45-2.94,1.89-3.15,5.34-5.26,9.26-5.26,5.95,0,10.82,4.87,10.82,10.84ZM914.6,209.99c0,1.24-1.03,2.24-2.27,2.24h-3.94c-1.23,0-2.29-.99-2.29-2.24s1.06-2.27,2.29-2.27h3.94c1.24,0,2.27,1.03,2.27,2.27ZM908.03,193.99c.87.87.88,2.34-.01,3.21l-2.8,2.79c-.88.87-2.35.89-3.23.03-.87-.87-.87-2.35.03-3.22l2.81-2.79c.89-.89,2.33-.89,3.21-.03ZM879.19,193.98l2.78,2.82c.86.89.88,2.34.02,3.21-.87.87-2.32.86-3.22-.04l-2.78-2.81c-.86-.86-.89-2.31-.02-3.19.87-.87,2.37-.88,3.22,0ZM894.25,189.62v3.95c0,1.24-1.03,2.28-2.27,2.28s-2.25-1.05-2.25-2.28v-3.95c0-1.24,1.03-2.27,2.25-2.27s2.27,1.04,2.27,2.27Z" />
            <path
                d="M859.24,232.71h24.81c6.15,0,10.81-4.74,10.81-10.97s-4.91-11.15-11.61-11.15c-2.24-4.2-6.41-7.65-12.77-7.65-7.41,0-13.54,5.56-14.15,12.88-3.78,1.03-6.28,4.25-6.28,8.31,0,5.07,3.69,8.59,9.19,8.59Z" />
        </g>
    </g>
</svg>