<svg id="Layer_1" xmlns="http://www.w3.org/2000/svg" viewBox="0 0 851.8 747.9" width="851.8" height="747.9"><style>.st0{fill:none;stroke:#000000;stroke-width:7;stroke-miterlimit:10;} .st1{fill:#010101;}</style><ellipse class="st0" cx="283" cy="474" rx="268" ry="230.5"/><ellipse class="st0" cx="568.8" cy="474.9" rx="268" ry="230.5"/><path class="st1" d="M426.6 341.6c-.2-.7-.6-1.3-1.3-1.6l-4.8-2.8c-.6-.4-1.4-.5-2.1-.3-.7.2-1.3.7-1.6 1.3l-20.3 35.5c-.4.6-.5 1.4-.3 2.1.2.7.6 1.4 1.3 1.8l4.9 2.8c.4.2.9.4 1.4.4 1 0 1.9-.5 2.4-1.4l20.2-35.6c.3-.7.4-1.5.2-2.2zM399.4 384.5l-5-2.8c-.6-.3-1.4-.3-2 0-.6.4-1 1-1.1 1.7l-.8 7.3c-.2.7.1 1.5.7 1.9.2.1.5.2.8.2.4 0 .9-.2 1.2-.4l6.4-4.3c.6-.4 1-1 1-1.8-.1-.8-.6-1.4-1.2-1.8zM457.2 376.9c.3-.9.2-1.9-.2-2.7l-1.4-2.7c-28.9-54.9-30.8-54-32.1-53.3-.5.3-.8.9-.7 1.5 0 5.7 23.4 58.7 26.7 60.4.7.4 1.5.6 2.3.6.7 0 1.4-.2 2.1-.6h.4c1.3-.7 2.4-1.8 2.9-3.2zM461.8 382.7c-1.8-.9-3.9-.8-5.5.5l-.2.2c-1.8 1.4-2.1 4.1-.7 5.9l.3.3c1.3 1.5 2.9 2.7 4.8 3.3 1.1.5 2.2 1 2.4 1.5.1.4.5.6.8.6.4 0 .7-.4.8-.8.2-.9.9-9.1-2.7-11.5zM434.6 362.5h-14c-1.5 0-2.6 1.2-2.6 2.6 0 1.5 1.2 2.6 2.6 2.6h14c1.5 0 2.6-1.2 2.6-2.6.1-1.4-1.1-2.6-2.6-2.6zM397 365.1c0-1.5-1.2-2.6-2.6-2.6h-5.3v-8.8h14c1.5 0 2.6-1.2 2.6-2.6 0-1.5-1.2-2.6-2.6-2.6h-16.6c-1.5 0-2.6 1.2-2.6 2.6v14c0 1.5 1.2 2.6 2.6 2.6h7.9c1.4.1 2.6-1.1 2.6-2.6zM465.3 348.5h-13.1c-1.5 0-2.6 1.2-2.6 2.6 0 1.5 1.2 2.6 2.6 2.6h10.5v8.8h-4.6c-1.5 0-2.6 1.2-2.6 2.6 0 1.5 1.2 2.6 2.6 2.6h7.2c1.5 0 2.6-1.2 2.6-2.6v-14c0-1.4-1.2-2.6-2.6-2.6z"/><g><path d="M404 433.3h-9.5l-2.4 6.9H389l8.8-24h3l8.8 24h-3.1l-2.5-6.9zm-8.6-2.6h7.8l-3.8-10.9h-.1l-3.9 10.9zM427.7 431.5c0 5.4-3 8.9-7.3 8.9-2.5 0-4.5-1.2-5.5-3.1h-.1v8.6h-2.9v-23h2.7v2.9h.1c1.1-1.9 3.1-3.2 5.6-3.2 4.4-.1 7.4 3.5 7.4 8.9zm-3 0c0-3.9-1.9-6.4-5-6.4-3 0-5 2.6-5 6.4 0 3.9 2 6.4 5 6.4 3.1 0 5-2.5 5-6.4zM446.4 431.5c0 5.4-3 8.9-7.3 8.9-2.5 0-4.5-1.2-5.5-3.1h-.1v8.6h-2.9v-23h2.7v2.9h.1c1.1-1.9 3.1-3.2 5.6-3.2 4.4-.1 7.4 3.5 7.4 8.9zm-3 0c0-3.9-1.9-6.4-5-6.4-3 0-5 2.6-5 6.4 0 3.9 2 6.4 5 6.4 3.1 0 5-2.5 5-6.4zM455.4 422.5c3.6 0 6.2 2.1 6.3 5.1H459c-.2-1.7-1.5-2.7-3.7-2.7-2.1 0-3.5 1-3.5 2.6 0 1.2.9 2 2.9 2.5l2.7.6c3.5.9 4.8 2.1 4.8 4.7 0 3-2.8 5.1-6.9 5.1-3.8 0-6.4-2.1-6.7-5.1h2.9c.3 1.8 1.7 2.8 4 2.8s3.8-1 3.8-2.6c0-1.2-.7-1.9-2.7-2.4l-3-.8c-3-.8-4.5-2.3-4.5-4.7-.1-2.9 2.5-5.1 6.3-5.1z"/></g><g><ellipse class="st1" cx="425.9" cy="503.7" rx="10.3" ry="5.1"/><ellipse class="st1" cx="425.9" cy="484.9" rx="10.3" ry="5.1"/><ellipse class="st1" cx="448.1" cy="493.4" rx="10.3" ry="5.1"/><ellipse class="st1" cx="405.3" cy="493.4" rx="10.3" ry="5.1"/><path class="st1" d="M387.9 531.9l33 14.4c.9.4 1.9 0 2.3-.9.1-.2.1-.4.1-.7v-27.4c0-.7-.4-1.3-1-1.6l-35.1-15.3c-.9-.4-1.9 0-2.3.9-.1.2-.1.5-.1.7v25.1c0 2.1 1.2 3.9 3.1 4.8zM428.5 517.3v27.4c0 .9.8 1.7 1.7 1.7.2 0 .5 0 .7-.1l33-14.4c1.9-.8 3.1-2.7 3.1-4.7V502c0-.9-.8-1.7-1.7-1.7-.2 0-.5 0-.7.1l-35.1 15.3c-.6.3-1 .9-1 1.6z"/><g><path d="M377.1 570.4c4.5 0 7.7 3.2 7.7 7.7 0 4.6-3.2 7.7-7.7 7.7h-5.5v8.6h-3v-24h8.5zm-5.5 12.8h4.8c3.4 0 5.4-1.9 5.4-5.1 0-3.2-1.9-5-5.4-5h-4.8v10.1zM387.9 570.4h2.9v24h-2.9v-24zM408.9 594.4h-2.7v-2.8h-.1c-1 2-2.8 3.1-5.5 3.1-3.8 0-6-2.4-6-6.4v-11.2h2.9v10.7c0 2.8 1.3 4.3 4 4.3 2.8 0 4.5-1.9 4.5-4.9V577h2.9v17.4zM412.5 595.8h3c.6 1.6 2.3 2.6 4.4 2.6 3 0 4.8-1.7 4.8-4.3v-2.7h-.1c-1.1 1.9-3.1 3.1-5.5 3.1-4.4 0-7.3-3.5-7.3-8.8 0-5.4 2.9-8.9 7.4-8.9 2.4 0 4.5 1.2 5.6 3.2v-2.9h2.8V594c0 4.1-3 6.9-7.8 6.9-3.8 0-6.8-2.1-7.3-5.1zm12.2-10.1c0-3.8-2-6.3-5-6.3s-4.9 2.5-4.9 6.3 1.9 6.3 4.9 6.3c3 0 5-2.5 5-6.3zM431.3 586v-2.7h10.9v2.7h-10.9zM446.4 594.4v-24h3v24h-3zM453.6 577.1h2.7v2.8h.1c1-1.9 2.8-3.1 5.5-3.1 3.8 0 6 2.4 6 6.4v11.2H465v-10.7c0-2.8-1.3-4.3-4-4.3s-4.5 1.9-4.5 4.9v10.2h-2.9v-17.4zM477.7 576.8c3.6 0 6.2 2.1 6.3 5.1h-2.8c-.2-1.7-1.5-2.7-3.7-2.7-2.1 0-3.5 1-3.5 2.6 0 1.2.9 2 2.9 2.5l2.7.6c3.5.9 4.8 2.1 4.8 4.7 0 3-2.8 5.1-6.9 5.1-3.8 0-6.4-2.1-6.7-5.1h2.9c.3 1.8 1.7 2.8 4 2.8s3.8-1 3.8-2.6c0-1.2-.7-1.9-2.7-2.4l-3-.8c-3-.8-4.5-2.3-4.5-4.7 0-3 2.6-5.1 6.4-5.1z"/></g></g><g><path class="st1" d="M167.9 428.5c0-1.7 1.4-3.1 3.1-3.1h15.7c1.7 0 3.1 1.4 3.1 3.1v1c0 1.2.9 2.1 2.1 2.1h32.9c1.2 0 2.1-.9 2.1-2.1v-15.7c0-2.3-1.9-4.2-4.2-4.2h-23.1c-1.2-11.5-11.4-19.9-22.9-18.7-9.9 1-17.7 8.8-18.7 18.7h-23c-2.3 0-4.2 1.9-4.2 4.2v15.7c0 1.2.9 2.1 2.1 2.1h32.9c1.2 0 2.1-.9 2.1-2.1v-1zm11-29.3c6.1 0 11.3 4.4 12.4 10.5h-24.7c.9-6.1 6.2-10.5 12.3-10.5zM189.9 441.6c0 6.1-4.9 11-11 11-.7 0-1.5-.1-2.2-.2-5.2-1.2-8.9-5.9-8.8-11.2V440c0-1.2-.9-2.1-2.1-2.1h-32.9c-1.2 0-2.1.9-2.1 2.1v28.2c0 2.3 1.9 4.2 4.2 4.2h87.8c2.3 0 4.2-1.9 4.2-4.2V440c0-1.2-.9-2.1-2.1-2.1h-32.7c-1.2-.1-2.2.7-2.3 1.9v1.8z"/><path class="st1" d="M181.5 431.6h-5.2c-1.2 0-2.1.9-2.1 2.1v7.8c0 2.6 2.1 4.7 4.7 4.7s4.7-2.1 4.7-4.7v-7.8c0-1.1-.9-2.1-2.1-2.1z"/><g><path d="M93.9 527.1v-24h14.6v2.7H96.9v8.2h10.6v2.7H96.9v10.4h-3zM111.4 509.9h2.7v2.8h.1c.6-1.9 2.2-3.1 4.2-3.1.5 0 .9.1 1.2.1v2.8c-.2-.1-.8-.2-1.5-.2-2.2 0-3.7 1.6-3.7 4.1v10.8h-2.9v-17.3zM120.9 522.3c0-3 2.3-4.8 6.3-5.1l5-.3v-1.4c0-2.1-1.4-3.4-3.8-3.4-2.2 0-3.6 1-4 2.7h-2.8c.2-3 2.8-5.3 6.8-5.3 4.1 0 6.6 2.2 6.6 5.6V527h-2.7v-3h-.1c-1 2-3.2 3.3-5.5 3.3-3.5.1-5.8-1.9-5.8-5zm11.2-1.7v-1.4l-4.6.3c-2.3.1-3.7 1.2-3.7 2.8 0 1.6 1.4 2.7 3.5 2.7 2.7 0 4.8-1.9 4.8-4.4zM138.7 509.9h2.7v2.8h.1c.8-1.8 2.6-3.1 4.9-3.1 2.4 0 4.1 1.2 4.9 3.3h.1c1-2.1 3-3.3 5.4-3.3 3.4 0 5.6 2.2 5.6 5.6v11.9h-2.9v-11.3c0-2.4-1.3-3.8-3.6-3.8s-3.9 1.7-3.9 4v11h-2.9v-11.6c0-2.1-1.4-3.4-3.5-3.4-2.3 0-4 1.8-4 4.2V527h-2.9v-17.1zM180.3 522.2c-.5 3-3.4 5.3-7.2 5.3-5 0-8-3.4-8-8.9 0-5.4 3.1-9 7.8-9 4.7 0 7.5 3.4 7.5 8.6v1.1H168v.2c0 3.3 1.9 5.5 5.1 5.5 2.2 0 3.8-1.1 4.3-2.7h2.9zm-12.1-5.2h9.4c-.1-2.9-1.9-5-4.6-5-2.8.1-4.7 2.1-4.8 5zM200.6 527.1h-2.9l-3.9-13.4h-.1l-3.9 13.4h-2.9l-4.8-17.3h2.9l3.5 14.1h.1l3.9-14.1h2.8l3.9 14.1h.1l3.5-14.1h2.9l-5.1 17.3zM207 518.5c0-5.5 3.2-8.9 8-8.9s8 3.4 8 8.9-3.2 8.9-8 8.9-8-3.4-8-8.9zm13 0c0-4.1-2-6.4-5.1-6.4s-5.1 2.3-5.1 6.4 2 6.4 5.1 6.4 5.1-2.3 5.1-6.4zM225.9 509.9h2.7v2.8h.1c.6-1.9 2.2-3.1 4.2-3.1.5 0 .9.1 1.2.1v2.8c-.2-.1-.8-.2-1.5-.2-2.2 0-3.7 1.6-3.7 4.1v10.8H226v-17.3zM247 509.9h3.5l-7.5 7.5 7.7 9.8h-3.4l-6.4-8-1.6 1.5v6.5h-2.9v-24h2.9v14.4l7.7-7.7zM258.4 509.6c3.6 0 6.2 2.1 6.3 5.1h-2.8c-.2-1.7-1.5-2.7-3.7-2.7-2.1 0-3.5 1-3.5 2.6 0 1.2.9 2 2.9 2.5l2.7.6c3.5.9 4.8 2.1 4.8 4.7 0 3-2.8 5.1-6.9 5.1-3.8 0-6.4-2.1-6.7-5.1h2.9c.3 1.8 1.7 2.8 4 2.8s3.8-1 3.8-2.6c0-1.2-.7-1.9-2.7-2.4l-3-.8c-3-.8-4.5-2.3-4.5-4.7-.1-3 2.6-5.1 6.4-5.1z"/></g></g><g><path class="st1" d="M720.4 398.8l-24.2-24.2c-.8-.8-2-1.3-3.2-1.3h-51.8c-4.9 0-8.9 4-8.9 8.9v89.4c0 4.9 4 8.9 8.9 8.9h71.5c4.9 0 8.9-4 8.9-8.9V402c.1-1.2-.4-2.3-1.2-3.2zm-7.7 70.6c0 1.2-1 2.2-2.2 2.2h-67.1c-1.2 0-2.2-1-2.2-2.2v-84.9c0-1.2 1-2.2 2.2-2.2h46.8c.6 0 1.2.2 1.6.7l20.3 20.3c.4.4.7 1 .7 1.6v64.5z"/><path d="M604.9 503.2c7.1 0 11.3 4.4 11.3 12s-4.2 12-11.3 12h-8.1v-24h8.1zm-5.1 21.2h4.9c5.4 0 8.5-3.3 8.5-9.3 0-6-3-9.3-8.5-9.3h-4.9v18.6zM618.6 518.5c0-5.5 3.2-8.9 8-8.9s8 3.4 8 8.9-3.2 8.9-8 8.9-8-3.4-8-8.9zm13.1 0c0-4.1-2-6.4-5.1-6.4s-5.1 2.3-5.1 6.4c0 4.1 2 6.4 5.1 6.4s5.1-2.3 5.1-6.4zM649.1 515.5c-.4-1.9-1.9-3.4-4.4-3.4-3 0-5 2.5-5 6.4 0 4 2.1 6.4 5.1 6.4 2.4 0 3.9-1.2 4.4-3.3h2.8c-.4 3.4-3.3 5.9-7.3 5.9-4.8 0-8-3.4-8-8.9s3.2-8.9 7.9-8.9c4.3 0 6.9 2.9 7.3 6h-2.8zM668.8 527.1H666v-2.8c-1 2-2.8 3.1-5.5 3.1-3.8 0-6-2.4-6-6.4v-11.2h2.9v10.7c0 2.8 1.3 4.3 4 4.3 2.8 0 4.5-1.9 4.5-4.9v-10.2h2.9v17.4zM672.5 509.9h2.7v2.8h.1c.8-1.8 2.6-3.1 4.9-3.1 2.4 0 4.1 1.2 4.9 3.3h.1c1-2.1 3-3.3 5.4-3.3 3.4 0 5.6 2.2 5.6 5.7v11.9h-2.9v-11.3c0-2.4-1.3-3.8-3.6-3.8s-3.9 1.7-3.9 4v11h-2.9v-11.6c0-2.1-1.4-3.4-3.5-3.4-2.3 0-4 1.8-4 4.2v10.8h-2.9v-17.2zM714.2 522.2c-.5 3-3.4 5.3-7.2 5.3-5 0-8-3.4-8-8.9 0-5.4 3.1-9 7.8-9 4.7 0 7.5 3.4 7.5 8.6v1.1H702v.2c0 3.3 1.9 5.5 5.1 5.5 2.2 0 3.8-1.1 4.3-2.7h2.8zM702 517h9.4c-.1-2.9-1.9-5-4.6-5-2.7.1-4.6 2.1-4.8 5zM717.3 509.9h2.7v2.8h.1c1-1.9 2.8-3.1 5.5-3.1 3.8 0 6 2.4 6 6.4v11.2h-2.9v-10.7c0-2.8-1.3-4.3-4-4.3s-4.5 1.9-4.5 4.9v10.2h-2.9v-17.4zM739.1 505.7v4.2h3.4v2.4h-3.4v10.3c0 1.6.7 2.3 2.1 2.3.3 0 1 0 1.2-.1v2.4c-.3.1-1.1.1-1.8.1-3.2 0-4.4-1.3-4.4-4.6v-10.4h-2.6v-2.4h2.6v-4.2h2.9zM751.6 509.6c3.6 0 6.2 2.1 6.3 5.1h-2.8c-.2-1.7-1.5-2.7-3.7-2.7-2.1 0-3.5 1-3.5 2.6 0 1.2.9 2 2.9 2.5l2.7.6c3.5.9 4.8 2.1 4.8 4.7 0 3-2.8 5.1-6.9 5.1-3.8 0-6.4-2.1-6.7-5.1h2.9c.3 1.8 1.7 2.8 4 2.8s3.8-1 3.8-2.6c0-1.2-.7-1.9-2.7-2.4l-3-.8c-3-.8-4.5-2.3-4.5-4.7 0-3 2.6-5.1 6.4-5.1z"/></g><g><path class="st1" d="M210.9 73.4c0 .5.4 1 1 1h4.7c.2 0 .3-.1.4-.2.1-.1.1-.3 0-.5-.2-.5-.6-1-.9-1.4l-3.1-3.1c-.4-.4-.9-.7-1.4-.9-.2-.1-.5 0-.7.2 0 .1-.1.1-.1.2v4.7z"/><path class="st1" d="M211.9 76.3c-1.6 0-3-1.3-3-3V68c0-.3-.2-.5-.5-.5H203c-1.6 0-3 1.3-3 3v15.8c0 1.6 1.3 3 3 3h11.8c1.6 0 3-1.3 3-3v-9.4c0-.3-.2-.5-.5-.5l-5.4-.1zM211.9 102c-1.6 0-3-1.3-3-3v-5.4c0-.3-.2-.5-.5-.5H203c-1.6 0-3 1.3-3 3v15.8c0 1.6 1.3 3 3 3h11.8c1.6 0 3-1.3 3-3v-9.4c0-.3-.2-.5-.5-.5h-5.4z"/><path class="st1" d="M210.9 99c0 .5.4 1 1 1h4.7c.2 0 .3-.1.4-.2.1-.1.1-.3 0-.5-.2-.5-.6-1-.9-1.4l-3.1-3.1c-.4-.4-.9-.7-1.4-.9-.2-.1-.5 0-.7.2 0 .1-.1.1-.1.2l.1 4.7zM185.3 73.4c1.1 0 2-.9 2-2v-2c0-1.1-.9-2-2-2s-2 .9-2 2v2c0 1.1.9 2 2 2zM185.3 87.2c1.1 0 2-.9 2-2v-2c0-1.1-.9-2-2-2s-2 .9-2 2v2c0 1.1.9 2 2 2zM187.3 75.4h-2c-1.1 0-2 .9-2 2s.9 2 2 2h2c1.1 0 2-.9 2-2s-.9-2-2-2zM183.3 93.1c0 1.1.9 2 2 2s2-.9 2-2v-2c0-1.1-.9-2-2-2s-2 .9-2 2v2zM183.3 101c0 1.1.9 2 2 2s2-.9 2-2v-2c0-1.1-.9-2-2-2s-2 .9-2 2v2zM187.3 104.9h-2c-1.1 0-2 .9-2 2s.9 2 2 2h2c1.1 0 2-.9 2-2s-.9-2-2-2zM195.2 75.4h-2c-1.1 0-2 .9-2 2s.9 2 2 2h2c1.1 0 2-.9 2-2s-1-2-2-2zM195.2 104.9h-2c-1.1 0-2 .9-2 2s.9 2 2 2h2c1.1 0 2-.9 2-2s-1-2-2-2z"/><path class="st1" d="M266.3 136h-98c-8 0-14.5-6.5-14.5-14.5V48.9c0-8 6.5-14.5 14.5-14.5h21.8c3.5 0 6.8 1.4 9.1 3.9l7.6 7.8c.6.6 1.4 1 2.3 1h59c7 0 12.7 5.7 12.7 12.7v61.7c0 8-6.5 14.5-14.5 14.5zm-97.9-88.9c-1 0-1.8.8-1.8 1.8v72.6c0 1 .8 1.8 1.8 1.8h98c1 0 1.8-.8 1.8-1.8V62.9c0-1.8-1.4-3.2-3.2-3.2h-57.1c-3.5 0-6.8-1.4-9.1-3.9l-7.6-7.8c-.6-.6-1.4-1-2.3-1h-20.5z"/><g><path d="M156.3 196.8v-24h10.4c4.5 0 7.3 2.3 7.3 6 0 2.6-2 4.8-4.5 5.2v.1c3.3.2 5.6 2.6 5.6 5.8 0 4.2-3.2 6.9-8.3 6.9h-10.5zm5.1-14h3.6c2.7 0 4.2-1.2 4.2-3.2 0-1.9-1.3-3-3.7-3h-4.1v6.2zm4.3 10.3c2.9 0 4.5-1.2 4.5-3.5 0-2.2-1.6-3.4-4.6-3.4h-4.2v7h4.3zM194.2 196.8h-4.7v-3.2h-.1c-.9 2.2-2.6 3.5-5.3 3.5-3.9 0-6.4-2.5-6.4-6.7V179h4.9v10.5c0 2.4 1.2 3.6 3.3 3.6 2.2 0 3.5-1.5 3.5-3.9V179h4.9v17.8zM197.3 179h4.7v3.2h.1c.9-2.2 2.8-3.5 5.6-3.5 4 0 6.2 2.5 6.2 6.7v11.5H209v-10.5c0-2.3-1.1-3.7-3.3-3.7s-3.6 1.6-3.6 3.9v10.2h-4.9V179zM216.3 187.8c0-5.6 2.8-9.2 7.3-9.2 2.6 0 4.6 1.4 5.4 3.3h.1v-9.2h4.9v24h-4.8v-3.1h-.1c-.9 2-2.9 3.3-5.6 3.3-4.4.2-7.2-3.4-7.2-9.1zm5 .1c0 3.3 1.5 5.3 3.9 5.3s4-2 4-5.3c0-3.2-1.5-5.3-4-5.3-2.4 0-3.9 2-3.9 5.3zM237.3 172.8h4.9v24h-4.9v-24zM261.7 191.3c-.5 3.5-3.7 5.8-8.1 5.8-5.5 0-8.8-3.5-8.8-9.2 0-5.7 3.3-9.4 8.6-9.4 5.2 0 8.5 3.5 8.5 8.9v1.5h-12.3v.3c0 2.5 1.6 4.3 4.1 4.3 1.8 0 3.1-.9 3.6-2.2h4.4zm-12.1-5.3h7.6c-.1-2.3-1.6-3.8-3.7-3.8-2.2 0-3.7 1.6-3.9 3.8zM271.6 178.6c4.5 0 7.4 2.3 7.4 5.7h-4.5c-.1-1.4-1.2-2.3-3-2.3-1.7 0-2.8.8-2.8 1.9 0 .9.8 1.5 2.3 1.8l3.4.7c3.6.8 5 2.2 5 4.9 0 3.5-3.2 5.8-7.9 5.8-4.8 0-7.7-2.3-7.9-5.8h4.7c.2 1.5 1.4 2.4 3.3 2.4 1.8 0 3-.7 3-1.9 0-.9-.6-1.4-2.2-1.8l-3.3-.7c-3.4-.8-5.1-2.5-5.1-5.2.1-3.3 3-5.5 7.6-5.5z"/></g><g><path d="M577.6 172.8c4.9 0 8.3 3.3 8.3 8.2 0 4.9-3.5 8.2-8.6 8.2h-4.5v7.6h-5v-24h9.8zm-4.7 12.5h3.4c2.9 0 4.6-1.5 4.6-4.3 0-2.7-1.7-4.3-4.5-4.3H573v8.6zM586.6 191.7c0-3.2 2.5-5.1 6.9-5.4l4.5-.3v-1.2c0-1.7-1.2-2.6-3-2.6s-3 .9-3.2 2.2h-4.4c.2-3.5 3.1-5.8 7.8-5.8 4.6 0 7.5 2.4 7.5 5.9v12.2H598V194c-1 1.9-3.2 3-5.4 3-3.4.1-6-2.1-6-5.3zm11.4-1.4V189l-3.8.2c-1.8.1-2.8.9-2.8 2.2 0 1.3 1.1 2.2 2.7 2.2 2.2 0 3.9-1.4 3.9-3.3zM617.6 185.6c-.3-1.9-1.5-3.2-3.5-3.2-2.4 0-3.9 2-3.9 5.5s1.5 5.5 3.9 5.5c1.9 0 3.2-1.2 3.5-3.1h4.5c-.2 4.2-3.4 6.9-8.1 6.9-5.4 0-8.8-3.5-8.8-9.3 0-5.7 3.4-9.3 8.7-9.3 4.8 0 7.9 3 8.1 7h-4.4zM635.6 179h5.5l-6.8 7.6 7.1 10.2h-5.6l-5.1-7.2-1.3 1.4v5.9h-4.9v-24h4.9v13.3h.1l6.1-7.2zM642 191.7c0-3.2 2.5-5.1 6.9-5.4l4.5-.3v-1.2c0-1.7-1.2-2.6-3-2.6s-3 .9-3.2 2.2h-4.4c.2-3.5 3.1-5.8 7.8-5.8 4.6 0 7.5 2.4 7.5 5.9v12.2h-4.7V194h-.1c-1 1.9-3.2 3-5.4 3-3.3.1-5.9-2.1-5.9-5.3zm11.5-1.4V189l-3.8.2c-1.8.1-2.8.9-2.8 2.2 0 1.3 1.1 2.2 2.7 2.2 2.1 0 3.9-1.4 3.9-3.3zM661.3 198.1h4.8c.4 1.2 1.8 2.1 3.6 2.1 2.5 0 3.9-1.4 3.9-3.5v-3.1h-.1c-.8 1.9-2.9 3.2-5.5 3.2-4.4 0-7.2-3.4-7.2-8.9 0-5.6 2.8-9.1 7.3-9.1 2.6 0 4.6 1.3 5.5 3.4h.1V179h4.8v17.6c0 4.3-3.6 7-8.9 7-4.8-.1-8-2.4-8.3-5.5zm12.3-10.3c0-3.2-1.5-5.3-4-5.3-2.4 0-3.9 2-3.9 5.3s1.5 5.2 3.9 5.2 4-1.9 4-5.2zM697.8 191.3c-.5 3.5-3.7 5.8-8.1 5.8-5.5 0-8.8-3.5-8.8-9.2 0-5.7 3.3-9.4 8.6-9.4 5.2 0 8.5 3.5 8.5 8.9v1.5h-12.3v.3c0 2.5 1.6 4.3 4.1 4.3 1.8 0 3.1-.9 3.6-2.2h4.4zm-12.1-5.3h7.6c-.1-2.3-1.6-3.8-3.7-3.8-2.2 0-3.7 1.6-3.9 3.8zM707.7 178.6c4.5 0 7.4 2.3 7.4 5.7h-4.5c-.1-1.4-1.2-2.3-3-2.3-1.7 0-2.8.8-2.8 1.9 0 .9.8 1.5 2.3 1.8l3.4.7c3.6.8 5 2.2 5 4.9 0 3.5-3.2 5.8-7.9 5.8-4.8 0-7.7-2.3-7.9-5.8h4.7c.2 1.5 1.4 2.4 3.3 2.4 1.8 0 3-.7 3-1.9 0-.9-.6-1.4-2.2-1.8l-3.3-.7c-3.4-.8-5.1-2.5-5.1-5.2.1-3.3 3-5.5 7.6-5.5z"/><g><path class="st1" d="M662.5 65c.7-.3 1-1.1.7-1.8-.1-.3-.4-.5-.7-.7L610 38.6c-.7-.3-1.5-.3-2.2 0l-20.6 8.9c-.7.3-1 1.1-.7 1.8.1.3.4.6.7.7l55.4 23.1c.7.3 1.5.3 2.2 0l17.7-8.1zM695.3 50.1c.7-.3 1-1.1.7-1.8-.1-.3-.4-.5-.7-.7l-52-22.6c-1.4-.6-2.9-.6-4.3 0l-17.3 7.5c-.7.3-1 1.1-.7 1.8.1.3.4.5.7.7l52.2 23.8c.7.3 1.5.3 2.2 0l19.2-8.7zM581.1 56.2c-.7-.3-1.5 0-1.8.7-.1.2-.1.3-.1.5v60c0 2.2 1.3 4.1 3.3 5l55.4 23.1c.7.3 1.5 0 1.8-.7.1-.2.1-.3.1-.5V81.5c0-.5-.3-1-.8-1.2l-57.9-24.1zM647.9 144c0 .7.6 1.3 1.4 1.3.2 0 .4 0 .5-.1l50.1-22.8c1.9-.9 3.2-2.8 3.2-4.9v-60c0-.7-.6-1.3-1.3-1.3-.2 0-.4 0-.6.1l-52.5 23.9c-.5.2-.8.7-.8 1.2V144z"/></g></g></g></svg>