<svg xmlns="http://www.w3.org/2000/svg" viewBox="0 0 24 24" width="24" height="24"><path d="M22.5 7.407h-4.757a.25.25 0 0 1-.246-.295l.982-5.39a1.249 1.249 0 1 0-2.458-.449L14.94 7.2a.251.251 0 0 1-.246.206h-3.633a.25.25 0 0 1-.246-.295l.983-5.39a1.25 1.25 0 0 0-2.459-.449L8.258 7.2a.251.251 0 0 1-.246.206h-4.6a1.25 1.25 0 0 0 0 2.5h4.053a.252.252 0 0 1 .192.094.246.246 0 0 1 .054.205l-.671 3.678a.25.25 0 0 1-.246.205H1.5a1.25 1.25 0 0 0 0 2.5h4.747a.249.249 0 0 1 .192.09.246.246 0 0 1 .054.2l-.982 5.39a1.25 1.25 0 0 0 2.459.449l1.08-5.929a.252.252 0 0 1 .246-.2h3.633a.25.25 0 0 1 .246.295l-.983 5.39a1.25 1.25 0 0 0 2.459.449l1.081-5.929a.251.251 0 0 1 .246-.2h4.613a1.25 1.25 0 1 0 0-2.5h-4.066a.25.25 0 0 1-.246-.295l.671-3.681a.25.25 0 0 1 .246-.205h5.3a1.25 1.25 0 0 0 0-2.5zm-8.778 6.476a.25.25 0 0 1-.246.205H9.843a.25.25 0 0 1-.246-.295l.671-3.681a.251.251 0 0 1 .246-.205h3.633a.249.249 0 0 1 .246.294z"/></svg>