<svg xmlns="http://www.w3.org/2000/svg" viewBox="0 0 24 24" width="24" height="24"><path d="M24 4.751a3 3 0 0 0-3-3H3a3 3 0 0 0-3 3v14.5a3 3 0 0 0 3 3h18a3 3 0 0 0 3-3zm-14.346-1a.966.966 0 0 1 1.692 0 .969.969 0 0 1 .154.5.972.972 0 0 1-.154.5.966.966 0 0 1-1.692 0 .972.972 0 0 1-.154-.5.969.969 0 0 1 .154-.5zm-3.5 0a.966.966 0 0 1 1.692 0 .969.969 0 0 1 .154.5.972.972 0 0 1-.154.5.966.966 0 0 1-1.692 0 .972.972 0 0 1-.154-.5.969.969 0 0 1 .154-.5zm-3.562.091a1 1 0 0 1 .908-.591.983.983 0 0 1 .846.5.969.969 0 0 1 .154.5.972.972 0 0 1-.154.5.966.966 0 0 1-1.692 0 .972.972 0 0 1-.154-.5.987.987 0 0 1 .092-.409zM22 19.251a1 1 0 0 1-1 1H3a1 1 0 0 1-1-1V7a.25.25 0 0 1 .25-.25h19.5A.25.25 0 0 1 22 7z"/></svg>