<svg xmlns="http://www.w3.org/2000/svg" viewBox="0 0 24 24" width="24" height="24"><path d="M4 16.49h3a1 1 0 0 0 .3-1.949.248.248 0 0 1-.152-.135.252.252 0 0 1 0-.2l1.11-2.562a.252.252 0 0 1 .229-.151h7.026a.252.252 0 0 1 .229.151l1.11 2.562a.251.251 0 0 1-.154.338A1 1 0 0 0 17 16.49h3a1 1 0 1 0 0-2h-.679a.249.249 0 0 1-.229-.15L13.377 1.151a1.5 1.5 0 0 0-2.754 0L4.908 14.34a.249.249 0 0 1-.229.15H4a1 1 0 1 0 0 2zm7.771-12.956a.25.25 0 0 1 .458 0l2.43 5.607a.253.253 0 0 1-.021.237.25.25 0 0 1-.209.112H9.571a.25.25 0 0 1-.209-.112.253.253 0 0 1-.021-.237zM22.957 17.748H1.043a1.022 1.022 0 0 0-1.043 1v4a1.022 1.022 0 0 0 1.043 1h21.914a1.022 1.022 0 0 0 1.043-1v-4a1.022 1.022 0 0 0-1.043-1zm-1.057 2.3l-1.5 2a.5.5 0 0 1-.8 0l-1.5-2a.5.5 0 0 1 .4-.8h3a.5.5 0 0 1 .4.8z"/></svg>