<svg xmlns="http://www.w3.org/2000/svg" viewBox="0 0 24 24" width="24" height="24"><path d="M11 7.166a.25.25 0 0 1-.25-.25v-2.5a1.251 1.251 0 0 0-1.25-1.25H9a.75.75 0 1 0 0 1.5.25.25 0 0 1 .25.25v2a.25.25 0 0 1-.25.25.75.75 0 0 0 0 1.5h2a.75.75 0 0 0 0-1.5zM20 13.166a.25.25 0 0 1-.25-.25v-2.5a1.251 1.251 0 0 0-1.25-1.25H18a.75.75 0 0 0 0 1.5.25.25 0 0 1 .25.25v2a.25.25 0 0 1-.25.25.75.75 0 0 0 0 1.5h2a.75.75 0 0 0 0-1.5zM7.25 13.916a.75.75 0 0 0-.75-.75.25.25 0 0 1-.25-.25v-2.5A1.251 1.251 0 0 0 5 9.166h-.5a.75.75 0 0 0 0 1.5.25.25 0 0 1 .25.25v2a.25.25 0 0 1-.25.25.75.75 0 0 0 0 1.5h2a.75.75 0 0 0 .75-.75zM20 7.166a.25.25 0 0 1-.25-.25v-2.5a1.251 1.251 0 0 0-1.25-1.25H18a.75.75 0 1 0 0 1.5.25.25 0 0 1 .25.25v2a.25.25 0 0 1-.25.25.75.75 0 0 0 0 1.5h2a.75.75 0 0 0 0-1.5zM5.5 3.166a1.752 1.752 0 0 0-1.75 1.75v2a1.75 1.75 0 0 0 3.5 0v-2a1.752 1.752 0 0 0-1.75-1.75zm.25 3.75c0 .275-.5.275-.5 0v-2a.25.25 0 0 1 .5 0zM10 9.166a1.752 1.752 0 0 0-1.75 1.75v2a1.75 1.75 0 0 0 3.5 0v-2A1.752 1.752 0 0 0 10 9.166zm.25 3.75c0 .275-.5.275-.5 0v-2a.25.25 0 0 1 .5 0zM14.5 3.166a1.752 1.752 0 0 0-1.75 1.75v2a1.75 1.75 0 0 0 3.5 0v-2a1.752 1.752 0 0 0-1.75-1.75zm.25 3.75c0 .275-.5.275-.5 0v-2a.25.25 0 0 1 .5 0zM15.75 13.247A.25.25 0 0 1 15.5 13v-2.5a1.251 1.251 0 0 0-1.25-1.25h-.5a.75.75 0 0 0 0 1.5.25.25 0 0 1 .25.25v2a.25.25 0 0 1-.25.25.75.75 0 0 0 0 1.5h2a.75.75 0 0 0 0-1.5z"/></svg>