<svg xmlns="http://www.w3.org/2000/svg" viewBox="0 0 24 24" width="24" height="24"><path d="M4 4h1.5a.5.5 0 0 0 .5-.5V2a1 1 0 0 0-1-1H4a1 1 0 0 0-1 1v1a1 1 0 0 0 1 1zM18.5 4H20a1 1 0 0 0 1-1V2a1 1 0 0 0-1-1h-1a1 1 0 0 0-1 1v1.5a.5.5 0 0 0 .5.5zM23 10h-1.5a.5.5 0 0 1-.5-.5v-2a1 1 0 0 0-1-1h-1.5A.5.5 0 0 1 18 6V5a1 1 0 0 0-1-1h-1.5a1 1 0 0 0-1 1v1a.5.5 0 0 1-.5.5h-4a.5.5 0 0 1-.5-.5V5a1 1 0 0 0-1-1H7a1 1 0 0 0-1 1v1a.5.5 0 0 1-.5.5H4a1 1 0 0 0-1 1v2a.5.5 0 0 1-.5.5H1a1 1 0 0 0-1 1v7.5a1.5 1.5 0 0 0 3 0v-3a.5.5 0 0 1 .5-.5h1a.5.5 0 0 1 .5.5v3a1.5 1.5 0 0 0 3 0v-2a.5.5 0 0 1 .5-.5h7a.5.5 0 0 1 .5.5v2a1.5 1.5 0 0 0 3 0v-3a.5.5 0 0 1 .5-.5h1a.5.5 0 0 1 .5.5v3a1.5 1.5 0 0 0 3 0V11a1 1 0 0 0-1-1zM8.5 11a.5.5 0 0 1-.5.5H7a.5.5 0 0 1-.5-.5v-1a.5.5 0 0 1 .5-.5h1a.5.5 0 0 1 .5.5zm9 0a.5.5 0 0 1-.5.5h-1a.5.5 0 0 1-.5-.5v-1a.5.5 0 0 1 .5-.5h1a.5.5 0 0 1 .5.5z"/></svg>