<svg xmlns="http://www.w3.org/2000/svg" class="bob" font-size="14" viewbox="0 0 920 736" stroke="currentColor" stroke-linecap="round" stroke-linejoin="round" fill="none">
    <defs>
        <marker id="triangle" markerheight="8" markerwidth="8" orient="auto" refx="4" refy="2" viewbox="0 0 8 4">
            <polygon fill="black" points="0,0 0,4 8,2 0,0"/>
        </marker>
        <marker id="clear_triangle" markerheight="10" markerwidth="10" orient="auto" refx="1" refy="7" viewbox="0 0 20 14">
            <polygon fill="none" points="2,2 2,12 18,7 2,2" stroke="black" stroke-width="2"/>
        </marker>
        <marker id="circle" markerheight="5" markerwidth="5" orient="auto" refx="10" refy="10" viewbox="0 0 20 20">
            <circle cx="10" cy="10" fill="black" r="8"/>
        </marker>
        <marker id="square" markerheight="5" markerwidth="5" orient="auto" refx="10" refy="10" viewbox="0 0 20 20">
            <rect fill="black" width="20" height="20" viewbox="0 0 20 20" x="0" y="0"/>
        </marker>
        <marker id="open_circle" markerheight="10" markerwidth="10" orient="auto" refx="10" refy="10" viewbox="0 0 20 20">
            <circle cx="10" cy="10" fill="white" r="4" stroke="black" stroke-width="2"/>
        </marker>
        <marker id="big_open_circle" markerheight="20" markerwidth="20" orient="auto" refx="20" refy="20" viewbox="0 0 40 40">
            <circle cx="20" cy="20" fill="white" r="6" stroke="black" stroke-width="2"/>
        </marker>
    </defs>
    <style>
    text{stroke: none; fill: currentColor;}
    polygon{fill:currentColor;}
    </style>
    <g>
        <line x1="4" x2="4" y1="232" y2="264"/>
        <line x1="4" x2="252" y1="232" y2="232"/>
        <line x1="4" x2="252" y1="264" y2="264"/>
        <line x1="252" x2="252" y1="232" y2="264"/>
    </g>
    <g>
        <line x1="132" x2="132" y1="200" y2="224"/>
        <line x1="132" x2="236" y1="200" y2="200"/>
        <line x1="236" x2="236" y1="176" y2="200"/>
    </g>
    <g>
        <line x1="132" x2="272" y1="536" y2="536"/>
        <line marker-start="url(#open_circle)" x1="132" x2="132" y1="280" y2="536"/>
    </g>
    <g>
        <line x1="148" x2="148" y1="360" y2="392"/>
        <line x1="148" x2="340" y1="360" y2="360"/>
        <line x1="148" x2="340" y1="392" y2="392"/>
        <line x1="340" x2="340" y1="360" y2="392"/>
    </g>
    <g>
        <line x1="148" x2="148" y1="424" y2="456"/>
        <line x1="148" x2="340" y1="424" y2="424"/>
        <line x1="148" x2="340" y1="456" y2="456"/>
        <line x1="340" x2="340" y1="424" y2="456"/>
    </g>
    <g>
        <line x1="212" x2="212" y1="120" y2="152"/>
        <line x1="212" x2="332" y1="120" y2="120"/>
        <line x1="212" x2="332" y1="152" y2="152"/>
        <line x1="332" x2="332" y1="120" y2="152"/>
    </g>
    <g>
        <line x1="220" x2="220" y1="40" y2="72"/>
        <line x1="220" x2="324" y1="40" y2="40"/>
        <line x1="220" x2="324" y1="72" y2="72"/>
        <line x1="324" x2="324" y1="40" y2="72"/>
    </g>
    <g>
        <line marker-end="url(#triangle)" x1="236" x2="236" y1="176" y2="164"/>
    </g>
    <g>
        <line marker-end="url(#triangle)" x1="276" x2="276" y1="96" y2="84"/>
        <line x1="276" x2="276" y1="96" y2="112"/>
    </g>
    <g>
        <line x1="276" x2="276" y1="232" y2="264"/>
        <line x1="276" x2="500" y1="232" y2="232"/>
        <line x1="276" x2="500" y1="264" y2="264"/>
        <line x1="500" x2="500" y1="232" y2="264"/>
    </g>
    <g>
        <line x1="280" x2="282" y1="544" y2="548"/>
        <path d="M 280 528 A 16 16 0 0 0 280 544" fill="none"/>
        <path d="M 282 548 A 8 8 0 0 0 288 552" fill="none"/>
    </g>
    <g>
        <line x1="282" x2="280" y1="524" y2="528"/>
        <path d="M 288 520 A 8 8 0 0 0 282 524" fill="none"/>
    </g>
    <g>
        <line x1="288" x2="448" y1="520" y2="520"/>
        <path d="M 454 524 A 8 8 0 0 0 448 520" fill="none"/>
    </g>
    <g>
        <line x1="288" x2="448" y1="552" y2="552"/>
        <path d="M 448 552 A 8 8 0 0 0 454 548" fill="none"/>
    </g>
    <g>
        <line marker-end="url(#triangle)" x1="308" x2="308" y1="176" y2="164"/>
        <line x1="308" x2="308" y1="176" y2="200"/>
        <line x1="308" x2="412" y1="200" y2="200"/>
        <line x1="412" x2="412" y1="200" y2="224"/>
    </g>
    <g>
        <line marker-end="url(#triangle)" x1="352" x2="348" y1="376" y2="376"/>
        <line x1="352" x2="364" y1="376" y2="376"/>
        <line x1="364" x2="364" y1="376" y2="408"/>
        <line x1="364" x2="364" y1="408" y2="440"/>
        <line x1="364" x2="396" y1="408" y2="408"/>
    </g>
    <g>
        <line marker-end="url(#triangle)" x1="352" x2="348" y1="440" y2="440"/>
        <line x1="352" x2="364" y1="440" y2="440"/>
    </g>
    <g>
        <line x1="372" x2="372" y1="472" y2="512"/>
        <line x1="372" x2="420" y1="472" y2="472"/>
        <line marker-start="url(#open_circle)" x1="420" x2="420" y1="440" y2="472"/>
    </g>
    <g>
        <line x1="372" x2="372" y1="560" y2="696"/>
        <line marker-end="url(#open_circle)" x1="372" x2="484" y1="696" y2="696"/>
    </g>
    <g>
        <line x1="396" x2="396" y1="392" y2="424"/>
        <line x1="396" x2="548" y1="392" y2="392"/>
        <line x1="396" x2="548" y1="424" y2="424"/>
        <line x1="548" x2="548" y1="392" y2="424"/>
    </g>
    <g>
        <line x1="454" x2="456" y1="524" y2="528"/>
        <path d="M 456 544 A 16 16 0 0 0 456 528" fill="none"/>
    </g>
    <g>
        <line x1="454" x2="456" y1="548" y2="544"/>
    </g>
    <g>
        <line marker-end="url(#triangle)" x1="468" x2="468" y1="288" y2="276"/>
        <line x1="468" x2="468" y1="288" y2="384"/>
    </g>
    <g>
        <line x1="492" x2="492" y1="520" y2="552"/>
        <line x1="492" x2="756" y1="520" y2="520"/>
        <line x1="492" x2="756" y1="552" y2="552"/>
        <line x1="756" x2="756" y1="520" y2="552"/>
    </g>
    <g>
        <line x1="492" x2="492" y1="600" y2="632"/>
        <line x1="492" x2="756" y1="600" y2="600"/>
        <line x1="492" x2="756" y1="632" y2="632"/>
        <line x1="756" x2="756" y1="600" y2="632"/>
    </g>
    <g>
        <line x1="492" x2="492" y1="680" y2="712"/>
        <line x1="492" x2="756" y1="680" y2="680"/>
        <line x1="492" x2="756" y1="712" y2="712"/>
        <line x1="756" x2="756" y1="680" y2="712"/>
    </g>
    <g>
        <line x1="508" x2="508" y1="120" y2="152"/>
        <line x1="508" x2="908" y1="120" y2="120"/>
        <line x1="508" x2="908" y1="152" y2="152"/>
        <line x1="908" x2="908" y1="120" y2="152"/>
    </g>
    <g>
        <line x1="524" x2="524" y1="296" y2="384"/>
        <line marker-end="url(#triangle)" x1="524" x2="548" y1="296" y2="296"/>
    </g>
    <g>
        <line x1="524" x2="524" y1="432" y2="472"/>
        <line x1="524" x2="628" y1="472" y2="472"/>
        <line marker-end="url(#triangle)" x1="628" x2="628" y1="472" y2="508"/>
    </g>
    <g>
        <line x1="548" x2="596" y1="408" y2="408"/>
        <line x1="596" x2="596" y1="376" y2="408"/>
        <line marker-end="url(#triangle)" x1="596" x2="636" y1="376" y2="376"/>
        <line x1="596" x2="596" y1="408" y2="440"/>
        <line marker-end="url(#triangle)" x1="596" x2="636" y1="440" y2="440"/>
    </g>
    <g>
        <line x1="556" x2="556" y1="40" y2="72"/>
        <line x1="556" x2="860" y1="40" y2="40"/>
        <line x1="556" x2="860" y1="72" y2="72"/>
        <line x1="860" x2="860" y1="40" y2="72"/>
    </g>
    <g>
        <line x1="556" x2="556" y1="280" y2="312"/>
        <line x1="556" x2="868" y1="280" y2="280"/>
        <line x1="556" x2="868" y1="312" y2="312"/>
        <line x1="868" x2="868" y1="280" y2="312"/>
    </g>
    <g>
        <line x1="580" x2="580" y1="200" y2="232"/>
        <line x1="580" x2="844" y1="200" y2="200"/>
        <line x1="580" x2="844" y1="232" y2="232"/>
        <line x1="844" x2="844" y1="200" y2="232"/>
    </g>
    <g>
        <line marker-end="url(#triangle)" x1="628" x2="628" y1="560" y2="588"/>
    </g>
    <g>
        <line marker-end="url(#triangle)" x1="628" x2="628" y1="656" y2="644"/>
        <line x1="628" x2="628" y1="656" y2="672"/>
    </g>
    <g>
        <line x1="644" x2="644" y1="360" y2="392"/>
        <line x1="644" x2="748" y1="360" y2="360"/>
        <line x1="644" x2="748" y1="392" y2="392"/>
        <line x1="748" x2="748" y1="360" y2="392"/>
    </g>
    <g>
        <line x1="644" x2="644" y1="424" y2="456"/>
        <line x1="644" x2="748" y1="424" y2="424"/>
        <line x1="644" x2="748" y1="456" y2="456"/>
        <line x1="748" x2="748" y1="424" y2="456"/>
    </g>
    <g>
        <line marker-end="url(#triangle)" x1="708" x2="708" y1="96" y2="84"/>
        <line x1="708" x2="708" y1="96" y2="112"/>
    </g>
    <g>
        <line marker-end="url(#triangle)" x1="708" x2="708" y1="176" y2="164"/>
        <line x1="708" x2="708" y1="176" y2="192"/>
    </g>
    <g>
        <line marker-end="url(#triangle)" x1="708" x2="708" y1="256" y2="244"/>
        <line x1="708" x2="708" y1="256" y2="272"/>
    </g>
    <g>
        <line x1="748" x2="772" y1="376" y2="376"/>
        <line x1="772" x2="772" y1="344" y2="376"/>
        <line x1="772" x2="852" y1="344" y2="344"/>
        <line marker-end="url(#triangle)" x1="852" x2="852" y1="344" y2="380"/>
    </g>
    <g>
        <line x1="748" x2="772" y1="440" y2="440"/>
        <line x1="772" x2="772" y1="440" y2="472"/>
        <line x1="772" x2="852" y1="472" y2="472"/>
        <line x1="852" x2="852" y1="448" y2="472"/>
    </g>
    <g>
        <line x1="796" x2="796" y1="392" y2="424"/>
        <line x1="796" x2="908" y1="392" y2="392"/>
        <line x1="796" x2="908" y1="424" y2="424"/>
        <line x1="908" x2="908" y1="392" y2="424"/>
    </g>
    <g>
        <line marker-end="url(#triangle)" x1="852" x2="852" y1="448" y2="436"/>
    </g>
    <g>
        <text x="17" y="252">RangeReplaceableCollection</text>
    </g>
    <g>
        <text x="161" y="444">TextOutputStreamable</text>
    </g>
    <g>
        <text x="177" y="380">TextOutputStream</text>
    </g>
    <g>
        <text x="225" y="140">Collection</text>
    </g>
    <g>
        <text x="233" y="60">Sequence</text>
    </g>
    <g>
        <text x="289" y="252">BidirectionalCollection</text>
    </g>
    <g>
        <text x="329" y="540">String</text>
    </g>
    <g>
        <text x="409" y="412">StringProtocol</text>
    </g>
    <g>
        <text x="505" y="700">CustomDebugStringConvertible</text>
    </g>
    <g>
        <text x="513" y="540">LosslessStringConvertible</text>
    </g>
    <g>
        <text x="521" y="620">CustomStringConvertible</text>
    </g>
    <g>
        <text x="529" y="140">
ExpressibleByExtendedGraphemeClusterLiteral</text>
    </g>
    <g>
        <text x="569" y="60">ExpressibleByUnicodeScalarLiteral</text>
    </g>
    <g>
        <text x="577" y="300">ExpressibleByStringInterpolation</text>
    </g>
    <g>
        <text x="601" y="220">ExpressibleByStringLiteral</text>
    </g>
    <g>
        <text x="649" y="380">Comparable</text>
    </g>
    <g>
        <text x="657" y="444">Hashable</text>
    </g>
    <g>
        <text x="809" y="412">Equatable</text>
    </g>
</svg>
