<svg xmlns="http://www.w3.org/2000/svg" viewBox="0 0 128 128" width="128" height="128"><style>.st0{fill:#F9D780;} .st1{fill:#FFFFFF;}</style><path class="st0" d="M74.3 18.5c-2.7-4.8-6.3-7.4-10.3-7.4-4 0-7.7 2.6-10.3 7.4l-44.8 80c-2.7 4.7-3 9.3-.9 12.8 2.1 3.6 6.3 5.5 11.7 5.5h88.5c5.5 0 9.6-2 11.7-5.5 2.1-3.5 1.8-8.1-.9-12.8l-44.7-80z"/><path class="st1" d="M63 101.2c-3 0-5.4-2.4-5.4-5.4s2.4-5.4 5.4-5.4c3 0 5.4 2.4 5.4 5.4s-2.4 5.4-5.4 5.4zM69 43.9l-2.1 34.9c-.2 3-1.9 5.4-3.9 5.4s-3.7-2.4-3.9-5.4L57 43.9c-.2-3 2.1-5.4 5.1-5.4h1.8c3 0 5.2 2.4 5.1 5.4z"/></svg>